# 3ds Max Wavefront OBJ Exporter v0.97b - (c)2007 guruware
# 创建的文件:10.09.2017 15:17:48

mtllib 55_1_1.mtl

#
# object 图形005
#

v  14.0963 0.0000 -4.2523
v  15.0000 0.0000 -3.5355
v  15.0000 0.0000 -15.0000
v  13.0862 0.0000 -4.7302
v  -4.2523 0.0000 -14.0963
v  -3.5355 0.0000 -15.0000
v  -15.0000 0.0000 -15.0000
v  -4.7302 0.0000 -13.0862
v  15.0000 0.0000 15.0000
v  15.0000 0.0000 3.5355
v  14.0963 0.0000 4.2523
v  13.0861 0.0000 4.7302
v  3.5355 0.0000 -15.0000
v  4.2523 0.0000 -14.0963
v  4.7302 0.0000 -13.0861
v  4.9692 0.0000 -12.0121
v  12.0121 0.0000 -4.9692
v  10.9168 0.0000 -4.9692
v  4.9692 0.0000 -10.9168
v  4.7302 0.0000 -9.8428
v  9.8428 0.0000 -4.7302
v  4.2523 0.0000 -8.8326
v  8.8326 0.0000 -4.2523
v  3.5355 0.0000 -7.9289
v  -15.0000 0.0000 15.0000
v  12.0121 0.0000 4.9692
v  10.9168 0.0000 4.9692
v  9.8428 0.0000 4.7302
v  8.8326 0.0000 4.2523
v  7.9289 0.0000 3.5355
v  7.2121 0.0000 2.6318
v  6.7342 0.0000 1.6217
v  6.4953 0.0000 0.5477
v  6.4953 0.0000 -0.5477
v  -2.6318 0.0000 -7.2121
v  7.9289 0.0000 -3.5355
v  7.2121 0.0000 -2.6318
v  -4.9692 0.0000 -12.0121
v  -4.9692 0.0000 -10.9168
v  2.6318 0.0000 -7.2121
v  1.6217 0.0000 -6.7342
v  6.7343 0.0000 -1.6217
v  0.5477 0.0000 -6.4953
v  -0.5477 0.0000 -6.4953
v  -4.7302 0.0000 -9.8428
v  -4.2523 0.0000 -8.8326
v  -1.6217 0.0000 -6.7343
v  -3.5355 0.0000 -7.9289
# 48 vertices

vn 0.0000 1.0000 -0.0000
# 1 vertex normals

vt 0.1943 0.1287 0.5000
vt 0.2003 0.1239 0.5000
vt 0.2003 0.2003 0.5000
vt 0.1876 0.1319 0.5000
vt 0.0721 0.1943 0.5000
vt 0.0769 0.2003 0.5000
vt 0.0005 0.2003 0.5000
vt 0.0689 0.1876 0.5000
vt 0.2003 0.0005 0.5000
vt 0.2003 0.0769 0.5000
vt 0.1943 0.0721 0.5000
vt 0.1876 0.0689 0.5000
vt 0.1239 0.2003 0.5000
vt 0.1287 0.1943 0.5000
vt 0.1319 0.1876 0.5000
vt 0.1335 0.1804 0.5000
vt 0.1804 0.1335 0.5000
vt 0.1731 0.1335 0.5000
vt 0.1335 0.1731 0.5000
vt 0.1319 0.1660 0.5000
vt 0.1660 0.1319 0.5000
vt 0.1287 0.1592 0.5000
vt 0.1592 0.1287 0.5000
vt 0.1239 0.1532 0.5000
vt 0.0005 0.0005 0.5000
vt 0.1804 0.0673 0.5000
vt 0.1731 0.0673 0.5000
vt 0.1660 0.0689 0.5000
vt 0.1592 0.0721 0.5000
vt 0.1532 0.0769 0.5000
vt 0.1484 0.0829 0.5000
vt 0.1452 0.0896 0.5000
vt 0.1437 0.0968 0.5000
vt 0.1437 0.1040 0.5000
vt 0.0829 0.1484 0.5000
vt 0.1532 0.1239 0.5000
vt 0.1484 0.1179 0.5000
vt 0.0673 0.1804 0.5000
vt 0.0673 0.1731 0.5000
vt 0.1179 0.1484 0.5000
vt 0.1112 0.1452 0.5000
vt 0.1452 0.1112 0.5000
vt 0.1040 0.1437 0.5000
vt 0.0968 0.1437 0.5000
vt 0.0689 0.1660 0.5000
vt 0.0721 0.1592 0.5000
vt 0.0896 0.1452 0.5000
vt 0.0769 0.1532 0.5000
# 48 texture coords

g 图形005
usemtl Material__25
s 1
f 1/1/1 2/2/1 3/3/1 4/4/1 
f 5/5/1 6/6/1 7/7/1 8/8/1 
f 9/9/1 10/10/1 11/11/1 12/12/1 
f 3/3/1 13/13/1 14/14/1 15/15/1 
f 4/4/1 3/3/1 15/15/1 16/16/1 
f 17/17/1 4/4/1 16/16/1 18/18/1 
f 18/18/1 16/16/1 19/19/1 20/20/1 
f 21/21/1 18/18/1 20/20/1 22/22/1 
f 23/23/1 21/21/1 22/22/1 24/24/1 
f 25/25/1 9/9/1 12/12/1 26/26/1 
f 25/25/1 26/26/1 27/27/1 28/28/1 
f 25/25/1 28/28/1 29/29/1 30/30/1 
f 7/7/1 25/25/1 30/30/1 31/31/1 
f 7/7/1 31/31/1 32/32/1 33/33/1 
f 7/7/1 33/33/1 34/34/1 35/35/1 
f 36/36/1 23/23/1 24/24/1 37/37/1 
f 38/38/1 8/8/1 7/7/1 39/39/1 
f 37/37/1 24/24/1 40/40/1 41/41/1 
f 42/42/1 37/37/1 41/41/1 34/34/1 
f 34/34/1 41/41/1 43/43/1 44/44/1 
f 45/45/1 39/39/1 7/7/1 46/46/1 
f 34/34/1 44/44/1 47/47/1 35/35/1 
f 48/48/1 46/46/1 7/7/1 35/35/1 
# 23 polygons

