# 3ds Max Wavefront OBJ Exporter v0.97b - (c)2007 guruware
# 创建的文件:10.09.2017 15:18:26

mtllib 55_1_3.mtl

#
# object 图形015
#

v  -4.2523 0.0000 -14.0963
v  -3.5355 0.0000 -15.0000
v  -15.0000 0.0000 -15.0000
v  -4.7302 0.0000 -13.0862
v  15.0000 0.0000 -15.0000
v  3.5355 0.0000 -15.0000
v  4.2523 0.0000 -14.0963
v  4.7302 0.0000 -13.0861
v  15.0000 0.0000 -3.5355
v  4.9692 0.0000 -12.0121
v  4.9692 0.0000 -10.9168
v  4.7302 0.0000 -9.8428
v  -15.0000 0.0000 -3.5355
v  -4.9692 0.0000 -12.0121
v  -4.9692 0.0000 -10.9168
v  -4.7302 0.0000 -9.8428
v  4.2523 0.0000 -8.8326
v  3.5355 0.0000 -7.9289
v  -4.2523 0.0000 -8.8326
v  -3.5355 0.0000 -7.9289
v  -15.0000 0.0000 15.0000
v  15.0000 0.0000 15.0000
v  15.0000 0.0000 3.5355
v  -15.0000 0.0000 3.5355
v  -2.6318 0.0000 -7.2121
v  -1.6217 0.0000 -6.7343
v  2.6318 0.0000 -7.2121
v  1.6217 0.0000 -6.7342
v  -0.5477 0.0000 -6.4953
v  0.5477 0.0000 -6.4953
v  22.7879 0.0000 -2.6318
v  22.0711 0.0000 -3.5355
v  21.1674 0.0000 -4.2523
v  20.1572 0.0000 -4.7302
v  23.2658 0.0000 -1.6217
v  23.5047 0.0000 -0.5477
v  19.0832 0.0000 -4.9692
v  23.5047 0.0000 0.5477
v  17.9879 0.0000 -4.9692
v  23.2657 0.0000 1.6217
v  22.7879 0.0000 2.6318
v  22.0711 0.0000 3.5355
v  21.1674 0.0000 4.2523
v  20.1572 0.0000 4.7302
v  19.0832 0.0000 4.9692
v  17.9879 0.0000 4.9692
v  16.9139 0.0000 4.7302
v  15.9037 0.0000 4.2523
v  16.9139 0.0000 -4.7302
v  15.9037 0.0000 -4.2523
v  -15.9037 0.0000 4.2523
v  -15.9037 0.0000 -4.2523
v  -16.9139 0.0000 -4.7302
v  -16.9139 0.0000 4.7302
v  -17.9879 0.0000 4.9692
v  -17.9879 0.0000 -4.9692
v  -19.0832 0.0000 4.9692
v  -19.0832 0.0000 -4.9692
v  -20.1572 0.0000 4.7302
v  -21.1674 0.0000 4.2523
v  -22.0711 0.0000 3.5355
v  -22.7879 0.0000 2.6318
v  -23.2658 0.0000 1.6217
v  -23.5047 0.0000 0.5477
v  -23.5047 0.0000 -0.5477
v  -23.2657 0.0000 -1.6217
v  -22.7879 0.0000 -2.6318
v  -22.0711 0.0000 -3.5355
v  -21.1674 0.0000 -4.2523
v  -20.1572 0.0000 -4.7302
# 70 vertices

vn 0.0000 1.0000 -0.0000
# 1 vertex normals

vt 0.4717 0.1943 0.5000
vt 0.4765 0.2003 0.5000
vt 0.4001 0.2003 0.5000
vt 0.4685 0.1876 0.5000
vt 0.5999 0.2003 0.5000
vt 0.5235 0.2003 0.5000
vt 0.5283 0.1943 0.5000
vt 0.5315 0.1876 0.5000
vt 0.5999 0.1239 0.5000
vt 0.5331 0.1804 0.5000
vt 0.5331 0.1731 0.5000
vt 0.5315 0.1660 0.5000
vt 0.4001 0.1239 0.5000
vt 0.4669 0.1804 0.5000
vt 0.4669 0.1731 0.5000
vt 0.4685 0.1660 0.5000
vt 0.5283 0.1592 0.5000
vt 0.5235 0.1532 0.5000
vt 0.4717 0.1592 0.5000
vt 0.4765 0.1532 0.5000
vt 0.4001 0.0005 0.5000
vt 0.5999 0.0005 0.5000
vt 0.5999 0.0769 0.5000
vt 0.4001 0.0769 0.5000
vt 0.4825 0.1484 0.5000
vt 0.4892 0.1452 0.5000
vt 0.5175 0.1484 0.5000
vt 0.5108 0.1452 0.5000
vt 0.4964 0.1437 0.5000
vt 0.5036 0.1437 0.5000
vt 0.6518 0.1179 0.5000
vt 0.6470 0.1239 0.5000
vt 0.6410 0.1287 0.5000
vt 0.6342 0.1319 0.5000
vt 0.6549 0.1112 0.5000
vt 0.6565 0.1040 0.5000
vt 0.6271 0.1335 0.5000
vt 0.6565 0.0968 0.5000
vt 0.6198 0.1335 0.5000
vt 0.6549 0.0896 0.5000
vt 0.6518 0.0829 0.5000
vt 0.6470 0.0769 0.5000
vt 0.6410 0.0721 0.5000
vt 0.6342 0.0689 0.5000
vt 0.6271 0.0673 0.5000
vt 0.6198 0.0673 0.5000
vt 0.6126 0.0689 0.5000
vt 0.6059 0.0721 0.5000
vt 0.6126 0.1319 0.5000
vt 0.6059 0.1287 0.5000
vt 0.3941 0.0721 0.5000
vt 0.3941 0.1287 0.5000
vt 0.3874 0.1319 0.5000
vt 0.3874 0.0689 0.5000
vt 0.3802 0.0673 0.5000
vt 0.3802 0.1335 0.5000
vt 0.3729 0.0673 0.5000
vt 0.3729 0.1335 0.5000
vt 0.3658 0.0689 0.5000
vt 0.3590 0.0721 0.5000
vt 0.3530 0.0769 0.5000
vt 0.3482 0.0829 0.5000
vt 0.3450 0.0896 0.5000
vt 0.3435 0.0968 0.5000
vt 0.3435 0.1040 0.5000
vt 0.3450 0.1112 0.5000
vt 0.3482 0.1179 0.5000
vt 0.3530 0.1239 0.5000
vt 0.3590 0.1287 0.5000
vt 0.3658 0.1319 0.5000
# 70 texture coords

g 图形015
usemtl Material__25
s 1
f 1/1/1 2/2/1 3/3/1 4/4/1 
f 5/5/1 6/6/1 7/7/1 8/8/1 
f 9/9/1 5/5/1 8/8/1 10/10/1 
f 9/9/1 10/10/1 11/11/1 12/12/1 
f 4/4/1 3/3/1 13/13/1 14/14/1 
f 15/15/1 14/14/1 13/13/1 16/16/1 
f 9/9/1 12/12/1 17/17/1 18/18/1 
f 19/19/1 16/16/1 13/13/1 20/20/1 
f 21/21/1 22/22/1 23/23/1 24/24/1 
f 25/25/1 20/20/1 13/13/1 26/26/1 
f 9/9/1 18/18/1 27/27/1 28/28/1 
f 29/29/1 26/26/1 13/13/1 24/24/1 
f 9/9/1 28/28/1 30/30/1 24/24/1 
f 31/31/1 32/32/1 33/33/1 34/34/1 
f 35/35/1 31/31/1 34/34/1 36/36/1 
f 36/36/1 34/34/1 37/37/1 38/38/1 
f 38/38/1 37/37/1 39/39/1 40/40/1 
f 41/41/1 40/40/1 39/39/1 42/42/1 
f 43/43/1 42/42/1 39/39/1 44/44/1 
f 45/45/1 44/44/1 39/39/1 46/46/1 
f 47/47/1 46/46/1 39/39/1 48/48/1 
f 23/23/1 48/48/1 39/39/1 49/49/1 
f 23/23/1 49/49/1 50/50/1 9/9/1 
f 24/24/1 23/23/1 9/9/1 
f 24/24/1 30/30/1 29/29/1 
f 51/51/1 24/24/1 13/13/1 52/52/1 
f 51/51/1 52/52/1 53/53/1 54/54/1 
f 55/55/1 54/54/1 53/53/1 56/56/1 
f 57/57/1 55/55/1 56/56/1 58/58/1 
f 59/59/1 57/57/1 58/58/1 60/60/1 
f 61/61/1 60/60/1 58/58/1 62/62/1 
f 63/63/1 62/62/1 58/58/1 64/64/1 
f 65/65/1 64/64/1 58/58/1 66/66/1 
f 67/67/1 66/66/1 58/58/1 68/68/1 
f 69/69/1 68/68/1 58/58/1 70/70/1 
# 33 polygons - 2 triangles

