# 3ds Max Wavefront OBJ Exporter v0.97b - (c)2007 guruware
# 创建的文件:10.09.2017 15:42:18

mtllib 55_5_5.mtl

#
# object 图形021
#

v  4.2523 0.0000 14.0963
v  3.5355 0.0000 15.0000
v  15.0000 0.0000 15.0000
v  4.7302 0.0000 13.0862
v  -14.0963 0.0000 4.2523
v  -15.0000 0.0000 3.5355
v  -15.0000 0.0000 15.0000
v  -13.0862 0.0000 4.7302
v  -3.5355 0.0000 15.0000
v  -4.2523 0.0000 14.0963
v  -4.7302 0.0000 13.0861
v  -15.0000 0.0000 -15.0000
v  -15.0000 0.0000 -3.5355
v  -14.0963 0.0000 -4.2523
v  -13.0861 0.0000 -4.7302
v  -4.9692 0.0000 12.0121
v  -12.0121 0.0000 4.9692
v  -10.9168 0.0000 4.9692
v  -4.9692 0.0000 10.9168
v  -4.7302 0.0000 9.8428
v  -9.8428 0.0000 4.7302
v  -4.2523 0.0000 8.8326
v  -8.8326 0.0000 4.2523
v  -3.5355 0.0000 7.9289
v  15.0000 0.0000 -15.0000
v  -12.0121 0.0000 -4.9692
v  -10.9168 0.0000 -4.9692
v  -9.8428 0.0000 -4.7302
v  -8.8326 0.0000 -4.2523
v  -7.9289 0.0000 -3.5355
v  -7.2121 0.0000 -2.6318
v  -6.7342 0.0000 -1.6217
v  -6.4953 0.0000 -0.5477
v  -6.4953 0.0000 0.5477
v  2.6318 0.0000 7.2121
v  -7.9289 0.0000 3.5355
v  -7.2121 0.0000 2.6318
v  4.9692 0.0000 12.0121
v  4.9692 0.0000 10.9168
v  -2.6318 0.0000 7.2121
v  -1.6217 0.0000 6.7342
v  -6.7343 0.0000 1.6217
v  -0.5477 0.0000 6.4953
v  0.5477 0.0000 6.4953
v  4.7302 0.0000 9.8428
v  4.2523 0.0000 8.8326
v  1.6217 0.0000 6.7343
v  3.5355 0.0000 7.9289
# 48 vertices

vn 0.0000 1.0000 -0.0000
# 1 vertex normals

vt 0.9279 0.8057 0.5000
vt 0.9231 0.7997 0.5000
vt 0.9995 0.7997 0.5000
vt 0.9311 0.8124 0.5000
vt 0.8057 0.8713 0.5000
vt 0.7997 0.8761 0.5000
vt 0.7997 0.7997 0.5000
vt 0.8124 0.8681 0.5000
vt 0.8761 0.7997 0.5000
vt 0.8713 0.8057 0.5000
vt 0.8681 0.8124 0.5000
vt 0.7997 0.9995 0.5000
vt 0.7997 0.9231 0.5000
vt 0.8057 0.9279 0.5000
vt 0.8124 0.9311 0.5000
vt 0.8665 0.8196 0.5000
vt 0.8196 0.8665 0.5000
vt 0.8269 0.8665 0.5000
vt 0.8665 0.8269 0.5000
vt 0.8681 0.8340 0.5000
vt 0.8340 0.8681 0.5000
vt 0.8713 0.8408 0.5000
vt 0.8408 0.8713 0.5000
vt 0.8761 0.8468 0.5000
vt 0.9995 0.9995 0.5000
vt 0.8196 0.9327 0.5000
vt 0.8269 0.9327 0.5000
vt 0.8340 0.9311 0.5000
vt 0.8408 0.9279 0.5000
vt 0.8468 0.9231 0.5000
vt 0.8516 0.9171 0.5000
vt 0.8548 0.9104 0.5000
vt 0.8563 0.9032 0.5000
vt 0.8563 0.8960 0.5000
vt 0.9171 0.8516 0.5000
vt 0.8468 0.8761 0.5000
vt 0.8516 0.8821 0.5000
vt 0.9327 0.8196 0.5000
vt 0.9327 0.8269 0.5000
vt 0.8821 0.8516 0.5000
vt 0.8888 0.8548 0.5000
vt 0.8548 0.8888 0.5000
vt 0.8960 0.8563 0.5000
vt 0.9032 0.8563 0.5000
vt 0.9311 0.8340 0.5000
vt 0.9279 0.8408 0.5000
vt 0.9104 0.8548 0.5000
vt 0.9231 0.8468 0.5000
# 48 texture coords

g 图形021
usemtl Material__25
s 1
f 1/1/1 2/2/1 3/3/1 4/4/1 
f 5/5/1 6/6/1 7/7/1 8/8/1 
f 7/7/1 9/9/1 10/10/1 11/11/1 
f 12/12/1 13/13/1 14/14/1 15/15/1 
f 8/8/1 7/7/1 11/11/1 16/16/1 
f 17/17/1 8/8/1 16/16/1 18/18/1 
f 18/18/1 16/16/1 19/19/1 20/20/1 
f 21/21/1 18/18/1 20/20/1 22/22/1 
f 23/23/1 21/21/1 22/22/1 24/24/1 
f 25/25/1 12/12/1 15/15/1 26/26/1 
f 25/25/1 26/26/1 27/27/1 28/28/1 
f 25/25/1 28/28/1 29/29/1 30/30/1 
f 3/3/1 25/25/1 30/30/1 31/31/1 
f 3/3/1 31/31/1 32/32/1 33/33/1 
f 3/3/1 33/33/1 34/34/1 35/35/1 
f 36/36/1 23/23/1 24/24/1 37/37/1 
f 38/38/1 4/4/1 3/3/1 39/39/1 
f 37/37/1 24/24/1 40/40/1 41/41/1 
f 42/42/1 37/37/1 41/41/1 34/34/1 
f 34/34/1 41/41/1 43/43/1 44/44/1 
f 45/45/1 39/39/1 3/3/1 46/46/1 
f 34/34/1 44/44/1 47/47/1 35/35/1 
f 48/48/1 46/46/1 3/3/1 35/35/1 
# 23 polygons

