# 3ds Max Wavefront OBJ Exporter v0.97b - (c)2007 guruware
# 创建的文件:23.10.2017 19:50:52

mtllib 1010_3_2.mtl

#
# object 图形018
#

v  4.2523 0.0000 14.0963
v  3.5355 0.0000 15.0000
v  15.0000 0.0000 15.0000
v  4.7302 0.0000 13.0862
v  -14.0963 0.0000 4.2523
v  -15.0000 0.0000 3.5355
v  -15.0000 0.0000 15.0000
v  -13.0862 0.0000 4.7302
v  -4.2523 0.0000 -14.0963
v  -3.5355 0.0000 -15.0000
v  -15.0000 0.0000 -15.0000
v  -4.7302 0.0000 -13.0862
v  -3.5355 0.0000 15.0000
v  -4.2523 0.0000 14.0963
v  -4.7302 0.0000 13.0861
v  -15.0000 0.0000 -3.5355
v  -14.0963 0.0000 -4.2523
v  -13.0861 0.0000 -4.7302
v  15.0000 0.0000 -15.0000
v  3.5355 0.0000 -15.0000
v  4.2523 0.0000 -14.0963
v  4.7302 0.0000 -13.0861
v  -12.0121 0.0000 -4.9692
v  -4.9692 0.0000 -12.0121
v  -4.9692 0.0000 -10.9168
v  -10.9168 0.0000 -4.9692
v  -9.8428 0.0000 -4.7302
v  -4.7302 0.0000 -9.8428
v  -8.8326 0.0000 -4.2523
v  -4.9692 0.0000 12.0121
v  -12.0121 0.0000 4.9692
v  -10.9168 0.0000 4.9692
v  -4.9692 0.0000 10.9168
v  -4.7302 0.0000 9.8428
v  -9.8428 0.0000 4.7302
v  -4.2523 0.0000 8.8326
v  -8.8326 0.0000 4.2523
v  -3.5355 0.0000 7.9289
v  -4.2523 0.0000 -8.8326
v  -7.9289 0.0000 -3.5355
v  15.0000 0.0000 -3.5355
v  4.9692 0.0000 -12.0121
v  4.9692 0.0000 -10.9168
v  4.7302 0.0000 -9.8428
v  15.0000 0.0000 3.5355
v  4.9692 0.0000 12.0121
v  4.9692 0.0000 10.9168
v  4.7302 0.0000 9.8428
v  -3.5355 0.0000 -7.9289
v  -2.6318 0.0000 -7.2121
v  -7.9289 0.0000 3.5355
v  -7.2121 0.0000 2.6318
v  4.2523 0.0000 -8.8326
v  3.5355 0.0000 -7.9289
v  4.2523 0.0000 8.8326
v  3.5355 0.0000 7.9289
v  -2.6318 0.0000 7.2121
v  -1.6217 0.0000 6.7342
v  -7.2121 0.0000 -2.6318
v  -6.7342 0.0000 -1.6217
v  -1.6217 0.0000 -6.7343
v  -0.5477 0.0000 -6.4953
v  -6.7343 0.0000 1.6217
v  -6.4953 0.0000 0.5477
v  2.6318 0.0000 7.2121
v  1.6217 0.0000 -6.7342
v  2.6318 0.0000 -7.2121
v  -0.5477 0.0000 6.4953
v  -6.4953 0.0000 -0.5477
v  0.5477 0.0000 6.4953
v  0.5477 0.0000 -6.4953
v  1.6217 0.0000 6.7343
v  15.9037 0.0000 -4.2523
v  15.9037 0.0000 4.2523
v  16.9139 0.0000 4.7302
v  16.9139 0.0000 -4.7302
v  17.9879 0.0000 -4.9692
v  17.9879 0.0000 4.9692
v  19.0832 0.0000 -4.9692
v  19.0832 0.0000 4.9692
v  20.1572 0.0000 -4.7302
v  21.1674 0.0000 -4.2523
v  22.0711 0.0000 -3.5355
v  22.7879 0.0000 -2.6318
v  23.2658 0.0000 -1.6217
v  23.5047 0.0000 -0.5477
v  23.5047 0.0000 0.5477
v  23.2657 0.0000 1.6217
v  22.7879 0.0000 2.6318
v  22.0711 0.0000 3.5355
v  21.1674 0.0000 4.2523
v  20.1572 0.0000 4.7302
# 92 vertices

vn 0.0000 1.0000 -0.0000
# 1 vertex normals

vt 0.1645 0.2033 0.5000
vt 0.1621 0.2003 0.5000
vt 0.2003 0.2003 0.5000
vt 0.1661 0.2067 0.5000
vt 0.1034 0.2361 0.5000
vt 0.1004 0.2385 0.5000
vt 0.1004 0.2003 0.5000
vt 0.1068 0.2345 0.5000
vt 0.1362 0.2972 0.5000
vt 0.1386 0.3002 0.5000
vt 0.1004 0.3002 0.5000
vt 0.1346 0.2938 0.5000
vt 0.1386 0.2003 0.5000
vt 0.1362 0.2033 0.5000
vt 0.1346 0.2067 0.5000
vt 0.1004 0.2620 0.5000
vt 0.1034 0.2644 0.5000
vt 0.1068 0.2660 0.5000
vt 0.2003 0.3002 0.5000
vt 0.1621 0.3002 0.5000
vt 0.1645 0.2972 0.5000
vt 0.1661 0.2938 0.5000
vt 0.1103 0.2668 0.5000
vt 0.1338 0.2903 0.5000
vt 0.1338 0.2866 0.5000
vt 0.1140 0.2668 0.5000
vt 0.1176 0.2660 0.5000
vt 0.1346 0.2830 0.5000
vt 0.1209 0.2644 0.5000
vt 0.1338 0.2102 0.5000
vt 0.1103 0.2337 0.5000
vt 0.1140 0.2337 0.5000
vt 0.1338 0.2139 0.5000
vt 0.1346 0.2175 0.5000
vt 0.1176 0.2345 0.5000
vt 0.1362 0.2208 0.5000
vt 0.1209 0.2361 0.5000
vt 0.1386 0.2238 0.5000
vt 0.1362 0.2797 0.5000
vt 0.1239 0.2620 0.5000
vt 0.2003 0.2620 0.5000
vt 0.1669 0.2903 0.5000
vt 0.1669 0.2866 0.5000
vt 0.1661 0.2830 0.5000
vt 0.2003 0.2385 0.5000
vt 0.1669 0.2102 0.5000
vt 0.1669 0.2139 0.5000
vt 0.1661 0.2175 0.5000
vt 0.1386 0.2767 0.5000
vt 0.1416 0.2743 0.5000
vt 0.1239 0.2385 0.5000
vt 0.1263 0.2415 0.5000
vt 0.1645 0.2797 0.5000
vt 0.1621 0.2767 0.5000
vt 0.1645 0.2208 0.5000
vt 0.1621 0.2238 0.5000
vt 0.1416 0.2262 0.5000
vt 0.1449 0.2278 0.5000
vt 0.1263 0.2590 0.5000
vt 0.1279 0.2557 0.5000
vt 0.1449 0.2727 0.5000
vt 0.1485 0.2719 0.5000
vt 0.1279 0.2448 0.5000
vt 0.1287 0.2484 0.5000
vt 0.1591 0.2262 0.5000
vt 0.1557 0.2727 0.5000
vt 0.1591 0.2743 0.5000
vt 0.1485 0.2286 0.5000
vt 0.1287 0.2521 0.5000
vt 0.1522 0.2286 0.5000
vt 0.1522 0.2719 0.5000
vt 0.1557 0.2278 0.5000
vt 0.2033 0.2644 0.5000
vt 0.2033 0.2361 0.5000
vt 0.2067 0.2345 0.5000
vt 0.2067 0.2660 0.5000
vt 0.2102 0.2668 0.5000
vt 0.2102 0.2337 0.5000
vt 0.2139 0.2668 0.5000
vt 0.2139 0.2337 0.5000
vt 0.2175 0.2660 0.5000
vt 0.2208 0.2644 0.5000
vt 0.2238 0.2620 0.5000
vt 0.2262 0.2590 0.5000
vt 0.2278 0.2557 0.5000
vt 0.2286 0.2521 0.5000
vt 0.2286 0.2484 0.5000
vt 0.2278 0.2448 0.5000
vt 0.2262 0.2415 0.5000
vt 0.2238 0.2385 0.5000
vt 0.2208 0.2361 0.5000
vt 0.2175 0.2345 0.5000
# 92 texture coords

g 图形018
usemtl Material__25
s 1
f 1/1/1 2/2/1 3/3/1 4/4/1 
f 5/5/1 6/6/1 7/7/1 8/8/1 
f 9/9/1 10/10/1 11/11/1 12/12/1 
f 7/7/1 13/13/1 14/14/1 15/15/1 
f 11/11/1 16/16/1 17/17/1 18/18/1 
f 19/19/1 20/20/1 21/21/1 22/22/1 
f 12/12/1 11/11/1 18/18/1 23/23/1 
f 24/24/1 12/12/1 23/23/1 25/25/1 
f 25/25/1 23/23/1 26/26/1 27/27/1 
f 28/28/1 25/25/1 27/27/1 29/29/1 
f 8/8/1 7/7/1 15/15/1 30/30/1 
f 31/31/1 8/8/1 30/30/1 32/32/1 
f 32/32/1 30/30/1 33/33/1 34/34/1 
f 35/35/1 32/32/1 34/34/1 36/36/1 
f 37/37/1 35/35/1 36/36/1 38/38/1 
f 39/39/1 28/28/1 29/29/1 40/40/1 
f 41/41/1 19/19/1 22/22/1 42/42/1 
f 41/41/1 42/42/1 43/43/1 44/44/1 
f 4/4/1 3/3/1 45/45/1 46/46/1 
f 47/47/1 46/46/1 45/45/1 48/48/1 
f 49/49/1 39/39/1 40/40/1 50/50/1 
f 51/51/1 37/37/1 38/38/1 52/52/1 
f 41/41/1 44/44/1 53/53/1 54/54/1 
f 55/55/1 48/48/1 45/45/1 56/56/1 
f 52/52/1 38/38/1 57/57/1 58/58/1 
f 50/50/1 40/40/1 59/59/1 60/60/1 
f 61/61/1 50/50/1 60/60/1 62/62/1 
f 63/63/1 52/52/1 58/58/1 64/64/1 
f 65/65/1 56/56/1 45/45/1 66/66/1 
f 41/41/1 54/54/1 67/67/1 45/45/1 
f 64/64/1 58/58/1 68/68/1 62/62/1 
f 62/62/1 60/60/1 69/69/1 64/64/1 
f 62/62/1 68/68/1 70/70/1 71/71/1 
f 66/66/1 71/71/1 70/70/1 72/72/1 
f 66/66/1 72/72/1 65/65/1 
f 67/67/1 66/66/1 45/45/1 
f 73/73/1 41/41/1 45/45/1 74/74/1 
f 73/73/1 74/74/1 75/75/1 76/76/1 
f 77/77/1 76/76/1 75/75/1 78/78/1 
f 79/79/1 77/77/1 78/78/1 80/80/1 
f 81/81/1 79/79/1 80/80/1 82/82/1 
f 83/83/1 82/82/1 80/80/1 84/84/1 
f 85/85/1 84/84/1 80/80/1 86/86/1 
f 87/87/1 86/86/1 80/80/1 88/88/1 
f 89/89/1 88/88/1 80/80/1 90/90/1 
f 91/91/1 90/90/1 80/80/1 92/92/1 
# 44 polygons - 2 triangles

