# 3ds Max Wavefront OBJ Exporter v0.97b - (c)2007 guruware
# 创建的文件:23.10.2017 19:54:18

mtllib 1010_4_1.mtl

#
# object 图形007
#

v  4.2523 0.0000 14.0963
v  3.5355 0.0000 15.0000
v  15.0000 0.0000 15.0000
v  4.7302 0.0000 13.0862
v  -4.2523 0.0000 -14.0963
v  -3.5355 0.0000 -15.0000
v  -15.0000 0.0000 -15.0000
v  -4.7302 0.0000 -13.0862
v  -15.0000 0.0000 15.0000
v  -3.5355 0.0000 15.0000
v  -4.2523 0.0000 14.0963
v  -4.7302 0.0000 13.0861
v  15.0000 0.0000 -15.0000
v  3.5355 0.0000 -15.0000
v  4.2523 0.0000 -14.0963
v  4.7302 0.0000 -13.0861
v  -4.9692 0.0000 12.0121
v  -4.9692 0.0000 10.9168
v  -4.7302 0.0000 9.8428
v  -4.2523 0.0000 8.8326
v  -3.5355 0.0000 7.9289
v  -2.6318 0.0000 7.2121
v  -1.6217 0.0000 6.7342
v  15.0000 0.0000 -3.5355
v  4.9692 0.0000 -12.0121
v  4.9692 0.0000 -10.9168
v  4.7302 0.0000 -9.8428
v  15.0000 0.0000 3.5355
v  4.9692 0.0000 12.0121
v  4.9692 0.0000 10.9168
v  4.7302 0.0000 9.8428
v  4.2523 0.0000 -8.8326
v  3.5355 0.0000 -7.9289
v  4.2523 0.0000 8.8326
v  3.5355 0.0000 7.9289
v  -4.9692 0.0000 -12.0121
v  -4.9692 0.0000 -10.9168
v  -4.7302 0.0000 -9.8428
v  -4.2523 0.0000 -8.8326
v  -3.5355 0.0000 -7.9289
v  -2.6318 0.0000 -7.2121
v  -1.6217 0.0000 -6.7343
v  -0.5477 0.0000 -6.4953
v  -0.5477 0.0000 6.4953
v  0.5477 0.0000 6.4953
v  0.5477 0.0000 -6.4953
v  1.6217 0.0000 -6.7342
v  1.6217 0.0000 6.7343
v  2.6318 0.0000 7.2121
v  2.6318 0.0000 -7.2121
v  15.9037 0.0000 -4.2523
v  15.9037 0.0000 4.2523
v  16.9139 0.0000 4.7302
v  16.9139 0.0000 -4.7302
v  17.9879 0.0000 -4.9692
v  17.9879 0.0000 4.9692
v  19.0832 0.0000 -4.9692
v  19.0832 0.0000 4.9692
v  20.1572 0.0000 -4.7302
v  21.1674 0.0000 -4.2523
v  22.0711 0.0000 -3.5355
v  22.7879 0.0000 -2.6318
v  23.2658 0.0000 -1.6217
v  23.5047 0.0000 -0.5477
v  23.5047 0.0000 0.5477
v  23.2657 0.0000 1.6217
v  22.7879 0.0000 2.6318
v  22.0711 0.0000 3.5355
v  21.1674 0.0000 4.2523
v  20.1572 0.0000 4.7302
# 70 vertices

vn 0.0000 1.0000 -0.0000
# 1 vertex normals

vt 0.0646 0.3032 0.5000
vt 0.0622 0.3002 0.5000
vt 0.1004 0.3002 0.5000
vt 0.0662 0.3066 0.5000
vt 0.0363 0.3971 0.5000
vt 0.0387 0.4001 0.5000
vt 0.0005 0.4001 0.5000
vt 0.0347 0.3937 0.5000
vt 0.0005 0.3002 0.5000
vt 0.0387 0.3002 0.5000
vt 0.0363 0.3032 0.5000
vt 0.0347 0.3066 0.5000
vt 0.1004 0.4001 0.5000
vt 0.0622 0.4001 0.5000
vt 0.0646 0.3971 0.5000
vt 0.0662 0.3937 0.5000
vt 0.0339 0.3101 0.5000
vt 0.0339 0.3138 0.5000
vt 0.0347 0.3174 0.5000
vt 0.0363 0.3207 0.5000
vt 0.0387 0.3237 0.5000
vt 0.0417 0.3261 0.5000
vt 0.0450 0.3277 0.5000
vt 0.1004 0.3619 0.5000
vt 0.0670 0.3902 0.5000
vt 0.0670 0.3865 0.5000
vt 0.0662 0.3829 0.5000
vt 0.1004 0.3384 0.5000
vt 0.0670 0.3101 0.5000
vt 0.0670 0.3138 0.5000
vt 0.0662 0.3174 0.5000
vt 0.0646 0.3796 0.5000
vt 0.0622 0.3766 0.5000
vt 0.0646 0.3207 0.5000
vt 0.0622 0.3237 0.5000
vt 0.0339 0.3902 0.5000
vt 0.0339 0.3865 0.5000
vt 0.0347 0.3829 0.5000
vt 0.0363 0.3796 0.5000
vt 0.0387 0.3766 0.5000
vt 0.0417 0.3742 0.5000
vt 0.0450 0.3726 0.5000
vt 0.0486 0.3718 0.5000
vt 0.0486 0.3285 0.5000
vt 0.0523 0.3285 0.5000
vt 0.0523 0.3718 0.5000
vt 0.0558 0.3726 0.5000
vt 0.0558 0.3277 0.5000
vt 0.0592 0.3261 0.5000
vt 0.0592 0.3742 0.5000
vt 0.1034 0.3643 0.5000
vt 0.1034 0.3360 0.5000
vt 0.1068 0.3344 0.5000
vt 0.1068 0.3659 0.5000
vt 0.1103 0.3667 0.5000
vt 0.1103 0.3336 0.5000
vt 0.1140 0.3667 0.5000
vt 0.1140 0.3336 0.5000
vt 0.1176 0.3659 0.5000
vt 0.1209 0.3643 0.5000
vt 0.1239 0.3619 0.5000
vt 0.1263 0.3589 0.5000
vt 0.1279 0.3556 0.5000
vt 0.1287 0.3520 0.5000
vt 0.1287 0.3483 0.5000
vt 0.1279 0.3447 0.5000
vt 0.1263 0.3414 0.5000
vt 0.1239 0.3384 0.5000
vt 0.1209 0.3360 0.5000
vt 0.1176 0.3344 0.5000
# 70 texture coords

g 图形007
usemtl Material__25
s 1
f 1/1/1 2/2/1 3/3/1 4/4/1 
f 5/5/1 6/6/1 7/7/1 8/8/1 
f 9/9/1 10/10/1 11/11/1 12/12/1 
f 13/13/1 14/14/1 15/15/1 16/16/1 
f 7/7/1 9/9/1 12/12/1 17/17/1 
f 7/7/1 17/17/1 18/18/1 19/19/1 
f 7/7/1 19/19/1 20/20/1 21/21/1 
f 7/7/1 21/21/1 22/22/1 23/23/1 
f 24/24/1 13/13/1 16/16/1 25/25/1 
f 24/24/1 25/25/1 26/26/1 27/27/1 
f 4/4/1 3/3/1 28/28/1 29/29/1 
f 30/30/1 29/29/1 28/28/1 31/31/1 
f 24/24/1 27/27/1 32/32/1 33/33/1 
f 34/34/1 31/31/1 28/28/1 35/35/1 
f 36/36/1 8/8/1 7/7/1 37/37/1 
f 37/37/1 7/7/1 23/23/1 38/38/1 
f 39/39/1 38/38/1 23/23/1 40/40/1 
f 41/41/1 40/40/1 23/23/1 42/42/1 
f 43/43/1 42/42/1 23/23/1 44/44/1 
f 43/43/1 44/44/1 45/45/1 46/46/1 
f 47/47/1 46/46/1 45/45/1 48/48/1 
f 47/47/1 48/48/1 49/49/1 50/50/1 
f 49/49/1 35/35/1 28/28/1 50/50/1 
f 33/33/1 50/50/1 28/28/1 24/24/1 
f 51/51/1 24/24/1 28/28/1 52/52/1 
f 51/51/1 52/52/1 53/53/1 54/54/1 
f 55/55/1 54/54/1 53/53/1 56/56/1 
f 57/57/1 55/55/1 56/56/1 58/58/1 
f 59/59/1 57/57/1 58/58/1 60/60/1 
f 61/61/1 60/60/1 58/58/1 62/62/1 
f 63/63/1 62/62/1 58/58/1 64/64/1 
f 65/65/1 64/64/1 58/58/1 66/66/1 
f 67/67/1 66/66/1 58/58/1 68/68/1 
f 69/69/1 68/68/1 58/58/1 70/70/1 
# 34 polygons

