# 3ds Max Wavefront OBJ Exporter v0.97b - (c)2007 guruware
# 创建的文件:23.10.2017 20:57:53

mtllib 1010_8_10.mtl

#
# object 图形093
#

v  4.2523 0.0000 14.0963
v  3.5355 0.0000 15.0000
v  15.0000 0.0000 15.0000
v  4.7302 0.0000 13.0862
v  -4.2523 0.0000 -14.0963
v  -3.5355 0.0000 -15.0000
v  -15.0000 0.0000 -15.0000
v  -4.7302 0.0000 -13.0862
v  -15.0000 0.0000 15.0000
v  -3.5355 0.0000 15.0000
v  -4.2523 0.0000 14.0963
v  -4.7302 0.0000 13.0861
v  15.0000 0.0000 -15.0000
v  3.5355 0.0000 -15.0000
v  4.2523 0.0000 -14.0963
v  4.7302 0.0000 -13.0861
v  -15.0000 0.0000 3.5355
v  -4.9692 0.0000 12.0121
v  -4.9692 0.0000 10.9168
v  -4.7302 0.0000 9.8428
v  4.9692 0.0000 -12.0121
v  4.9692 0.0000 -10.9168
v  4.7302 0.0000 -9.8428
v  4.2523 0.0000 -8.8326
v  3.5355 0.0000 -7.9289
v  2.6318 0.0000 -7.2121
v  1.6217 0.0000 -6.7342
v  -15.0000 0.0000 -3.5355
v  -4.9692 0.0000 -12.0121
v  -4.9692 0.0000 -10.9168
v  -4.7302 0.0000 -9.8428
v  -4.2523 0.0000 8.8326
v  -3.5355 0.0000 7.9289
v  -4.2523 0.0000 -8.8326
v  -3.5355 0.0000 -7.9289
v  4.9692 0.0000 12.0121
v  4.9692 0.0000 10.9168
v  4.7302 0.0000 9.8428
v  4.2523 0.0000 8.8326
v  3.5355 0.0000 7.9289
v  2.6318 0.0000 7.2121
v  1.6217 0.0000 6.7343
v  0.5477 0.0000 6.4953
v  0.5477 0.0000 -6.4953
v  -0.5477 0.0000 -6.4953
v  -0.5477 0.0000 6.4953
v  -1.6217 0.0000 6.7342
v  -1.6217 0.0000 -6.7343
v  -2.6318 0.0000 -7.2121
v  -2.6318 0.0000 7.2121
v  -15.9037 0.0000 4.2523
v  -15.9037 0.0000 -4.2523
v  -16.9139 0.0000 -4.7302
v  -16.9139 0.0000 4.7302
v  -17.9879 0.0000 4.9692
v  -17.9879 0.0000 -4.9692
v  -19.0832 0.0000 4.9692
v  -19.0832 0.0000 -4.9692
v  -20.1572 0.0000 4.7302
v  -21.1674 0.0000 4.2523
v  -22.0711 0.0000 3.5355
v  -22.7879 0.0000 2.6318
v  -23.2658 0.0000 1.6217
v  -23.5047 0.0000 0.5477
v  -23.5047 0.0000 -0.5477
v  -23.2657 0.0000 -1.6217
v  -22.7879 0.0000 -2.6318
v  -22.0711 0.0000 -3.5355
v  -21.1674 0.0000 -4.2523
v  -20.1572 0.0000 -4.7302
# 70 vertices

vn 0.0000 1.0000 -0.0000
# 1 vertex normals

vt 0.9637 0.7028 0.5000
vt 0.9613 0.6998 0.5000
vt 0.9995 0.6998 0.5000
vt 0.9653 0.7062 0.5000
vt 0.9354 0.7967 0.5000
vt 0.9378 0.7997 0.5000
vt 0.8996 0.7997 0.5000
vt 0.9338 0.7933 0.5000
vt 0.8996 0.6998 0.5000
vt 0.9378 0.6998 0.5000
vt 0.9354 0.7028 0.5000
vt 0.9338 0.7062 0.5000
vt 0.9995 0.7997 0.5000
vt 0.9613 0.7997 0.5000
vt 0.9637 0.7967 0.5000
vt 0.9653 0.7933 0.5000
vt 0.8996 0.7380 0.5000
vt 0.9330 0.7097 0.5000
vt 0.9330 0.7134 0.5000
vt 0.9338 0.7170 0.5000
vt 0.9661 0.7898 0.5000
vt 0.9661 0.7861 0.5000
vt 0.9653 0.7825 0.5000
vt 0.9637 0.7792 0.5000
vt 0.9613 0.7762 0.5000
vt 0.9583 0.7738 0.5000
vt 0.9550 0.7722 0.5000
vt 0.8996 0.7615 0.5000
vt 0.9330 0.7898 0.5000
vt 0.9330 0.7861 0.5000
vt 0.9338 0.7825 0.5000
vt 0.9354 0.7203 0.5000
vt 0.9378 0.7233 0.5000
vt 0.9354 0.7792 0.5000
vt 0.9378 0.7762 0.5000
vt 0.9661 0.7097 0.5000
vt 0.9661 0.7134 0.5000
vt 0.9653 0.7170 0.5000
vt 0.9637 0.7203 0.5000
vt 0.9613 0.7233 0.5000
vt 0.9583 0.7257 0.5000
vt 0.9550 0.7273 0.5000
vt 0.9514 0.7281 0.5000
vt 0.9514 0.7714 0.5000
vt 0.9477 0.7714 0.5000
vt 0.9477 0.7281 0.5000
vt 0.9442 0.7273 0.5000
vt 0.9442 0.7722 0.5000
vt 0.9408 0.7738 0.5000
vt 0.9408 0.7257 0.5000
vt 0.8966 0.7356 0.5000
vt 0.8966 0.7639 0.5000
vt 0.8932 0.7655 0.5000
vt 0.8932 0.7340 0.5000
vt 0.8897 0.7332 0.5000
vt 0.8897 0.7663 0.5000
vt 0.8860 0.7332 0.5000
vt 0.8860 0.7663 0.5000
vt 0.8824 0.7340 0.5000
vt 0.8791 0.7356 0.5000
vt 0.8761 0.7380 0.5000
vt 0.8737 0.7410 0.5000
vt 0.8721 0.7443 0.5000
vt 0.8713 0.7479 0.5000
vt 0.8713 0.7516 0.5000
vt 0.8721 0.7552 0.5000
vt 0.8737 0.7585 0.5000
vt 0.8761 0.7615 0.5000
vt 0.8791 0.7639 0.5000
vt 0.8824 0.7655 0.5000
# 70 texture coords

g 图形093
usemtl Material__25
s 1
f 1/1/1 2/2/1 3/3/1 4/4/1 
f 5/5/1 6/6/1 7/7/1 8/8/1 
f 9/9/1 10/10/1 11/11/1 12/12/1 
f 13/13/1 14/14/1 15/15/1 16/16/1 
f 17/17/1 9/9/1 12/12/1 18/18/1 
f 17/17/1 18/18/1 19/19/1 20/20/1 
f 3/3/1 13/13/1 16/16/1 21/21/1 
f 3/3/1 21/21/1 22/22/1 23/23/1 
f 3/3/1 23/23/1 24/24/1 25/25/1 
f 3/3/1 25/25/1 26/26/1 27/27/1 
f 8/8/1 7/7/1 28/28/1 29/29/1 
f 30/30/1 29/29/1 28/28/1 31/31/1 
f 17/17/1 20/20/1 32/32/1 33/33/1 
f 34/34/1 31/31/1 28/28/1 35/35/1 
f 36/36/1 4/4/1 3/3/1 37/37/1 
f 37/37/1 3/3/1 27/27/1 38/38/1 
f 39/39/1 38/38/1 27/27/1 40/40/1 
f 41/41/1 40/40/1 27/27/1 42/42/1 
f 43/43/1 42/42/1 27/27/1 44/44/1 
f 43/43/1 44/44/1 45/45/1 46/46/1 
f 47/47/1 46/46/1 45/45/1 48/48/1 
f 47/47/1 48/48/1 49/49/1 50/50/1 
f 49/49/1 35/35/1 28/28/1 50/50/1 
f 33/33/1 50/50/1 28/28/1 17/17/1 
f 51/51/1 17/17/1 28/28/1 52/52/1 
f 51/51/1 52/52/1 53/53/1 54/54/1 
f 55/55/1 54/54/1 53/53/1 56/56/1 
f 57/57/1 55/55/1 56/56/1 58/58/1 
f 59/59/1 57/57/1 58/58/1 60/60/1 
f 61/61/1 60/60/1 58/58/1 62/62/1 
f 63/63/1 62/62/1 58/58/1 64/64/1 
f 65/65/1 64/64/1 58/58/1 66/66/1 
f 67/67/1 66/66/1 58/58/1 68/68/1 
f 69/69/1 68/68/1 58/58/1 70/70/1 
# 34 polygons

