# 3ds Max Wavefront OBJ Exporter v0.97b - (c)2007 guruware
# 创建的文件:23.10.2017 21:18:29

mtllib 1010_10_1.mtl

#
# object 图形001
#

v  3.5355 0.0000 15.0000
v  15.0000 0.0000 15.0000
v  15.0000 0.0000 3.5355
v  -3.5355 0.0000 15.0000
v  -15.0000 0.0000 -15.0000
v  -15.0000 0.0000 15.0000
v  15.0000 0.0000 -15.0000
v  15.0000 0.0000 -3.5355
v  22.7879 0.0000 -2.6318
v  22.0711 0.0000 -3.5355
v  21.1674 0.0000 -4.2523
v  20.1572 0.0000 -4.7302
v  23.2658 0.0000 -1.6217
v  23.5047 0.0000 -0.5477
v  19.0832 0.0000 -4.9692
v  23.5047 0.0000 0.5477
v  17.9879 0.0000 -4.9692
v  23.2657 0.0000 1.6217
v  22.7879 0.0000 2.6318
v  22.0711 0.0000 3.5355
v  21.1674 0.0000 4.2523
v  20.1572 0.0000 4.7302
v  19.0832 0.0000 4.9692
v  17.9879 0.0000 4.9692
v  16.9139 0.0000 4.7302
v  15.9037 0.0000 4.2523
v  16.9139 0.0000 -4.7302
v  15.9037 0.0000 -4.2523
v  4.2523 0.0000 15.9037
v  -4.2523 0.0000 15.9037
v  -4.7302 0.0000 16.9139
v  4.7302 0.0000 16.9139
v  4.9692 0.0000 17.9879
v  -4.9692 0.0000 17.9879
v  4.9692 0.0000 19.0832
v  -4.9692 0.0000 19.0832
v  4.7302 0.0000 20.1572
v  4.2523 0.0000 21.1674
v  3.5355 0.0000 22.0711
v  2.6318 0.0000 22.7879
v  1.6217 0.0000 23.2658
v  0.5477 0.0000 23.5047
v  -0.5477 0.0000 23.5047
v  -1.6217 0.0000 23.2657
v  -2.6318 0.0000 22.7879
v  -3.5355 0.0000 22.0711
v  -4.2523 0.0000 21.1674
v  -4.7302 0.0000 20.1572
# 48 vertices

vn 0.0000 1.0000 -0.0000
# 1 vertex normals

vt 0.0622 0.8996 0.5000
vt 0.1004 0.8996 0.5000
vt 0.1004 0.9378 0.5000
vt 0.0387 0.8996 0.5000
vt 0.0005 0.9995 0.5000
vt 0.0005 0.8996 0.5000
vt 0.1004 0.9995 0.5000
vt 0.1004 0.9613 0.5000
vt 0.1263 0.9583 0.5000
vt 0.1239 0.9613 0.5000
vt 0.1209 0.9637 0.5000
vt 0.1176 0.9653 0.5000
vt 0.1279 0.9550 0.5000
vt 0.1287 0.9514 0.5000
vt 0.1140 0.9661 0.5000
vt 0.1287 0.9477 0.5000
vt 0.1103 0.9661 0.5000
vt 0.1279 0.9442 0.5000
vt 0.1263 0.9408 0.5000
vt 0.1239 0.9378 0.5000
vt 0.1209 0.9354 0.5000
vt 0.1176 0.9338 0.5000
vt 0.1140 0.9330 0.5000
vt 0.1103 0.9330 0.5000
vt 0.1068 0.9338 0.5000
vt 0.1034 0.9354 0.5000
vt 0.1068 0.9653 0.5000
vt 0.1034 0.9637 0.5000
vt 0.0646 0.8966 0.5000
vt 0.0363 0.8966 0.5000
vt 0.0347 0.8932 0.5000
vt 0.0662 0.8932 0.5000
vt 0.0670 0.8897 0.5000
vt 0.0339 0.8897 0.5000
vt 0.0670 0.8860 0.5000
vt 0.0339 0.8860 0.5000
vt 0.0662 0.8824 0.5000
vt 0.0646 0.8791 0.5000
vt 0.0622 0.8761 0.5000
vt 0.0592 0.8737 0.5000
vt 0.0558 0.8721 0.5000
vt 0.0523 0.8713 0.5000
vt 0.0486 0.8713 0.5000
vt 0.0450 0.8721 0.5000
vt 0.0417 0.8737 0.5000
vt 0.0387 0.8761 0.5000
vt 0.0363 0.8791 0.5000
vt 0.0347 0.8824 0.5000
# 48 texture coords

g 图形001
usemtl Material__25
s 1
f 1/1/1 2/2/1 3/3/1 4/4/1 
f 5/5/1 6/6/1 4/4/1 7/7/1 
f 8/8/1 7/7/1 4/4/1 3/3/1 
f 9/9/1 10/10/1 11/11/1 12/12/1 
f 13/13/1 9/9/1 12/12/1 14/14/1 
f 14/14/1 12/12/1 15/15/1 16/16/1 
f 16/16/1 15/15/1 17/17/1 18/18/1 
f 19/19/1 18/18/1 17/17/1 20/20/1 
f 21/21/1 20/20/1 17/17/1 22/22/1 
f 23/23/1 22/22/1 17/17/1 24/24/1 
f 25/25/1 24/24/1 17/17/1 26/26/1 
f 3/3/1 26/26/1 17/17/1 27/27/1 
f 3/3/1 27/27/1 28/28/1 8/8/1 
f 29/29/1 1/1/1 4/4/1 30/30/1 
f 29/29/1 30/30/1 31/31/1 32/32/1 
f 33/33/1 32/32/1 31/31/1 34/34/1 
f 35/35/1 33/33/1 34/34/1 36/36/1 
f 37/37/1 35/35/1 36/36/1 38/38/1 
f 39/39/1 38/38/1 36/36/1 40/40/1 
f 41/41/1 40/40/1 36/36/1 42/42/1 
f 43/43/1 42/42/1 36/36/1 44/44/1 
f 45/45/1 44/44/1 36/36/1 46/46/1 
f 47/47/1 46/46/1 36/36/1 48/48/1 
# 23 polygons

