# 3ds Max Wavefront OBJ Exporter v0.97b - (c)2007 guruware
# 创建的文件:23.10.2017 19:53:37

mtllib 1010_3_9.mtl

#
# object 图形088
#

v  -14.0963 0.0000 4.2523
v  -15.0000 0.0000 3.5355
v  -15.0000 0.0000 15.0000
v  -13.0862 0.0000 4.7302
v  -15.0000 0.0000 -15.0000
v  -15.0000 0.0000 -3.5355
v  -14.0963 0.0000 -4.2523
v  -13.0861 0.0000 -4.7302
v  -3.5355 0.0000 -15.0000
v  -12.0121 0.0000 -4.9692
v  -10.9168 0.0000 -4.9692
v  -9.8428 0.0000 -4.7302
v  -3.5355 0.0000 15.0000
v  -12.0121 0.0000 4.9692
v  -10.9168 0.0000 4.9692
v  -9.8428 0.0000 4.7302
v  -8.8326 0.0000 -4.2523
v  -7.9289 0.0000 -3.5355
v  -8.8326 0.0000 4.2523
v  -7.9289 0.0000 3.5355
v  3.5355 0.0000 15.0000
v  15.0000 0.0000 15.0000
v  15.0000 0.0000 3.5355
v  15.0000 0.0000 -3.5355
v  15.0000 0.0000 -15.0000
v  3.5355 0.0000 -15.0000
v  -7.2121 0.0000 2.6318
v  -6.7343 0.0000 1.6217
v  -7.2121 0.0000 -2.6318
v  -6.7342 0.0000 -1.6217
v  -6.4953 0.0000 0.5477
v  -6.4953 0.0000 -0.5477
v  22.7879 0.0000 -2.6318
v  22.0711 0.0000 -3.5355
v  21.1674 0.0000 -4.2523
v  20.1572 0.0000 -4.7302
v  23.2658 0.0000 -1.6217
v  23.5047 0.0000 -0.5477
v  19.0832 0.0000 -4.9692
v  23.5047 0.0000 0.5477
v  17.9879 0.0000 -4.9692
v  23.2657 0.0000 1.6217
v  22.7879 0.0000 2.6318
v  22.0711 0.0000 3.5355
v  21.1674 0.0000 4.2523
v  20.1572 0.0000 4.7302
v  19.0832 0.0000 4.9692
v  17.9879 0.0000 4.9692
v  16.9139 0.0000 4.7302
v  15.9037 0.0000 4.2523
v  16.9139 0.0000 -4.7302
v  15.9037 0.0000 -4.2523
v  2.6318 0.0000 22.7879
v  3.5355 0.0000 22.0711
v  4.2523 0.0000 21.1674
v  4.7302 0.0000 20.1572
v  1.6217 0.0000 23.2658
v  0.5477 0.0000 23.5047
v  4.9692 0.0000 19.0832
v  -0.5477 0.0000 23.5047
v  4.9692 0.0000 17.9879
v  -1.6217 0.0000 23.2657
v  -2.6318 0.0000 22.7879
v  -3.5355 0.0000 22.0711
v  -4.2523 0.0000 21.1674
v  -4.7302 0.0000 20.1572
v  -4.9692 0.0000 19.0832
v  -4.9692 0.0000 17.9879
v  -4.7302 0.0000 16.9139
v  -4.2523 0.0000 15.9037
v  4.7302 0.0000 16.9139
v  4.2523 0.0000 15.9037
v  -4.2523 0.0000 -15.9037
v  4.2523 0.0000 -15.9037
v  4.7302 0.0000 -16.9139
v  -4.7302 0.0000 -16.9139
v  -4.9692 0.0000 -17.9879
v  4.9692 0.0000 -17.9879
v  -4.9692 0.0000 -19.0832
v  4.9692 0.0000 -19.0832
v  -4.7302 0.0000 -20.1572
v  -4.2523 0.0000 -21.1674
v  -3.5355 0.0000 -22.0711
v  -2.6318 0.0000 -22.7879
v  -1.6217 0.0000 -23.2658
v  -0.5477 0.0000 -23.5047
v  0.5477 0.0000 -23.5047
v  1.6217 0.0000 -23.2657
v  2.6318 0.0000 -22.7879
v  3.5355 0.0000 -22.0711
v  4.2523 0.0000 -21.1674
v  4.7302 0.0000 -20.1572
# 92 vertices

vn 0.0000 1.0000 -0.0000
# 1 vertex normals

vt 0.8027 0.2361 0.5000
vt 0.7997 0.2385 0.5000
vt 0.7997 0.2003 0.5000
vt 0.8061 0.2345 0.5000
vt 0.7997 0.3002 0.5000
vt 0.7997 0.2620 0.5000
vt 0.8027 0.2644 0.5000
vt 0.8061 0.2660 0.5000
vt 0.8379 0.3002 0.5000
vt 0.8096 0.2668 0.5000
vt 0.8133 0.2668 0.5000
vt 0.8169 0.2660 0.5000
vt 0.8379 0.2003 0.5000
vt 0.8096 0.2337 0.5000
vt 0.8133 0.2337 0.5000
vt 0.8169 0.2345 0.5000
vt 0.8202 0.2644 0.5000
vt 0.8232 0.2620 0.5000
vt 0.8202 0.2361 0.5000
vt 0.8232 0.2385 0.5000
vt 0.8614 0.2003 0.5000
vt 0.8996 0.2003 0.5000
vt 0.8996 0.2385 0.5000
vt 0.8996 0.2620 0.5000
vt 0.8996 0.3002 0.5000
vt 0.8614 0.3002 0.5000
vt 0.8256 0.2415 0.5000
vt 0.8272 0.2448 0.5000
vt 0.8256 0.2590 0.5000
vt 0.8272 0.2556 0.5000
vt 0.8280 0.2484 0.5000
vt 0.8280 0.2521 0.5000
vt 0.9255 0.2590 0.5000
vt 0.9231 0.2620 0.5000
vt 0.9201 0.2644 0.5000
vt 0.9168 0.2660 0.5000
vt 0.9271 0.2556 0.5000
vt 0.9279 0.2521 0.5000
vt 0.9132 0.2668 0.5000
vt 0.9279 0.2484 0.5000
vt 0.9095 0.2668 0.5000
vt 0.9271 0.2448 0.5000
vt 0.9255 0.2415 0.5000
vt 0.9231 0.2385 0.5000
vt 0.9201 0.2361 0.5000
vt 0.9168 0.2345 0.5000
vt 0.9132 0.2337 0.5000
vt 0.9095 0.2337 0.5000
vt 0.9060 0.2345 0.5000
vt 0.9026 0.2361 0.5000
vt 0.9060 0.2660 0.5000
vt 0.9026 0.2644 0.5000
vt 0.8584 0.1744 0.5000
vt 0.8614 0.1768 0.5000
vt 0.8638 0.1798 0.5000
vt 0.8654 0.1831 0.5000
vt 0.8551 0.1728 0.5000
vt 0.8515 0.1720 0.5000
vt 0.8662 0.1867 0.5000
vt 0.8478 0.1720 0.5000
vt 0.8662 0.1904 0.5000
vt 0.8442 0.1728 0.5000
vt 0.8409 0.1744 0.5000
vt 0.8379 0.1768 0.5000
vt 0.8355 0.1798 0.5000
vt 0.8339 0.1831 0.5000
vt 0.8331 0.1867 0.5000
vt 0.8331 0.1904 0.5000
vt 0.8339 0.1939 0.5000
vt 0.8355 0.1973 0.5000
vt 0.8654 0.1939 0.5000
vt 0.8638 0.1973 0.5000
vt 0.8355 0.3032 0.5000
vt 0.8638 0.3032 0.5000
vt 0.8654 0.3066 0.5000
vt 0.8339 0.3066 0.5000
vt 0.8331 0.3101 0.5000
vt 0.8662 0.3101 0.5000
vt 0.8331 0.3138 0.5000
vt 0.8662 0.3138 0.5000
vt 0.8339 0.3174 0.5000
vt 0.8355 0.3207 0.5000
vt 0.8379 0.3237 0.5000
vt 0.8409 0.3261 0.5000
vt 0.8443 0.3277 0.5000
vt 0.8478 0.3285 0.5000
vt 0.8515 0.3285 0.5000
vt 0.8551 0.3277 0.5000
vt 0.8584 0.3261 0.5000
vt 0.8614 0.3237 0.5000
vt 0.8638 0.3207 0.5000
vt 0.8654 0.3174 0.5000
# 92 texture coords

g 图形088
usemtl Material__25
s 1
f 1/1/1 2/2/1 3/3/1 4/4/1 
f 5/5/1 6/6/1 7/7/1 8/8/1 
f 9/9/1 5/5/1 8/8/1 10/10/1 
f 9/9/1 10/10/1 11/11/1 12/12/1 
f 4/4/1 3/3/1 13/13/1 14/14/1 
f 15/15/1 14/14/1 13/13/1 16/16/1 
f 9/9/1 12/12/1 17/17/1 18/18/1 
f 19/19/1 16/16/1 13/13/1 20/20/1 
f 21/21/1 22/22/1 23/23/1 24/24/1 
f 24/24/1 25/25/1 26/26/1 21/21/1 
f 27/27/1 20/20/1 13/13/1 28/28/1 
f 9/9/1 18/18/1 29/29/1 30/30/1 
f 31/31/1 28/28/1 13/13/1 26/26/1 
f 9/9/1 30/30/1 32/32/1 26/26/1 
f 33/33/1 34/34/1 35/35/1 36/36/1 
f 37/37/1 33/33/1 36/36/1 38/38/1 
f 38/38/1 36/36/1 39/39/1 40/40/1 
f 40/40/1 39/39/1 41/41/1 42/42/1 
f 43/43/1 42/42/1 41/41/1 44/44/1 
f 45/45/1 44/44/1 41/41/1 46/46/1 
f 47/47/1 46/46/1 41/41/1 48/48/1 
f 49/49/1 48/48/1 41/41/1 50/50/1 
f 23/23/1 50/50/1 41/41/1 51/51/1 
f 23/23/1 51/51/1 52/52/1 24/24/1 
f 53/53/1 54/54/1 55/55/1 56/56/1 
f 57/57/1 53/53/1 56/56/1 58/58/1 
f 58/58/1 56/56/1 59/59/1 60/60/1 
f 60/60/1 59/59/1 61/61/1 62/62/1 
f 63/63/1 62/62/1 61/61/1 64/64/1 
f 65/65/1 64/64/1 61/61/1 66/66/1 
f 67/67/1 66/66/1 61/61/1 68/68/1 
f 69/69/1 68/68/1 61/61/1 70/70/1 
f 13/13/1 70/70/1 61/61/1 71/71/1 
f 13/13/1 71/71/1 72/72/1 21/21/1 
f 13/13/1 21/21/1 26/26/1 
f 32/32/1 31/31/1 26/26/1 
f 73/73/1 9/9/1 26/26/1 74/74/1 
f 73/73/1 74/74/1 75/75/1 76/76/1 
f 77/77/1 76/76/1 75/75/1 78/78/1 
f 79/79/1 77/77/1 78/78/1 80/80/1 
f 81/81/1 79/79/1 80/80/1 82/82/1 
f 83/83/1 82/82/1 80/80/1 84/84/1 
f 85/85/1 84/84/1 80/80/1 86/86/1 
f 87/87/1 86/86/1 80/80/1 88/88/1 
f 89/89/1 88/88/1 80/80/1 90/90/1 
f 91/91/1 90/90/1 80/80/1 92/92/1 
# 44 polygons - 2 triangles

