# 3ds Max Wavefront OBJ Exporter v0.97b - (c)2007 guruware
# 创建的文件:10.09.2017 15:38:03

mtllib 55_3_5.mtl

#
# object 图形023
#

v  4.2523 0.0000 14.0963
v  3.5355 0.0000 15.0000
v  15.0000 0.0000 15.0000
v  4.7302 0.0000 13.0862
v  -14.0963 0.0000 4.2523
v  -15.0000 0.0000 3.5355
v  -15.0000 0.0000 15.0000
v  -13.0862 0.0000 4.7302
v  -3.5355 0.0000 15.0000
v  -4.2523 0.0000 14.0963
v  -4.7302 0.0000 13.0861
v  -15.0000 0.0000 -15.0000
v  -15.0000 0.0000 -3.5355
v  -14.0963 0.0000 -4.2523
v  -13.0861 0.0000 -4.7302
v  -4.9692 0.0000 12.0121
v  -12.0121 0.0000 4.9692
v  -10.9168 0.0000 4.9692
v  -4.9692 0.0000 10.9168
v  -4.7302 0.0000 9.8428
v  -9.8428 0.0000 4.7302
v  -4.2523 0.0000 8.8326
v  -8.8326 0.0000 4.2523
v  -3.5355 0.0000 7.9289
v  -3.5355 0.0000 -15.0000
v  -12.0121 0.0000 -4.9692
v  -10.9168 0.0000 -4.9692
v  -9.8428 0.0000 -4.7302
v  15.0000 0.0000 -15.0000
v  4.9692 0.0000 12.0121
v  4.9692 0.0000 10.9168
v  4.7302 0.0000 9.8428
v  4.2523 0.0000 8.8326
v  3.5355 0.0000 7.9289
v  3.5355 0.0000 -15.0000
v  2.6318 0.0000 7.2121
v  1.6217 0.0000 6.7343
v  0.5477 0.0000 6.4953
v  -7.9289 0.0000 3.5355
v  -7.2121 0.0000 2.6318
v  -8.8326 0.0000 -4.2523
v  -7.9289 0.0000 -3.5355
v  -2.6318 0.0000 7.2121
v  -1.6217 0.0000 6.7342
v  -0.5477 0.0000 6.4953
v  -6.7343 0.0000 1.6217
v  -6.4953 0.0000 0.5477
v  -6.4953 0.0000 -0.5477
v  -6.7342 0.0000 -1.6217
v  -7.2121 0.0000 -2.6318
v  -4.2523 0.0000 -15.9037
v  4.2523 0.0000 -15.9037
v  4.7302 0.0000 -16.9139
v  -4.7302 0.0000 -16.9139
v  -4.9692 0.0000 -17.9879
v  4.9692 0.0000 -17.9879
v  -4.9692 0.0000 -19.0832
v  4.9692 0.0000 -19.0832
v  -4.7302 0.0000 -20.1572
v  -4.2523 0.0000 -21.1674
v  -3.5355 0.0000 -22.0711
v  -2.6318 0.0000 -22.7879
v  -1.6217 0.0000 -23.2658
v  -0.5477 0.0000 -23.5047
v  0.5477 0.0000 -23.5047
v  1.6217 0.0000 -23.2657
v  2.6318 0.0000 -22.7879
v  3.5355 0.0000 -22.0711
v  4.2523 0.0000 -21.1674
v  4.7302 0.0000 -20.1572
# 70 vertices

vn 0.0000 1.0000 -0.0000
# 1 vertex normals

vt 0.9279 0.4061 0.5000
vt 0.9231 0.4001 0.5000
vt 0.9995 0.4001 0.5000
vt 0.9311 0.4128 0.5000
vt 0.8057 0.4717 0.5000
vt 0.7997 0.4765 0.5000
vt 0.7997 0.4001 0.5000
vt 0.8124 0.4685 0.5000
vt 0.8761 0.4001 0.5000
vt 0.8713 0.4061 0.5000
vt 0.8681 0.4128 0.5000
vt 0.7997 0.5999 0.5000
vt 0.7997 0.5235 0.5000
vt 0.8057 0.5283 0.5000
vt 0.8124 0.5315 0.5000
vt 0.8665 0.4200 0.5000
vt 0.8196 0.4669 0.5000
vt 0.8269 0.4669 0.5000
vt 0.8665 0.4273 0.5000
vt 0.8681 0.4344 0.5000
vt 0.8340 0.4685 0.5000
vt 0.8713 0.4412 0.5000
vt 0.8408 0.4717 0.5000
vt 0.8761 0.4472 0.5000
vt 0.8761 0.5999 0.5000
vt 0.8196 0.5331 0.5000
vt 0.8269 0.5331 0.5000
vt 0.8340 0.5315 0.5000
vt 0.9995 0.5999 0.5000
vt 0.9327 0.4200 0.5000
vt 0.9327 0.4273 0.5000
vt 0.9311 0.4344 0.5000
vt 0.9279 0.4412 0.5000
vt 0.9231 0.4472 0.5000
vt 0.9231 0.5999 0.5000
vt 0.9171 0.4520 0.5000
vt 0.9104 0.4551 0.5000
vt 0.9032 0.4567 0.5000
vt 0.8468 0.4765 0.5000
vt 0.8516 0.4825 0.5000
vt 0.8408 0.5283 0.5000
vt 0.8468 0.5235 0.5000
vt 0.8821 0.4520 0.5000
vt 0.8888 0.4551 0.5000
vt 0.8960 0.4567 0.5000
vt 0.8548 0.4892 0.5000
vt 0.8563 0.4964 0.5000
vt 0.8563 0.5036 0.5000
vt 0.8548 0.5108 0.5000
vt 0.8516 0.5175 0.5000
vt 0.8713 0.6059 0.5000
vt 0.9279 0.6059 0.5000
vt 0.9311 0.6126 0.5000
vt 0.8681 0.6126 0.5000
vt 0.8665 0.6198 0.5000
vt 0.9327 0.6198 0.5000
vt 0.8665 0.6271 0.5000
vt 0.9327 0.6271 0.5000
vt 0.8681 0.6342 0.5000
vt 0.8713 0.6410 0.5000
vt 0.8761 0.6470 0.5000
vt 0.8821 0.6518 0.5000
vt 0.8888 0.6549 0.5000
vt 0.8960 0.6565 0.5000
vt 0.9032 0.6565 0.5000
vt 0.9104 0.6549 0.5000
vt 0.9171 0.6518 0.5000
vt 0.9231 0.6470 0.5000
vt 0.9279 0.6410 0.5000
vt 0.9311 0.6342 0.5000
# 70 texture coords

g 图形023
usemtl Material__25
s 1
f 1/1/1 2/2/1 3/3/1 4/4/1 
f 5/5/1 6/6/1 7/7/1 8/8/1 
f 7/7/1 9/9/1 10/10/1 11/11/1 
f 12/12/1 13/13/1 14/14/1 15/15/1 
f 8/8/1 7/7/1 11/11/1 16/16/1 
f 17/17/1 8/8/1 16/16/1 18/18/1 
f 18/18/1 16/16/1 19/19/1 20/20/1 
f 21/21/1 18/18/1 20/20/1 22/22/1 
f 23/23/1 21/21/1 22/22/1 24/24/1 
f 25/25/1 12/12/1 15/15/1 26/26/1 
f 25/25/1 26/26/1 27/27/1 28/28/1 
f 4/4/1 3/3/1 29/29/1 30/30/1 
f 31/31/1 30/30/1 29/29/1 32/32/1 
f 33/33/1 32/32/1 29/29/1 34/34/1 
f 34/34/1 29/29/1 35/35/1 36/36/1 
f 37/37/1 36/36/1 35/35/1 38/38/1 
f 39/39/1 23/23/1 24/24/1 40/40/1 
f 25/25/1 28/28/1 41/41/1 42/42/1 
f 40/40/1 24/24/1 43/43/1 44/44/1 
f 45/45/1 38/38/1 35/35/1 44/44/1 
f 46/46/1 40/40/1 44/44/1 35/35/1 
f 47/47/1 46/46/1 35/35/1 48/48/1 
f 49/49/1 48/48/1 35/35/1 50/50/1 
f 42/42/1 50/50/1 35/35/1 25/25/1 
f 51/51/1 25/25/1 35/35/1 52/52/1 
f 51/51/1 52/52/1 53/53/1 54/54/1 
f 55/55/1 54/54/1 53/53/1 56/56/1 
f 57/57/1 55/55/1 56/56/1 58/58/1 
f 59/59/1 57/57/1 58/58/1 60/60/1 
f 61/61/1 60/60/1 58/58/1 62/62/1 
f 63/63/1 62/62/1 58/58/1 64/64/1 
f 65/65/1 64/64/1 58/58/1 66/66/1 
f 67/67/1 66/66/1 58/58/1 68/68/1 
f 69/69/1 68/68/1 58/58/1 70/70/1 
# 34 polygons

