# 3ds Max Wavefront OBJ Exporter v0.97b - (c)2007 guruware
# 创建的文件:10.09.2017 15:39:37

mtllib 55_4_1.mtl

#
# object 图形002
#

v  14.0963 0.0000 -4.2523
v  15.0000 0.0000 -3.5355
v  15.0000 0.0000 -15.0000
v  13.0862 0.0000 -4.7302
v  4.2523 0.0000 14.0963
v  3.5355 0.0000 15.0000
v  15.0000 0.0000 15.0000
v  4.7302 0.0000 13.0862
v  -4.2523 0.0000 -14.0963
v  -3.5355 0.0000 -15.0000
v  -15.0000 0.0000 -15.0000
v  -4.7302 0.0000 -13.0862
v  15.0000 0.0000 3.5355
v  14.0963 0.0000 4.2523
v  13.0861 0.0000 4.7302
v  -15.0000 0.0000 15.0000
v  -3.5355 0.0000 15.0000
v  -4.2523 0.0000 14.0963
v  -4.7302 0.0000 13.0861
v  3.5355 0.0000 -15.0000
v  4.2523 0.0000 -14.0963
v  4.7302 0.0000 -13.0861
v  4.9692 0.0000 -12.0121
v  12.0121 0.0000 -4.9692
v  10.9168 0.0000 -4.9692
v  4.9692 0.0000 -10.9168
v  4.7302 0.0000 -9.8428
v  9.8428 0.0000 -4.7302
v  4.2523 0.0000 -8.8326
v  12.0121 0.0000 4.9692
v  4.9692 0.0000 12.0121
v  4.9692 0.0000 10.9168
v  10.9168 0.0000 4.9692
v  9.8428 0.0000 4.7302
v  4.7302 0.0000 9.8428
v  8.8326 0.0000 4.2523
v  4.2523 0.0000 8.8326
v  7.9289 0.0000 3.5355
v  8.8326 0.0000 -4.2523
v  3.5355 0.0000 -7.9289
v  -4.9692 0.0000 12.0121
v  -4.9692 0.0000 10.9168
v  -4.7302 0.0000 9.8428
v  -4.2523 0.0000 8.8326
v  -3.5355 0.0000 7.9289
v  -2.6318 0.0000 7.2121
v  -1.6217 0.0000 6.7342
v  7.9289 0.0000 -3.5355
v  7.2121 0.0000 -2.6318
v  3.5355 0.0000 7.9289
v  2.6318 0.0000 7.2121
v  -4.9692 0.0000 -12.0121
v  -4.9692 0.0000 -10.9168
v  7.2121 0.0000 2.6318
v  6.7342 0.0000 1.6217
v  2.6318 0.0000 -7.2121
v  1.6217 0.0000 -6.7342
v  -4.7302 0.0000 -9.8428
v  -4.2523 0.0000 -8.8326
v  -3.5355 0.0000 -7.9289
v  -2.6318 0.0000 -7.2121
v  -1.6217 0.0000 -6.7343
v  -0.5477 0.0000 -6.4953
v  -0.5477 0.0000 6.4953
v  0.5477 0.0000 6.4953
v  0.5477 0.0000 -6.4953
v  1.6217 0.0000 6.7343
v  6.7343 0.0000 -1.6217
v  6.4953 0.0000 -0.5477
v  6.4953 0.0000 0.5477
# 70 vertices

vn 0.0000 1.0000 -0.0000
# 1 vertex normals

vt 0.1943 0.7281 0.5000
vt 0.2003 0.7233 0.5000
vt 0.2003 0.7997 0.5000
vt 0.1876 0.7313 0.5000
vt 0.1287 0.6059 0.5000
vt 0.1239 0.5999 0.5000
vt 0.2003 0.5999 0.5000
vt 0.1319 0.6126 0.5000
vt 0.0721 0.7937 0.5000
vt 0.0769 0.7997 0.5000
vt 0.0005 0.7997 0.5000
vt 0.0689 0.7870 0.5000
vt 0.2003 0.6763 0.5000
vt 0.1943 0.6715 0.5000
vt 0.1876 0.6683 0.5000
vt 0.0005 0.5999 0.5000
vt 0.0769 0.5999 0.5000
vt 0.0721 0.6059 0.5000
vt 0.0689 0.6126 0.5000
vt 0.1239 0.7997 0.5000
vt 0.1287 0.7937 0.5000
vt 0.1319 0.7870 0.5000
vt 0.1335 0.7798 0.5000
vt 0.1804 0.7329 0.5000
vt 0.1731 0.7329 0.5000
vt 0.1335 0.7725 0.5000
vt 0.1319 0.7654 0.5000
vt 0.1660 0.7313 0.5000
vt 0.1287 0.7586 0.5000
vt 0.1804 0.6667 0.5000
vt 0.1335 0.6198 0.5000
vt 0.1335 0.6271 0.5000
vt 0.1731 0.6667 0.5000
vt 0.1660 0.6683 0.5000
vt 0.1319 0.6342 0.5000
vt 0.1592 0.6715 0.5000
vt 0.1287 0.6410 0.5000
vt 0.1532 0.6763 0.5000
vt 0.1592 0.7281 0.5000
vt 0.1239 0.7526 0.5000
vt 0.0673 0.6198 0.5000
vt 0.0673 0.6271 0.5000
vt 0.0689 0.6342 0.5000
vt 0.0721 0.6410 0.5000
vt 0.0769 0.6470 0.5000
vt 0.0829 0.6518 0.5000
vt 0.0896 0.6550 0.5000
vt 0.1532 0.7233 0.5000
vt 0.1484 0.7173 0.5000
vt 0.1239 0.6470 0.5000
vt 0.1179 0.6518 0.5000
vt 0.0673 0.7798 0.5000
vt 0.0673 0.7725 0.5000
vt 0.1484 0.6823 0.5000
vt 0.1452 0.6890 0.5000
vt 0.1179 0.7478 0.5000
vt 0.1112 0.7447 0.5000
vt 0.0689 0.7654 0.5000
vt 0.0721 0.7586 0.5000
vt 0.0769 0.7526 0.5000
vt 0.0829 0.7478 0.5000
vt 0.0896 0.7447 0.5000
vt 0.0968 0.7431 0.5000
vt 0.0968 0.6565 0.5000
vt 0.1040 0.6565 0.5000
vt 0.1040 0.7431 0.5000
vt 0.1112 0.6550 0.5000
vt 0.1452 0.7106 0.5000
vt 0.1437 0.7034 0.5000
vt 0.1437 0.6962 0.5000
# 70 texture coords

g 图形002
usemtl Material__25
s 1
f 1/1/1 2/2/1 3/3/1 4/4/1 
f 5/5/1 6/6/1 7/7/1 8/8/1 
f 9/9/1 10/10/1 11/11/1 12/12/1 
f 7/7/1 13/13/1 14/14/1 15/15/1 
f 16/16/1 17/17/1 18/18/1 19/19/1 
f 3/3/1 20/20/1 21/21/1 22/22/1 
f 4/4/1 3/3/1 22/22/1 23/23/1 
f 24/24/1 4/4/1 23/23/1 25/25/1 
f 25/25/1 23/23/1 26/26/1 27/27/1 
f 28/28/1 25/25/1 27/27/1 29/29/1 
f 8/8/1 7/7/1 15/15/1 30/30/1 
f 31/31/1 8/8/1 30/30/1 32/32/1 
f 32/32/1 30/30/1 33/33/1 34/34/1 
f 35/35/1 32/32/1 34/34/1 36/36/1 
f 37/37/1 35/35/1 36/36/1 38/38/1 
f 39/39/1 28/28/1 29/29/1 40/40/1 
f 11/11/1 16/16/1 19/19/1 41/41/1 
f 11/11/1 41/41/1 42/42/1 43/43/1 
f 11/11/1 43/43/1 44/44/1 45/45/1 
f 11/11/1 45/45/1 46/46/1 47/47/1 
f 48/48/1 39/39/1 40/40/1 49/49/1 
f 50/50/1 37/37/1 38/38/1 51/51/1 
f 52/52/1 12/12/1 11/11/1 53/53/1 
f 51/51/1 38/38/1 54/54/1 55/55/1 
f 49/49/1 40/40/1 56/56/1 57/57/1 
f 53/53/1 11/11/1 47/47/1 58/58/1 
f 59/59/1 58/58/1 47/47/1 60/60/1 
f 61/61/1 60/60/1 47/47/1 62/62/1 
f 63/63/1 62/62/1 47/47/1 64/64/1 
f 63/63/1 64/64/1 65/65/1 66/66/1 
f 57/57/1 66/66/1 65/65/1 67/67/1 
f 49/49/1 57/57/1 67/67/1 68/68/1 
f 69/69/1 68/68/1 67/67/1 70/70/1 
f 55/55/1 70/70/1 67/67/1 51/51/1 
# 34 polygons

