# 3ds Max Wavefront OBJ Exporter v0.97b - (c)2007 guruware
# 创建的文件:31.08.2017 11:26:26

mtllib board_5_3.mtl

#
# object 图形011
#

v  105.0000 0.0000 15.0000
v  75.0000 0.0000 15.0000
v  75.0000 5.0000 15.0000
v  105.0000 5.0000 15.0000
v  75.0000 0.0000 26.4645
v  75.0000 5.0000 26.4645
v  74.0963 0.0000 25.7477
v  74.0963 5.0000 25.7477
v  73.0862 0.0000 25.2698
v  73.0862 5.0000 25.2698
v  72.0121 0.0000 25.0308
v  72.0121 5.0000 25.0308
v  70.9168 0.0000 25.0308
v  70.9168 5.0000 25.0308
v  69.8428 0.0000 25.2698
v  69.8428 5.0000 25.2698
v  68.8326 0.0000 25.7477
v  68.8326 5.0000 25.7477
v  67.9289 0.0000 26.4645
v  67.9289 5.0000 26.4645
v  67.2121 0.0000 27.3682
v  67.2121 5.0000 27.3682
v  66.7343 0.0000 28.3783
v  66.7343 5.0000 28.3783
v  66.4953 0.0000 29.4523
v  66.4953 5.0000 29.4523
v  66.4953 0.0000 30.5477
v  66.4953 5.0000 30.5477
v  66.7342 0.0000 31.6217
v  66.7342 5.0000 31.6217
v  67.2121 0.0000 32.6318
v  67.2121 5.0000 32.6318
v  67.9289 0.0000 33.5355
v  67.9289 5.0000 33.5355
v  68.8326 0.0000 34.2523
v  68.8326 5.0000 34.2523
v  69.8428 0.0000 34.7302
v  69.8428 5.0000 34.7302
v  70.9168 0.0000 34.9692
v  70.9168 5.0000 34.9692
v  72.0121 0.0000 34.9692
v  72.0121 5.0000 34.9692
v  73.0862 0.0000 34.7302
v  73.0862 5.0000 34.7302
v  74.0963 0.0000 34.2523
v  74.0963 5.0000 34.2523
v  75.0000 0.0000 33.5355
v  75.0000 5.0000 33.5355
v  75.0000 0.0000 45.0000
v  75.0000 5.0000 45.0000
v  86.4645 0.0000 45.0000
v  86.4645 5.0000 45.0000
v  85.7477 0.0000 44.0963
v  85.7477 5.0000 44.0963
v  85.2698 0.0000 43.0862
v  85.2698 5.0000 43.0862
v  85.0308 0.0000 42.0121
v  85.0308 5.0000 42.0121
v  85.0308 0.0000 40.9168
v  85.0308 5.0000 40.9168
v  85.2698 0.0000 39.8428
v  85.2698 5.0000 39.8428
v  85.7477 0.0000 38.8326
v  85.7477 5.0000 38.8326
v  86.4645 0.0000 37.9289
v  86.4645 5.0000 37.9289
v  87.3682 0.0000 37.2121
v  87.3682 5.0000 37.2121
v  88.3783 0.0000 36.7342
v  88.3783 5.0000 36.7342
v  89.4523 0.0000 36.4953
v  89.4523 5.0000 36.4953
v  90.5477 0.0000 36.4953
v  90.5477 5.0000 36.4953
v  91.6217 0.0000 36.7342
v  91.6217 5.0000 36.7342
v  92.6318 0.0000 37.2121
v  92.6318 5.0000 37.2121
v  93.5355 0.0000 37.9289
v  93.5355 5.0000 37.9289
v  94.2523 0.0000 38.8326
v  94.2523 5.0000 38.8326
v  94.7302 0.0000 39.8428
v  94.7302 5.0000 39.8428
v  94.9692 0.0000 40.9168
v  94.9692 5.0000 40.9168
v  94.9692 0.0000 42.0121
v  94.9692 5.0000 42.0121
v  94.7302 0.0000 43.0862
v  94.7302 5.0000 43.0862
v  94.2523 0.0000 44.0963
v  94.2523 5.0000 44.0963
v  93.5355 0.0000 45.0000
v  93.5355 5.0000 45.0000
v  105.0000 0.0000 45.0000
v  105.0000 5.0000 45.0000
v  105.0000 0.0000 33.5355
v  105.0000 5.0000 33.5355
v  105.9037 0.0000 34.2523
v  105.9037 5.0000 34.2523
v  106.9138 0.0000 34.7302
v  106.9138 5.0000 34.7302
v  107.9879 0.0000 34.9692
v  107.9879 5.0000 34.9692
v  109.0832 0.0000 34.9692
v  109.0832 5.0000 34.9692
v  110.1572 0.0000 34.7302
v  110.1572 5.0000 34.7302
v  111.1674 0.0000 34.2523
v  111.1674 5.0000 34.2523
v  112.0711 0.0000 33.5355
v  112.0711 5.0000 33.5355
v  112.7879 0.0000 32.6318
v  112.7879 5.0000 32.6318
v  113.2657 0.0000 31.6217
v  113.2657 5.0000 31.6217
v  113.5047 0.0000 30.5477
v  113.5047 5.0000 30.5477
v  113.5047 0.0000 29.4523
v  113.5047 5.0000 29.4523
v  113.2658 0.0000 28.3783
v  113.2658 5.0000 28.3783
v  112.7879 0.0000 27.3682
v  112.7879 5.0000 27.3682
v  112.0711 0.0000 26.4645
v  112.0711 5.0000 26.4645
v  111.1674 0.0000 25.7477
v  111.1674 5.0000 25.7477
v  110.1572 0.0000 25.2698
v  110.1572 5.0000 25.2698
v  109.0832 0.0000 25.0308
v  109.0832 5.0000 25.0308
v  107.9879 0.0000 25.0308
v  107.9879 5.0000 25.0308
v  106.9138 0.0000 25.2698
v  106.9138 5.0000 25.2698
v  105.9037 0.0000 25.7477
v  105.9037 5.0000 25.7477
v  105.0000 0.0000 26.4645
v  105.0000 5.0000 26.4645
# 140 vertices

vn 0.0000 0.0000 -1.0000
vn -1.0000 0.0000 -0.0000
vn 0.6214 0.0000 -0.7835
vn 0.5280 0.0000 -0.8493
vn 0.3244 0.0000 -0.9459
vn 0.1092 0.0000 -0.9940
vn -0.1092 0.0000 -0.9940
vn -0.3244 0.0000 -0.9459
vn -0.5280 0.0000 -0.8493
vn -0.7071 0.0000 -0.7071
vn -0.8493 0.0000 -0.5280
vn -0.9459 0.0000 -0.3244
vn -0.9940 0.0000 -0.1092
vn -0.9940 0.0000 0.1092
vn -0.9459 0.0000 0.3244
vn -0.8493 0.0000 0.5280
vn -0.7071 0.0000 0.7071
vn -0.5280 0.0000 0.8493
vn -0.3244 0.0000 0.9459
vn -0.1092 0.0000 0.9940
vn 0.1092 0.0000 0.9940
vn 0.3244 0.0000 0.9459
vn 0.5280 0.0000 0.8493
vn 0.6214 0.0000 0.7835
vn 0.0000 0.0000 1.0000
vn 0.7835 0.0000 -0.6214
vn 0.8493 0.0000 -0.5280
vn 0.9459 0.0000 -0.3244
vn 0.9940 0.0000 -0.1092
vn 0.9940 0.0000 0.1092
vn 0.9459 0.0000 0.3244
vn 0.8493 0.0000 0.5280
vn 0.7071 0.0000 0.7071
vn -0.7835 0.0000 -0.6214
vn 1.0000 0.0000 -0.0000
vn -0.6214 0.0000 0.7835
vn 0.7071 0.0000 -0.7071
vn -0.6214 0.0000 -0.7835
vn 0.0000 -1.0000 -0.0000
vn 0.0000 1.0000 -0.0000
# 40 vertex normals

vt 0.4001 0.0005 0.9995
vt 0.5999 0.0005 0.9995
vt 0.5999 0.9995 0.9995
vt 0.4001 0.9995 0.9995
vt 0.0005 0.0005 0.4001
vt 0.0769 0.0005 0.4001
vt 0.0769 0.9995 0.4001
vt 0.0005 0.9995 0.4001
vt 0.5999 0.0005 0.9231
vt 0.6059 0.0005 0.9279
vt 0.6059 0.9995 0.9279
vt 0.5999 0.9995 0.9231
vt 0.6126 0.0005 0.9311
vt 0.6126 0.9995 0.9311
vt 0.6198 0.0005 0.9327
vt 0.6198 0.9995 0.9327
vt 0.6271 0.0005 0.9327
vt 0.6271 0.9995 0.9327
vt 0.6342 0.0005 0.9311
vt 0.6342 0.9995 0.9311
vt 0.6410 0.0005 0.9279
vt 0.6410 0.9995 0.9279
vt 0.6470 0.0005 0.9231
vt 0.6470 0.9995 0.9231
vt 0.0769 0.0005 0.3530
vt 0.0829 0.0005 0.3482
vt 0.0829 0.9995 0.3482
vt 0.0769 0.9995 0.3530
vt 0.0896 0.0005 0.3451
vt 0.0896 0.9995 0.3451
vt 0.0968 0.0005 0.3435
vt 0.0968 0.9995 0.3435
vt 0.1040 0.0005 0.3435
vt 0.1040 0.9995 0.3435
vt 0.1112 0.0005 0.3451
vt 0.1112 0.9995 0.3451
vt 0.1179 0.0005 0.3482
vt 0.1179 0.9995 0.3482
vt 0.1239 0.0005 0.3530
vt 0.1239 0.9995 0.3530
vt 0.3530 0.0005 0.8761
vt 0.3590 0.0005 0.8713
vt 0.3590 0.9995 0.8713
vt 0.3530 0.9995 0.8761
vt 0.3658 0.0005 0.8681
vt 0.3658 0.9995 0.8681
vt 0.3729 0.0005 0.8665
vt 0.3729 0.9995 0.8665
vt 0.3802 0.0005 0.8665
vt 0.3802 0.9995 0.8665
vt 0.3874 0.0005 0.8681
vt 0.3874 0.9995 0.8681
vt 0.3941 0.0005 0.8713
vt 0.3941 0.9995 0.8713
vt 0.4001 0.0005 0.8761
vt 0.4001 0.9995 0.8761
vt 0.1239 0.0005 0.4001
vt 0.2003 0.0005 0.4001
vt 0.2003 0.9995 0.4001
vt 0.1239 0.9995 0.4001
vt 0.4001 0.0005 0.7997
vt 0.4765 0.0005 0.7997
vt 0.4765 0.9995 0.7997
vt 0.4001 0.9995 0.7997
vt 0.7997 0.0005 0.4765
vt 0.8057 0.0005 0.4717
vt 0.8057 0.9995 0.4717
vt 0.7997 0.9995 0.4765
vt 0.8124 0.0005 0.4685
vt 0.8124 0.9995 0.4685
vt 0.8196 0.0005 0.4669
vt 0.8196 0.9995 0.4669
vt 0.8269 0.0005 0.4669
vt 0.8269 0.9995 0.4669
vt 0.8340 0.0005 0.4685
vt 0.8340 0.9995 0.4685
vt 0.8408 0.0005 0.4717
vt 0.8408 0.9995 0.4717
vt 0.8468 0.0005 0.4765
vt 0.8468 0.9995 0.4765
vt 0.4765 0.0005 0.8468
vt 0.4825 0.0005 0.8516
vt 0.4825 0.9995 0.8516
vt 0.4765 0.9995 0.8468
vt 0.4892 0.0005 0.8548
vt 0.4892 0.9995 0.8548
vt 0.4964 0.0005 0.8563
vt 0.4964 0.9995 0.8563
vt 0.5036 0.0005 0.8563
vt 0.5036 0.9995 0.8563
vt 0.5108 0.0005 0.8548
vt 0.5108 0.9995 0.8548
vt 0.5175 0.0005 0.8516
vt 0.5175 0.9995 0.8516
vt 0.5235 0.0005 0.8468
vt 0.5235 0.9995 0.8468
vt 0.1532 0.0005 0.5235
vt 0.1592 0.0005 0.5283
vt 0.1592 0.9995 0.5283
vt 0.1532 0.9995 0.5235
vt 0.1660 0.0005 0.5315
vt 0.1660 0.9995 0.5315
vt 0.1731 0.0005 0.5331
vt 0.1731 0.9995 0.5331
vt 0.1804 0.0005 0.5331
vt 0.1804 0.9995 0.5331
vt 0.1876 0.0005 0.5315
vt 0.1876 0.9995 0.5315
vt 0.1943 0.0005 0.5283
vt 0.1943 0.9995 0.5283
vt 0.2003 0.0005 0.5235
vt 0.2003 0.9995 0.5235
vt 0.5235 0.0005 0.7997
vt 0.5999 0.0005 0.7997
vt 0.5999 0.9995 0.7997
vt 0.5235 0.9995 0.7997
vt 0.7997 0.0005 0.5999
vt 0.8761 0.0005 0.5999
vt 0.8761 0.9995 0.5999
vt 0.7997 0.9995 0.5999
vt 0.5999 0.0005 0.8761
vt 0.6059 0.0005 0.8713
vt 0.6059 0.9995 0.8713
vt 0.5999 0.9995 0.8761
vt 0.6126 0.0005 0.8681
vt 0.6126 0.9995 0.8681
vt 0.6198 0.0005 0.8665
vt 0.6198 0.9995 0.8665
vt 0.6271 0.0005 0.8665
vt 0.6271 0.9995 0.8665
vt 0.6342 0.0005 0.8681
vt 0.6342 0.9995 0.8681
vt 0.6410 0.0005 0.8713
vt 0.6410 0.9995 0.8713
vt 0.6470 0.0005 0.8761
vt 0.6470 0.9995 0.8761
vt 0.8761 0.0005 0.6470
vt 0.8821 0.0005 0.6518
vt 0.8821 0.9995 0.6518
vt 0.8761 0.9995 0.6470
vt 0.8888 0.0005 0.6550
vt 0.8888 0.9995 0.6550
vt 0.8960 0.0005 0.6565
vt 0.8960 0.9995 0.6565
vt 0.9032 0.0005 0.6565
vt 0.9032 0.9995 0.6565
vt 0.9104 0.0005 0.6550
vt 0.9104 0.9995 0.6550
vt 0.9171 0.0005 0.6518
vt 0.9171 0.9995 0.6518
vt 0.9231 0.0005 0.6470
vt 0.9231 0.9995 0.6470
vt 0.3530 0.0005 0.9231
vt 0.3590 0.0005 0.9279
vt 0.3590 0.9995 0.9279
vt 0.3530 0.9995 0.9231
vt 0.3658 0.0005 0.9311
vt 0.3658 0.9995 0.9311
vt 0.3729 0.0005 0.9327
vt 0.3729 0.9995 0.9327
vt 0.3802 0.0005 0.9327
vt 0.3802 0.9995 0.9327
vt 0.3874 0.0005 0.9311
vt 0.3874 0.9995 0.9311
vt 0.3941 0.0005 0.9279
vt 0.3941 0.9995 0.9279
vt 0.4001 0.0005 0.9231
vt 0.4001 0.9995 0.9231
vt 0.9231 0.0005 0.5999
vt 0.9995 0.0005 0.5999
vt 0.9995 0.9995 0.5999
vt 0.9231 0.9995 0.5999
vt 0.4717 0.8057 0.0005
vt 0.4685 0.8124 0.0005
vt 0.4001 0.7997 0.0005
vt 0.4765 0.7997 0.0005
vt 0.5999 0.7997 0.0005
vt 0.5315 0.8124 0.0005
vt 0.5283 0.8057 0.0005
vt 0.5235 0.7997 0.0005
vt 0.5999 0.8761 0.0005
vt 0.5331 0.8196 0.0005
vt 0.5315 0.8340 0.0005
vt 0.5331 0.8269 0.0005
vt 0.4669 0.8196 0.0005
vt 0.4001 0.8761 0.0005
vt 0.4669 0.8269 0.0005
vt 0.4685 0.8340 0.0005
vt 0.5235 0.8468 0.0005
vt 0.5283 0.8408 0.0005
vt 0.4717 0.8408 0.0005
vt 0.4765 0.8468 0.0005
vt 0.4001 0.9995 0.0005
vt 0.4001 0.9231 0.0005
vt 0.5999 0.9231 0.0005
vt 0.5999 0.9995 0.0005
vt 0.4825 0.8516 0.0005
vt 0.4892 0.8548 0.0005
vt 0.5108 0.8548 0.0005
vt 0.5175 0.8516 0.0005
vt 0.4964 0.8563 0.0005
vt 0.5036 0.8563 0.0005
vt 0.3482 0.9171 0.0005
vt 0.3658 0.9311 0.0005
vt 0.3590 0.9279 0.0005
vt 0.3530 0.9231 0.0005
vt 0.3450 0.9104 0.0005
vt 0.3435 0.9032 0.0005
vt 0.3435 0.8960 0.0005
vt 0.3729 0.9327 0.0005
vt 0.3450 0.8888 0.0005
vt 0.3802 0.9327 0.0005
vt 0.3482 0.8821 0.0005
vt 0.3530 0.8761 0.0005
vt 0.3590 0.8713 0.0005
vt 0.3658 0.8681 0.0005
vt 0.3729 0.8665 0.0005
vt 0.3802 0.8665 0.0005
vt 0.3874 0.8681 0.0005
vt 0.3941 0.8713 0.0005
vt 0.3874 0.9311 0.0005
vt 0.3941 0.9279 0.0005
vt 0.6059 0.8713 0.0005
vt 0.6059 0.9279 0.0005
vt 0.6126 0.8681 0.0005
vt 0.6126 0.9311 0.0005
vt 0.6198 0.8665 0.0005
vt 0.6198 0.9327 0.0005
vt 0.6271 0.8665 0.0005
vt 0.6271 0.9327 0.0005
vt 0.6342 0.8681 0.0005
vt 0.6410 0.8713 0.0005
vt 0.6470 0.8761 0.0005
vt 0.6518 0.8821 0.0005
vt 0.6549 0.8888 0.0005
vt 0.6565 0.8960 0.0005
vt 0.6565 0.9032 0.0005
vt 0.6549 0.9104 0.0005
vt 0.6518 0.9171 0.0005
vt 0.6470 0.9231 0.0005
vt 0.6410 0.9279 0.0005
vt 0.6342 0.9311 0.0005
vt 0.5283 0.8057 0.9995
vt 0.5235 0.7997 0.9995
vt 0.5999 0.7997 0.9995
vt 0.5315 0.8124 0.9995
vt 0.4001 0.7997 0.9995
vt 0.4765 0.7997 0.9995
vt 0.4717 0.8057 0.9995
vt 0.4685 0.8124 0.9995
vt 0.4001 0.8761 0.9995
vt 0.4669 0.8196 0.9995
vt 0.4669 0.8269 0.9995
vt 0.4685 0.8340 0.9995
vt 0.5999 0.8761 0.9995
vt 0.5331 0.8196 0.9995
vt 0.5331 0.8269 0.9995
vt 0.5315 0.8340 0.9995
vt 0.4717 0.8408 0.9995
vt 0.4765 0.8468 0.9995
vt 0.5283 0.8408 0.9995
vt 0.5235 0.8468 0.9995
vt 0.4001 0.9231 0.9995
vt 0.5999 0.9231 0.9995
vt 0.5175 0.8516 0.9995
vt 0.5108 0.8548 0.9995
vt 0.4825 0.8516 0.9995
vt 0.4892 0.8548 0.9995
vt 0.5036 0.8563 0.9995
vt 0.4964 0.8563 0.9995
vt 0.6518 0.9171 0.9995
vt 0.6470 0.9231 0.9995
vt 0.6410 0.9279 0.9995
vt 0.6342 0.9311 0.9995
vt 0.6550 0.9104 0.9995
vt 0.6565 0.9032 0.9995
vt 0.6271 0.9327 0.9995
vt 0.6565 0.8960 0.9995
vt 0.6198 0.9327 0.9995
vt 0.6550 0.8888 0.9995
vt 0.6518 0.8821 0.9995
vt 0.6470 0.8761 0.9995
vt 0.6410 0.8713 0.9995
vt 0.6342 0.8681 0.9995
vt 0.6271 0.8665 0.9995
vt 0.6198 0.8665 0.9995
vt 0.6126 0.8681 0.9995
vt 0.6059 0.8713 0.9995
vt 0.6126 0.9311 0.9995
vt 0.6059 0.9279 0.9995
vt 0.3941 0.8713 0.9995
vt 0.3941 0.9279 0.9995
vt 0.3874 0.9311 0.9995
vt 0.3874 0.8681 0.9995
vt 0.3802 0.8665 0.9995
vt 0.3802 0.9327 0.9995
vt 0.3729 0.8665 0.9995
vt 0.3729 0.9327 0.9995
vt 0.3658 0.8681 0.9995
vt 0.3590 0.8713 0.9995
vt 0.3530 0.8761 0.9995
vt 0.3482 0.8821 0.9995
vt 0.3451 0.8888 0.9995
vt 0.3435 0.8960 0.9995
vt 0.3435 0.9032 0.9995
vt 0.3451 0.9104 0.9995
vt 0.3482 0.9171 0.9995
vt 0.3530 0.9231 0.9995
vt 0.3590 0.9279 0.9995
vt 0.3658 0.9311 0.9995
# 310 texture coords

g 图形011
usemtl Material__25
s 1
f 1/1/1 2/2/1 3/3/1 4/4/1 
s 4
f 2/5/2 5/6/2 6/7/2 3/8/2 
s 2
f 5/9/3 7/10/4 8/11/4 6/12/3 
f 7/10/4 9/13/5 10/14/5 8/11/4 
f 9/13/5 11/15/6 12/16/6 10/14/5 
f 11/15/6 13/17/7 14/18/7 12/16/6 
f 13/17/7 15/19/8 16/20/8 14/18/7 
f 15/19/8 17/21/9 18/22/9 16/20/8 
f 17/21/9 19/23/10 20/24/10 18/22/9 
f 19/25/10 21/26/11 22/27/11 20/28/10 
f 21/26/11 23/29/12 24/30/12 22/27/11 
f 23/29/12 25/31/13 26/32/13 24/30/12 
f 25/31/13 27/33/14 28/34/14 26/32/13 
f 27/33/14 29/35/15 30/36/15 28/34/14 
f 29/35/15 31/37/16 32/38/16 30/36/15 
f 31/37/16 33/39/17 34/40/17 32/38/16 
f 33/41/17 35/42/18 36/43/18 34/44/17 
f 35/42/18 37/45/19 38/46/19 36/43/18 
f 37/45/19 39/47/20 40/48/20 38/46/19 
f 39/47/20 41/49/21 42/50/21 40/48/20 
f 41/49/21 43/51/22 44/52/22 42/50/21 
f 43/51/22 45/53/23 46/54/23 44/52/22 
f 45/53/23 47/55/24 48/56/24 46/54/23 
s 4
f 47/57/2 49/58/2 50/59/2 48/60/2 
s 2
f 49/61/25 51/62/25 52/63/25 50/64/25 
s 4
f 51/65/26 53/66/27 54/67/27 52/68/26 
f 53/66/27 55/69/28 56/70/28 54/67/27 
f 55/69/28 57/71/29 58/72/29 56/70/28 
f 57/71/29 59/73/30 60/74/30 58/72/29 
f 59/73/30 61/75/31 62/76/31 60/74/30 
f 61/75/31 63/77/32 64/78/32 62/76/31 
f 63/77/32 65/79/33 66/80/33 64/78/32 
f 65/81/33 67/82/23 68/83/23 66/84/33 
f 67/82/23 69/85/22 70/86/22 68/83/23 
f 69/85/22 71/87/21 72/88/21 70/86/22 
f 71/87/21 73/89/20 74/90/20 72/88/21 
f 73/89/20 75/91/19 76/92/19 74/90/20 
f 75/91/19 77/93/18 78/94/18 76/92/19 
f 77/93/18 79/95/17 80/96/17 78/94/18 
f 79/97/17 81/98/16 82/99/16 80/100/17 
f 81/98/16 83/101/15 84/102/15 82/99/16 
f 83/101/15 85/103/14 86/104/14 84/102/15 
f 85/103/14 87/105/13 88/106/13 86/104/14 
f 87/105/13 89/107/12 90/108/12 88/106/13 
f 89/107/12 91/109/11 92/110/11 90/108/12 
f 91/109/11 93/111/34 94/112/34 92/110/11 
s 2
f 93/113/25 95/114/25 96/115/25 94/116/25 
s 4
f 95/117/35 97/118/35 98/119/35 96/120/35 
s 2
f 97/121/36 99/122/18 100/123/18 98/124/36 
f 99/122/18 101/125/19 102/126/19 100/123/18 
f 101/125/19 103/127/20 104/128/20 102/126/19 
f 103/127/20 105/129/21 106/130/21 104/128/20 
f 105/129/21 107/131/22 108/132/22 106/130/21 
f 107/131/22 109/133/23 110/134/23 108/132/22 
f 109/133/23 111/135/33 112/136/33 110/134/23 
f 111/137/33 113/138/32 114/139/32 112/140/33 
f 113/138/32 115/141/31 116/142/31 114/139/32 
f 115/141/31 117/143/30 118/144/30 116/142/31 
f 117/143/30 119/145/29 120/146/29 118/144/30 
f 119/145/29 121/147/28 122/148/28 120/146/29 
f 121/147/28 123/149/27 124/150/27 122/148/28 
f 123/149/27 125/151/37 126/152/37 124/150/27 
f 125/153/37 127/154/4 128/155/4 126/156/37 
f 127/154/4 129/157/5 130/158/5 128/155/4 
f 129/157/5 131/159/6 132/160/6 130/158/5 
f 131/159/6 133/161/7 134/162/7 132/160/6 
f 133/161/7 135/163/8 136/164/8 134/162/7 
f 135/163/8 137/165/9 138/166/9 136/164/8 
f 137/165/9 139/167/38 140/168/38 138/166/9 
s 4
f 139/169/35 1/170/35 4/171/35 140/172/35 
s 16
f 91/173/39 89/174/39 95/175/39 93/176/39 
f 49/177/39 55/178/39 53/179/39 51/180/39 
f 47/181/39 57/182/39 55/178/39 49/177/39 
f 47/181/39 61/183/39 59/184/39 57/182/39 
f 89/174/39 87/185/39 97/186/39 95/175/39 
f 85/187/39 83/188/39 97/186/39 87/185/39 
f 47/181/39 65/189/39 63/190/39 61/183/39 
f 81/191/39 79/192/39 97/186/39 83/188/39 
f 1/193/39 139/194/39 5/195/39 2/196/39 
f 77/197/39 75/198/39 97/186/39 79/192/39 
f 47/181/39 69/199/39 67/200/39 65/189/39 
f 73/201/39 5/195/39 97/186/39 75/198/39 
f 47/181/39 5/195/39 71/202/39 69/199/39 
f 123/203/39 129/204/39 127/205/39 125/206/39 
f 121/207/39 119/208/39 129/204/39 123/203/39 
f 119/208/39 117/209/39 131/210/39 129/204/39 
f 117/209/39 115/211/39 133/212/39 131/210/39 
f 113/213/39 111/214/39 133/212/39 115/211/39 
f 109/215/39 107/216/39 133/212/39 111/214/39 
f 105/217/39 103/218/39 133/212/39 107/216/39 
f 101/219/39 99/220/39 133/212/39 103/218/39 
f 97/186/39 135/221/39 133/212/39 99/220/39 
f 97/186/39 139/194/39 137/222/39 135/221/39 
f 97/186/39 5/195/39 139/194/39 
f 71/202/39 5/195/39 73/201/39 
f 45/223/39 7/224/39 5/195/39 47/181/39 
f 45/223/39 43/225/39 9/226/39 7/224/39 
f 41/227/39 11/228/39 9/226/39 43/225/39 
f 39/229/39 13/230/39 11/228/39 41/227/39 
f 37/231/39 35/232/39 13/230/39 39/229/39 
f 33/233/39 31/234/39 13/230/39 35/232/39 
f 29/235/39 27/236/39 13/230/39 31/234/39 
f 25/237/39 23/238/39 13/230/39 27/236/39 
f 21/239/39 19/240/39 13/230/39 23/238/39 
f 17/241/39 15/242/39 13/230/39 19/240/39 
f 92/243/40 94/244/40 96/245/40 90/246/40 
f 50/247/40 52/248/40 54/249/40 56/250/40 
f 48/251/40 50/247/40 56/250/40 58/252/40 
f 48/251/40 58/252/40 60/253/40 62/254/40 
f 90/246/40 96/245/40 98/255/40 88/256/40 
f 86/257/40 88/256/40 98/255/40 84/258/40 
f 48/251/40 62/254/40 64/259/40 66/260/40 
f 82/261/40 84/258/40 98/255/40 80/262/40 
f 4/3/40 3/4/40 6/263/40 140/264/40 
f 78/265/40 80/262/40 98/255/40 76/266/40 
f 48/251/40 66/260/40 68/267/40 70/268/40 
f 74/269/40 76/266/40 98/255/40 6/263/40 
f 48/251/40 70/268/40 72/270/40 6/263/40 
f 124/271/40 126/272/40 128/273/40 130/274/40 
f 122/275/40 124/271/40 130/274/40 120/276/40 
f 120/276/40 130/274/40 132/277/40 118/278/40 
f 118/278/40 132/277/40 134/279/40 116/280/40 
f 114/281/40 116/280/40 134/279/40 112/282/40 
f 110/283/40 112/282/40 134/279/40 108/284/40 
f 106/285/40 108/284/40 134/279/40 104/286/40 
f 102/287/40 104/286/40 134/279/40 100/288/40 
f 98/255/40 100/288/40 134/279/40 136/289/40 
f 98/255/40 136/289/40 138/290/40 140/264/40 
f 98/255/40 140/264/40 6/263/40 
f 72/270/40 74/269/40 6/263/40 
f 46/291/40 48/251/40 6/263/40 8/292/40 
f 46/291/40 8/292/40 10/293/40 44/294/40 
f 42/295/40 44/294/40 10/293/40 12/296/40 
f 40/297/40 42/295/40 12/296/40 14/298/40 
f 38/299/40 40/297/40 14/298/40 36/300/40 
f 34/301/40 36/300/40 14/298/40 32/302/40 
f 30/303/40 32/302/40 14/298/40 28/304/40 
f 26/305/40 28/304/40 14/298/40 24/306/40 
f 22/307/40 24/306/40 14/298/40 20/308/40 
f 18/309/40 20/308/40 14/298/40 16/310/40 
# 136 polygons - 4 triangles

