# 3ds Max Wavefront OBJ Exporter v0.97b - (c)2007 guruware
# 创建的文件:31.08.2017 11:25:47

mtllib board_5_1.mtl

#
# object 图形001
#

v  45.0000 0.0000 15.0000
v  15.0000 0.0000 15.0000
v  15.0000 5.0000 15.0000
v  45.0000 5.0000 15.0000
v  15.0000 0.0000 45.0000
v  15.0000 5.0000 45.0000
v  26.4645 0.0000 45.0000
v  26.4645 5.0000 45.0000
v  25.7477 0.0000 44.0963
v  25.7477 5.0000 44.0963
v  25.2698 0.0000 43.0862
v  25.2698 5.0000 43.0862
v  25.0308 0.0000 42.0121
v  25.0308 5.0000 42.0121
v  25.0308 0.0000 40.9168
v  25.0308 5.0000 40.9168
v  25.2698 0.0000 39.8428
v  25.2698 5.0000 39.8428
v  25.7477 0.0000 38.8326
v  25.7477 5.0000 38.8326
v  26.4645 0.0000 37.9289
v  26.4645 5.0000 37.9289
v  27.3682 0.0000 37.2121
v  27.3682 5.0000 37.2121
v  28.3783 0.0000 36.7342
v  28.3783 5.0000 36.7342
v  29.4523 0.0000 36.4953
v  29.4523 5.0000 36.4953
v  30.5477 0.0000 36.4953
v  30.5477 5.0000 36.4953
v  31.6217 0.0000 36.7342
v  31.6217 5.0000 36.7342
v  32.6318 0.0000 37.2121
v  32.6318 5.0000 37.2121
v  33.5355 0.0000 37.9289
v  33.5355 5.0000 37.9289
v  34.2523 0.0000 38.8326
v  34.2523 5.0000 38.8326
v  34.7302 0.0000 39.8428
v  34.7302 5.0000 39.8428
v  34.9692 0.0000 40.9168
v  34.9692 5.0000 40.9168
v  34.9692 0.0000 42.0121
v  34.9692 5.0000 42.0121
v  34.7302 0.0000 43.0862
v  34.7302 5.0000 43.0862
v  34.2523 0.0000 44.0963
v  34.2523 5.0000 44.0963
v  33.5355 0.0000 45.0000
v  33.5355 5.0000 45.0000
v  45.0000 0.0000 45.0000
v  45.0000 5.0000 45.0000
v  45.0000 0.0000 33.5355
v  45.0000 5.0000 33.5355
v  45.9037 0.0000 34.2523
v  45.9037 5.0000 34.2523
v  46.9138 0.0000 34.7302
v  46.9138 5.0000 34.7302
v  47.9879 0.0000 34.9692
v  47.9879 5.0000 34.9692
v  49.0832 0.0000 34.9692
v  49.0832 5.0000 34.9692
v  50.1572 0.0000 34.7302
v  50.1572 5.0000 34.7302
v  51.1674 0.0000 34.2523
v  51.1674 5.0000 34.2523
v  52.0711 0.0000 33.5355
v  52.0711 5.0000 33.5355
v  52.7879 0.0000 32.6318
v  52.7879 5.0000 32.6318
v  53.2657 0.0000 31.6217
v  53.2657 5.0000 31.6217
v  53.5047 0.0000 30.5477
v  53.5047 5.0000 30.5477
v  53.5047 0.0000 29.4523
v  53.5047 5.0000 29.4523
v  53.2658 0.0000 28.3783
v  53.2658 5.0000 28.3783
v  52.7879 0.0000 27.3682
v  52.7879 5.0000 27.3682
v  52.0711 0.0000 26.4645
v  52.0711 5.0000 26.4645
v  51.1674 0.0000 25.7477
v  51.1674 5.0000 25.7477
v  50.1572 0.0000 25.2698
v  50.1572 5.0000 25.2698
v  49.0832 0.0000 25.0308
v  49.0832 5.0000 25.0308
v  47.9879 0.0000 25.0308
v  47.9879 5.0000 25.0308
v  46.9138 0.0000 25.2698
v  46.9138 5.0000 25.2698
v  45.9037 0.0000 25.7477
v  45.9037 5.0000 25.7477
v  45.0000 0.0000 26.4645
v  45.0000 5.0000 26.4645
# 96 vertices

vn 0.0000 0.0000 -1.0000
vn -1.0000 0.0000 -0.0000
vn 0.0000 0.0000 1.0000
vn 0.7835 0.0000 -0.6214
vn 0.8493 0.0000 -0.5280
vn 0.9459 0.0000 -0.3244
vn 0.9940 0.0000 -0.1092
vn 0.9940 0.0000 0.1092
vn 0.9459 0.0000 0.3244
vn 0.8493 0.0000 0.5280
vn 0.7071 0.0000 0.7071
vn 0.5280 0.0000 0.8493
vn 0.3244 0.0000 0.9459
vn 0.1092 0.0000 0.9940
vn -0.1092 0.0000 0.9940
vn -0.3244 0.0000 0.9459
vn -0.5280 0.0000 0.8493
vn -0.7071 0.0000 0.7071
vn -0.8493 0.0000 0.5280
vn -0.9459 0.0000 0.3244
vn -0.9940 0.0000 0.1092
vn -0.9940 0.0000 -0.1092
vn -0.9459 0.0000 -0.3244
vn -0.8493 0.0000 -0.5280
vn -0.7835 0.0000 -0.6214
vn 1.0000 0.0000 -0.0000
vn -0.6214 0.0000 0.7835
vn 0.7071 0.0000 -0.7071
vn 0.5280 0.0000 -0.8493
vn 0.3244 0.0000 -0.9459
vn 0.1092 0.0000 -0.9940
vn -0.1092 0.0000 -0.9940
vn -0.3244 0.0000 -0.9459
vn -0.5280 0.0000 -0.8493
vn -0.6214 0.0000 -0.7835
vn 0.0000 -1.0000 -0.0000
vn 0.0000 1.0000 -0.0000
# 37 vertex normals

vt 0.7997 0.0005 0.9995
vt 0.9995 0.0005 0.9995
vt 0.9995 0.9995 0.9995
vt 0.7997 0.9995 0.9995
vt 0.0005 0.0005 0.0005
vt 0.2003 0.0005 0.0005
vt 0.2003 0.9995 0.0005
vt 0.0005 0.9995 0.0005
vt 0.0005 0.0005 0.7997
vt 0.0769 0.0005 0.7997
vt 0.0769 0.9995 0.7997
vt 0.0005 0.9995 0.7997
vt 0.7997 0.0005 0.0769
vt 0.8057 0.0005 0.0721
vt 0.8057 0.9995 0.0721
vt 0.7997 0.9995 0.0769
vt 0.8124 0.0005 0.0689
vt 0.8124 0.9995 0.0689
vt 0.8196 0.0005 0.0673
vt 0.8196 0.9995 0.0673
vt 0.8269 0.0005 0.0673
vt 0.8269 0.9995 0.0673
vt 0.8340 0.0005 0.0689
vt 0.8340 0.9995 0.0689
vt 0.8408 0.0005 0.0721
vt 0.8408 0.9995 0.0721
vt 0.8468 0.0005 0.0769
vt 0.8468 0.9995 0.0769
vt 0.0769 0.0005 0.8468
vt 0.0829 0.0005 0.8516
vt 0.0829 0.9995 0.8516
vt 0.0769 0.9995 0.8468
vt 0.0896 0.0005 0.8548
vt 0.0896 0.9995 0.8548
vt 0.0968 0.0005 0.8563
vt 0.0968 0.9995 0.8563
vt 0.1040 0.0005 0.8563
vt 0.1040 0.9995 0.8563
vt 0.1112 0.0005 0.8548
vt 0.1112 0.9995 0.8548
vt 0.1179 0.0005 0.8516
vt 0.1179 0.9995 0.8516
vt 0.1239 0.0005 0.8468
vt 0.1239 0.9995 0.8468
vt 0.1532 0.0005 0.1239
vt 0.1592 0.0005 0.1287
vt 0.1592 0.9995 0.1287
vt 0.1532 0.9995 0.1239
vt 0.1660 0.0005 0.1319
vt 0.1660 0.9995 0.1319
vt 0.1731 0.0005 0.1335
vt 0.1731 0.9995 0.1335
vt 0.1804 0.0005 0.1335
vt 0.1804 0.9995 0.1335
vt 0.1876 0.0005 0.1319
vt 0.1876 0.9995 0.1319
vt 0.1943 0.0005 0.1287
vt 0.1943 0.9995 0.1287
vt 0.2003 0.0005 0.1239
vt 0.2003 0.9995 0.1239
vt 0.1239 0.0005 0.7997
vt 0.2003 0.0005 0.7997
vt 0.2003 0.9995 0.7997
vt 0.1239 0.9995 0.7997
vt 0.7997 0.0005 0.2003
vt 0.8761 0.0005 0.2003
vt 0.8761 0.9995 0.2003
vt 0.7997 0.9995 0.2003
vt 0.2003 0.0005 0.8761
vt 0.2063 0.0005 0.8713
vt 0.2063 0.9995 0.8713
vt 0.2003 0.9995 0.8761
vt 0.2130 0.0005 0.8681
vt 0.2130 0.9995 0.8681
vt 0.2202 0.0005 0.8665
vt 0.2202 0.9995 0.8665
vt 0.2275 0.0005 0.8665
vt 0.2275 0.9995 0.8665
vt 0.2346 0.0005 0.8681
vt 0.2346 0.9995 0.8681
vt 0.2414 0.0005 0.8713
vt 0.2414 0.9995 0.8713
vt 0.2474 0.0005 0.8761
vt 0.2474 0.9995 0.8761
vt 0.8761 0.0005 0.2474
vt 0.8821 0.0005 0.2522
vt 0.8821 0.9995 0.2522
vt 0.8761 0.9995 0.2474
vt 0.8888 0.0005 0.2553
vt 0.8888 0.9995 0.2553
vt 0.8960 0.0005 0.2569
vt 0.8960 0.9995 0.2569
vt 0.9032 0.0005 0.2569
vt 0.9032 0.9995 0.2569
vt 0.9104 0.0005 0.2553
vt 0.9104 0.9995 0.2553
vt 0.9171 0.0005 0.2522
vt 0.9171 0.9995 0.2522
vt 0.9231 0.0005 0.2474
vt 0.9231 0.9995 0.2474
vt 0.7526 0.0005 0.9231
vt 0.7586 0.0005 0.9279
vt 0.7586 0.9995 0.9279
vt 0.7526 0.9995 0.9231
vt 0.7654 0.0005 0.9311
vt 0.7654 0.9995 0.9311
vt 0.7725 0.0005 0.9327
vt 0.7725 0.9995 0.9327
vt 0.7798 0.0005 0.9327
vt 0.7798 0.9995 0.9327
vt 0.7870 0.0005 0.9311
vt 0.7870 0.9995 0.9311
vt 0.7937 0.0005 0.9279
vt 0.7937 0.9995 0.9279
vt 0.7997 0.0005 0.9231
vt 0.7997 0.9995 0.9231
vt 0.9231 0.0005 0.2003
vt 0.9995 0.0005 0.2003
vt 0.9995 0.9995 0.2003
vt 0.9231 0.9995 0.2003
vt 0.8713 0.8057 0.0005
vt 0.8681 0.8124 0.0005
vt 0.7997 0.7997 0.0005
vt 0.8761 0.7997 0.0005
vt 0.9995 0.7997 0.0005
vt 0.9311 0.8124 0.0005
vt 0.9279 0.8057 0.0005
vt 0.9231 0.7997 0.0005
vt 0.9995 0.9995 0.0005
vt 0.9327 0.8196 0.0005
vt 0.9311 0.8340 0.0005
vt 0.9327 0.8269 0.0005
vt 0.9231 0.8468 0.0005
vt 0.9279 0.8408 0.0005
vt 0.7997 0.9995 0.0005
vt 0.9171 0.8516 0.0005
vt 0.7997 0.9231 0.0005
vt 0.9104 0.8548 0.0005
vt 0.8960 0.8563 0.0005
vt 0.9032 0.8563 0.0005
vt 0.8821 0.8516 0.0005
vt 0.8888 0.8548 0.0005
vt 0.8713 0.8408 0.0005
vt 0.8761 0.8468 0.0005
vt 0.8665 0.8196 0.0005
vt 0.7997 0.8761 0.0005
vt 0.8665 0.8269 0.0005
vt 0.8681 0.8340 0.0005
vt 0.7937 0.9279 0.0005
vt 0.7937 0.8713 0.0005
vt 0.7870 0.9311 0.0005
vt 0.7870 0.8681 0.0005
vt 0.7798 0.9327 0.0005
vt 0.7798 0.8665 0.0005
vt 0.7725 0.9327 0.0005
vt 0.7725 0.8665 0.0005
vt 0.7654 0.9311 0.0005
vt 0.7586 0.9279 0.0005
vt 0.7526 0.9231 0.0005
vt 0.7478 0.9171 0.0005
vt 0.7447 0.9104 0.0005
vt 0.7431 0.9032 0.0005
vt 0.7431 0.8960 0.0005
vt 0.7447 0.8888 0.0005
vt 0.7478 0.8821 0.0005
vt 0.7526 0.8761 0.0005
vt 0.7586 0.8713 0.0005
vt 0.7654 0.8681 0.0005
vt 0.1287 0.8057 0.9995
vt 0.1239 0.7997 0.9995
vt 0.2003 0.7997 0.9995
vt 0.1319 0.8124 0.9995
vt 0.0005 0.7997 0.9995
vt 0.0769 0.7997 0.9995
vt 0.0721 0.8057 0.9995
vt 0.0689 0.8124 0.9995
vt 0.0005 0.9995 0.9995
vt 0.0673 0.8196 0.9995
vt 0.0673 0.8269 0.9995
vt 0.0689 0.8340 0.9995
vt 0.0721 0.8408 0.9995
vt 0.0769 0.8468 0.9995
vt 0.2003 0.9995 0.9995
vt 0.0829 0.8516 0.9995
vt 0.0896 0.8548 0.9995
vt 0.2003 0.9231 0.9995
vt 0.0968 0.8563 0.9995
vt 0.1040 0.8563 0.9995
vt 0.1112 0.8548 0.9995
vt 0.1179 0.8516 0.9995
vt 0.1239 0.8468 0.9995
vt 0.1287 0.8408 0.9995
vt 0.2003 0.8761 0.9995
vt 0.1335 0.8196 0.9995
vt 0.1335 0.8269 0.9995
vt 0.1319 0.8340 0.9995
vt 0.2063 0.9279 0.9995
vt 0.2063 0.8713 0.9995
vt 0.2130 0.8681 0.9995
vt 0.2130 0.9311 0.9995
vt 0.2202 0.9327 0.9995
vt 0.2202 0.8665 0.9995
vt 0.2275 0.9327 0.9995
vt 0.2275 0.8665 0.9995
vt 0.2346 0.9311 0.9995
vt 0.2414 0.9279 0.9995
vt 0.2474 0.9231 0.9995
vt 0.2522 0.9171 0.9995
vt 0.2553 0.9104 0.9995
vt 0.2569 0.9032 0.9995
vt 0.2569 0.8960 0.9995
vt 0.2553 0.8888 0.9995
vt 0.2522 0.8821 0.9995
vt 0.2474 0.8761 0.9995
vt 0.2414 0.8713 0.9995
vt 0.2346 0.8681 0.9995
# 216 texture coords

g 图形001
usemtl Material__25
s 1
f 1/1/1 2/2/1 3/3/1 4/4/1 
s 4
f 2/5/2 5/6/2 6/7/2 3/8/2 
s 2
f 5/9/3 7/10/3 8/11/3 6/12/3 
s 4
f 7/13/4 9/14/5 10/15/5 8/16/4 
f 9/14/5 11/17/6 12/18/6 10/15/5 
f 11/17/6 13/19/7 14/20/7 12/18/6 
f 13/19/7 15/21/8 16/22/8 14/20/7 
f 15/21/8 17/23/9 18/24/9 16/22/8 
f 17/23/9 19/25/10 20/26/10 18/24/9 
f 19/25/10 21/27/11 22/28/11 20/26/10 
f 21/29/11 23/30/12 24/31/12 22/32/11 
f 23/30/12 25/33/13 26/34/13 24/31/12 
f 25/33/13 27/35/14 28/36/14 26/34/13 
f 27/35/14 29/37/15 30/38/15 28/36/14 
f 29/37/15 31/39/16 32/40/16 30/38/15 
f 31/39/16 33/41/17 34/42/17 32/40/16 
f 33/41/17 35/43/18 36/44/18 34/42/17 
f 35/45/18 37/46/19 38/47/19 36/48/18 
f 37/46/19 39/49/20 40/50/20 38/47/19 
f 39/49/20 41/51/21 42/52/21 40/50/20 
f 41/51/21 43/53/22 44/54/22 42/52/21 
f 43/53/22 45/55/23 46/56/23 44/54/22 
f 45/55/23 47/57/24 48/58/24 46/56/23 
f 47/57/24 49/59/25 50/60/25 48/58/24 
s 2
f 49/61/3 51/62/3 52/63/3 50/64/3 
s 4
f 51/65/26 53/66/26 54/67/26 52/68/26 
s 2
f 53/69/27 55/70/17 56/71/17 54/72/27 
f 55/70/17 57/73/16 58/74/16 56/71/17 
f 57/73/16 59/75/15 60/76/15 58/74/16 
f 59/75/15 61/77/14 62/78/14 60/76/15 
f 61/77/14 63/79/13 64/80/13 62/78/14 
f 63/79/13 65/81/12 66/82/12 64/80/13 
f 65/81/12 67/83/11 68/84/11 66/82/12 
f 67/85/11 69/86/10 70/87/10 68/88/11 
f 69/86/10 71/89/9 72/90/9 70/87/10 
f 71/89/9 73/91/8 74/92/8 72/90/9 
f 73/91/8 75/93/7 76/94/7 74/92/8 
f 75/93/7 77/95/6 78/96/6 76/94/7 
f 77/95/6 79/97/5 80/98/5 78/96/6 
f 79/97/5 81/99/28 82/100/28 80/98/5 
f 81/101/28 83/102/29 84/103/29 82/104/28 
f 83/102/29 85/105/30 86/106/30 84/103/29 
f 85/105/30 87/107/31 88/108/31 86/106/30 
f 87/107/31 89/109/32 90/110/32 88/108/31 
f 89/109/32 91/111/33 92/112/33 90/110/32 
f 91/111/33 93/113/34 94/114/34 92/112/33 
f 93/113/34 95/115/35 96/116/35 94/114/34 
s 4
f 95/117/26 1/118/26 4/119/26 96/120/26 
s 16
f 47/121/36 45/122/36 51/123/36 49/124/36 
f 5/125/36 11/126/36 9/127/36 7/128/36 
f 2/129/36 13/130/36 11/126/36 5/125/36 
f 2/129/36 17/131/36 15/132/36 13/130/36 
f 2/129/36 21/133/36 19/134/36 17/131/36 
f 1/135/36 23/136/36 21/133/36 2/129/36 
f 1/135/36 95/137/36 25/138/36 23/136/36 
f 95/137/36 29/139/36 27/140/36 25/138/36 
f 95/137/36 33/141/36 31/142/36 29/139/36 
f 95/137/36 37/143/36 35/144/36 33/141/36 
f 45/122/36 43/145/36 53/146/36 51/123/36 
f 41/147/36 39/148/36 53/146/36 43/145/36 
f 37/143/36 95/137/36 53/146/36 39/148/36 
f 93/149/36 55/150/36 53/146/36 95/137/36 
f 93/149/36 91/151/36 57/152/36 55/150/36 
f 89/153/36 59/154/36 57/152/36 91/151/36 
f 87/155/36 61/156/36 59/154/36 89/153/36 
f 85/157/36 83/158/36 61/156/36 87/155/36 
f 81/159/36 79/160/36 61/156/36 83/158/36 
f 77/161/36 75/162/36 61/156/36 79/160/36 
f 73/163/36 71/164/36 61/156/36 75/162/36 
f 69/165/36 67/166/36 61/156/36 71/164/36 
f 65/167/36 63/168/36 61/156/36 67/166/36 
f 48/169/37 50/170/37 52/171/37 46/172/37 
f 6/173/37 8/174/37 10/175/37 12/176/37 
f 3/177/37 6/173/37 12/176/37 14/178/37 
f 3/177/37 14/178/37 16/179/37 18/180/37 
f 3/177/37 18/180/37 20/181/37 22/182/37 
f 4/183/37 3/177/37 22/182/37 24/184/37 
f 4/183/37 24/184/37 26/185/37 96/186/37 
f 96/186/37 26/185/37 28/187/37 30/188/37 
f 96/186/37 30/188/37 32/189/37 34/190/37 
f 96/186/37 34/190/37 36/191/37 38/192/37 
f 46/172/37 52/171/37 54/193/37 44/194/37 
f 42/195/37 44/194/37 54/193/37 40/196/37 
f 38/192/37 40/196/37 54/193/37 96/186/37 
f 94/197/37 96/186/37 54/193/37 56/198/37 
f 94/197/37 56/198/37 58/199/37 92/200/37 
f 90/201/37 92/200/37 58/199/37 60/202/37 
f 88/203/37 90/201/37 60/202/37 62/204/37 
f 86/205/37 88/203/37 62/204/37 84/206/37 
f 82/207/37 84/206/37 62/204/37 80/208/37 
f 78/209/37 80/208/37 62/204/37 76/210/37 
f 74/211/37 76/210/37 62/204/37 72/212/37 
f 70/213/37 72/212/37 62/204/37 68/214/37 
f 66/215/37 68/214/37 62/204/37 64/216/37 
# 94 polygons

