# 3ds Max Wavefront OBJ Exporter v0.97b - (c)2007 guruware
# 创建的文件:31.08.2017 11:19:55

mtllib board_2_4.mtl

#
# object 图形019
#

v  135.0000 0.0000 105.0000
v  123.5355 0.0000 105.0000
v  123.5355 5.0000 105.0000
v  135.0000 5.0000 105.0000
v  124.2523 0.0000 104.0963
v  124.2523 5.0000 104.0963
v  124.7302 0.0000 103.0862
v  124.7302 5.0000 103.0862
v  124.9692 0.0000 102.0121
v  124.9692 5.0000 102.0121
v  124.9692 0.0000 100.9168
v  124.9692 5.0000 100.9168
v  124.7302 0.0000 99.8428
v  124.7302 5.0000 99.8428
v  124.2523 0.0000 98.8326
v  124.2523 5.0000 98.8326
v  123.5355 0.0000 97.9289
v  123.5355 5.0000 97.9289
v  122.6318 0.0000 97.2121
v  122.6318 5.0000 97.2121
v  121.6217 0.0000 96.7343
v  121.6217 5.0000 96.7343
v  120.5477 0.0000 96.4953
v  120.5477 5.0000 96.4953
v  119.4523 0.0000 96.4953
v  119.4523 5.0000 96.4953
v  118.3783 0.0000 96.7342
v  118.3783 5.0000 96.7342
v  117.3682 0.0000 97.2121
v  117.3682 5.0000 97.2121
v  116.4645 0.0000 97.9289
v  116.4645 5.0000 97.9289
v  115.7477 0.0000 98.8326
v  115.7477 5.0000 98.8326
v  115.2698 0.0000 99.8428
v  115.2698 5.0000 99.8428
v  115.0308 0.0000 100.9168
v  115.0308 5.0000 100.9168
v  115.0308 0.0000 102.0121
v  115.0308 5.0000 102.0121
v  115.2698 0.0000 103.0862
v  115.2698 5.0000 103.0862
v  115.7477 0.0000 104.0963
v  115.7477 5.0000 104.0963
v  116.4645 0.0000 105.0000
v  116.4645 5.0000 105.0000
v  105.0000 0.0000 105.0000
v  105.0000 5.0000 105.0000
v  105.0000 0.0000 116.4645
v  105.0000 5.0000 116.4645
v  104.0963 0.0000 115.7477
v  104.0963 5.0000 115.7477
v  103.0862 0.0000 115.2698
v  103.0862 5.0000 115.2698
v  102.0121 0.0000 115.0308
v  102.0121 5.0000 115.0308
v  100.9168 0.0000 115.0308
v  100.9168 5.0000 115.0308
v  99.8428 0.0000 115.2698
v  99.8428 5.0000 115.2698
v  98.8326 0.0000 115.7477
v  98.8326 5.0000 115.7477
v  97.9289 0.0000 116.4645
v  97.9289 5.0000 116.4645
v  97.2121 0.0000 117.3682
v  97.2121 5.0000 117.3682
v  96.7343 0.0000 118.3783
v  96.7343 5.0000 118.3783
v  96.4953 0.0000 119.4523
v  96.4953 5.0000 119.4523
v  96.4953 0.0000 120.5477
v  96.4953 5.0000 120.5477
v  96.7342 0.0000 121.6217
v  96.7342 5.0000 121.6217
v  97.2121 0.0000 122.6318
v  97.2121 5.0000 122.6318
v  97.9289 0.0000 123.5355
v  97.9289 5.0000 123.5355
v  98.8326 0.0000 124.2523
v  98.8326 5.0000 124.2523
v  99.8428 0.0000 124.7302
v  99.8428 5.0000 124.7302
v  100.9168 0.0000 124.9692
v  100.9168 5.0000 124.9692
v  102.0121 0.0000 124.9692
v  102.0121 5.0000 124.9692
v  103.0862 0.0000 124.7302
v  103.0862 5.0000 124.7302
v  104.0963 0.0000 124.2523
v  104.0963 5.0000 124.2523
v  105.0000 0.0000 123.5355
v  105.0000 5.0000 123.5355
v  105.0000 0.0000 135.0000
v  105.0000 5.0000 135.0000
v  116.4645 0.0000 135.0000
v  116.4645 5.0000 135.0000
v  115.7477 0.0000 134.0963
v  115.7477 5.0000 134.0963
v  115.2698 0.0000 133.0862
v  115.2698 5.0000 133.0862
v  115.0308 0.0000 132.0121
v  115.0308 5.0000 132.0121
v  115.0308 0.0000 130.9168
v  115.0308 5.0000 130.9168
v  115.2698 0.0000 129.8428
v  115.2698 5.0000 129.8428
v  115.7477 0.0000 128.8326
v  115.7477 5.0000 128.8326
v  116.4645 0.0000 127.9289
v  116.4645 5.0000 127.9289
v  117.3682 0.0000 127.2121
v  117.3682 5.0000 127.2121
v  118.3783 0.0000 126.7343
v  118.3783 5.0000 126.7343
v  119.4523 0.0000 126.4953
v  119.4523 5.0000 126.4953
v  120.5477 0.0000 126.4953
v  120.5477 5.0000 126.4953
v  121.6217 0.0000 126.7343
v  121.6217 5.0000 126.7343
v  122.6318 0.0000 127.2121
v  122.6318 5.0000 127.2121
v  123.5355 0.0000 127.9289
v  123.5355 5.0000 127.9289
v  124.2523 0.0000 128.8326
v  124.2523 5.0000 128.8326
v  124.7302 0.0000 129.8428
v  124.7302 5.0000 129.8428
v  124.9692 0.0000 130.9168
v  124.9692 5.0000 130.9168
v  124.9692 0.0000 132.0121
v  124.9692 5.0000 132.0121
v  124.7302 0.0000 133.0862
v  124.7302 5.0000 133.0862
v  124.2523 0.0000 134.0963
v  124.2523 5.0000 134.0963
v  123.5355 0.0000 135.0000
v  123.5355 5.0000 135.0000
v  135.0000 0.0000 135.0000
v  135.0000 5.0000 135.0000
v  135.0000 0.0000 123.5355
v  135.0000 5.0000 123.5355
v  134.0963 0.0000 124.2523
v  134.0963 5.0000 124.2523
v  133.0862 0.0000 124.7302
v  133.0862 5.0000 124.7302
v  132.0121 0.0000 124.9692
v  132.0121 5.0000 124.9692
v  130.9168 0.0000 124.9692
v  130.9168 5.0000 124.9692
v  129.8428 0.0000 124.7302
v  129.8428 5.0000 124.7302
v  128.8326 0.0000 124.2523
v  128.8326 5.0000 124.2523
v  127.9289 0.0000 123.5355
v  127.9289 5.0000 123.5355
v  127.2121 0.0000 122.6318
v  127.2121 5.0000 122.6318
v  126.7343 0.0000 121.6217
v  126.7343 5.0000 121.6217
v  126.4953 0.0000 120.5477
v  126.4953 5.0000 120.5477
v  126.4953 0.0000 119.4523
v  126.4953 5.0000 119.4523
v  126.7343 0.0000 118.3783
v  126.7343 5.0000 118.3783
v  127.2121 0.0000 117.3682
v  127.2121 5.0000 117.3682
v  127.9289 0.0000 116.4645
v  127.9289 5.0000 116.4645
v  128.8326 0.0000 115.7477
v  128.8326 5.0000 115.7477
v  129.8428 0.0000 115.2698
v  129.8428 5.0000 115.2698
v  130.9168 0.0000 115.0308
v  130.9168 5.0000 115.0308
v  132.0121 0.0000 115.0308
v  132.0121 5.0000 115.0308
v  133.0862 0.0000 115.2698
v  133.0862 5.0000 115.2698
v  134.0963 0.0000 115.7477
v  134.0963 5.0000 115.7477
v  135.0000 0.0000 116.4645
v  135.0000 5.0000 116.4645
# 184 vertices

vn 0.0000 0.0000 -1.0000
vn 0.7835 0.0000 0.6214
vn 0.8493 0.0000 0.5280
vn 0.9459 0.0000 0.3244
vn 0.9940 0.0000 0.1092
vn 0.9940 0.0000 -0.1092
vn 0.9459 0.0000 -0.3244
vn 0.8493 0.0000 -0.5280
vn 0.7071 0.0000 -0.7071
vn 0.5280 0.0000 -0.8493
vn 0.3244 0.0000 -0.9459
vn 0.1092 0.0000 -0.9940
vn -0.1092 0.0000 -0.9940
vn -0.3244 0.0000 -0.9459
vn -0.5280 0.0000 -0.8493
vn -0.7071 0.0000 -0.7071
vn -0.8493 0.0000 -0.5280
vn -0.9459 0.0000 -0.3244
vn -0.9940 0.0000 -0.1092
vn -0.9940 0.0000 0.1092
vn -0.9459 0.0000 0.3244
vn -0.8493 0.0000 0.5280
vn -0.7835 0.0000 0.6214
vn -1.0000 0.0000 -0.0000
vn 0.6214 0.0000 -0.7835
vn -0.7071 0.0000 0.7071
vn -0.5280 0.0000 0.8493
vn -0.3244 0.0000 0.9459
vn -0.1092 0.0000 0.9940
vn 0.1092 0.0000 0.9940
vn 0.3244 0.0000 0.9459
vn 0.5280 0.0000 0.8493
vn 0.6214 0.0000 0.7835
vn 0.0000 0.0000 1.0000
vn 0.7835 0.0000 -0.6214
vn 0.7071 0.0000 0.7071
vn -0.7835 0.0000 -0.6214
vn 1.0000 0.0000 -0.0000
vn -0.6214 0.0000 -0.7835
vn -0.6214 0.0000 0.7835
vn 0.0000 -1.0000 -0.0000
vn 0.0000 1.0000 -0.0000
# 42 vertex normals

vt 0.2003 0.0005 0.4001
vt 0.2767 0.0005 0.4001
vt 0.2767 0.9995 0.4001
vt 0.2003 0.9995 0.4001
vt 0.4001 0.0005 0.7233
vt 0.4061 0.0005 0.7281
vt 0.4061 0.9995 0.7281
vt 0.4001 0.9995 0.7233
vt 0.4128 0.0005 0.7313
vt 0.4128 0.9995 0.7313
vt 0.4200 0.0005 0.7329
vt 0.4200 0.9995 0.7329
vt 0.4273 0.0005 0.7329
vt 0.4273 0.9995 0.7329
vt 0.4344 0.0005 0.7313
vt 0.4344 0.9995 0.7313
vt 0.4412 0.0005 0.7281
vt 0.4412 0.9995 0.7281
vt 0.4472 0.0005 0.7233
vt 0.4472 0.9995 0.7233
vt 0.2767 0.0005 0.4472
vt 0.2827 0.0005 0.4520
vt 0.2827 0.9995 0.4520
vt 0.2767 0.9995 0.4472
vt 0.2894 0.0005 0.4551
vt 0.2894 0.9995 0.4551
vt 0.2966 0.0005 0.4567
vt 0.2966 0.9995 0.4567
vt 0.3038 0.0005 0.4567
vt 0.3038 0.9995 0.4567
vt 0.3110 0.0005 0.4551
vt 0.3110 0.9995 0.4551
vt 0.3177 0.0005 0.4520
vt 0.3177 0.9995 0.4520
vt 0.3237 0.0005 0.4472
vt 0.3237 0.9995 0.4472
vt 0.5528 0.0005 0.6763
vt 0.5588 0.0005 0.6715
vt 0.5588 0.9995 0.6715
vt 0.5528 0.9995 0.6763
vt 0.5656 0.0005 0.6683
vt 0.5656 0.9995 0.6683
vt 0.5727 0.0005 0.6667
vt 0.5727 0.9995 0.6667
vt 0.5800 0.0005 0.6667
vt 0.5800 0.9995 0.6667
vt 0.5872 0.0005 0.6683
vt 0.5872 0.9995 0.6683
vt 0.5939 0.0005 0.6715
vt 0.5939 0.9995 0.6715
vt 0.5999 0.0005 0.6763
vt 0.5999 0.9995 0.6763
vt 0.3237 0.0005 0.4001
vt 0.4001 0.0005 0.4001
vt 0.4001 0.9995 0.4001
vt 0.3237 0.9995 0.4001
vt 0.5999 0.0005 0.5999
vt 0.6763 0.0005 0.5999
vt 0.6763 0.9995 0.5999
vt 0.5999 0.9995 0.5999
vt 0.4001 0.0005 0.3237
vt 0.4061 0.0005 0.3285
vt 0.4061 0.9995 0.3285
vt 0.4001 0.9995 0.3237
vt 0.4128 0.0005 0.3317
vt 0.4128 0.9995 0.3317
vt 0.4200 0.0005 0.3333
vt 0.4200 0.9995 0.3333
vt 0.4273 0.0005 0.3333
vt 0.4273 0.9995 0.3333
vt 0.4344 0.0005 0.3317
vt 0.4344 0.9995 0.3317
vt 0.4412 0.0005 0.3285
vt 0.4412 0.9995 0.3285
vt 0.4472 0.0005 0.3237
vt 0.4472 0.9995 0.3237
vt 0.6763 0.0005 0.5528
vt 0.6823 0.0005 0.5480
vt 0.6823 0.9995 0.5480
vt 0.6763 0.9995 0.5528
vt 0.6890 0.0005 0.5449
vt 0.6890 0.9995 0.5449
vt 0.6962 0.0005 0.5433
vt 0.6962 0.9995 0.5433
vt 0.7034 0.0005 0.5433
vt 0.7034 0.9995 0.5433
vt 0.7106 0.0005 0.5449
vt 0.7106 0.9995 0.5449
vt 0.7173 0.0005 0.5480
vt 0.7173 0.9995 0.5480
vt 0.7233 0.0005 0.5528
vt 0.7233 0.9995 0.5528
vt 0.5528 0.0005 0.2767
vt 0.5588 0.0005 0.2719
vt 0.5588 0.9995 0.2719
vt 0.5528 0.9995 0.2767
vt 0.5656 0.0005 0.2687
vt 0.5656 0.9995 0.2687
vt 0.5727 0.0005 0.2671
vt 0.5727 0.9995 0.2671
vt 0.5800 0.0005 0.2671
vt 0.5800 0.9995 0.2671
vt 0.5872 0.0005 0.2687
vt 0.5872 0.9995 0.2687
vt 0.5939 0.0005 0.2719
vt 0.5939 0.9995 0.2719
vt 0.5999 0.0005 0.2767
vt 0.5999 0.9995 0.2767
vt 0.7233 0.0005 0.5999
vt 0.7997 0.0005 0.5999
vt 0.7997 0.9995 0.5999
vt 0.7233 0.9995 0.5999
vt 0.5999 0.0005 0.2003
vt 0.6763 0.0005 0.2003
vt 0.6763 0.9995 0.2003
vt 0.5999 0.9995 0.2003
vt 0.2003 0.0005 0.6763
vt 0.2063 0.0005 0.6715
vt 0.2063 0.9995 0.6715
vt 0.2003 0.9995 0.6763
vt 0.2130 0.0005 0.6683
vt 0.2130 0.9995 0.6683
vt 0.2202 0.0005 0.6667
vt 0.2202 0.9995 0.6667
vt 0.2275 0.0005 0.6667
vt 0.2275 0.9995 0.6667
vt 0.2346 0.0005 0.6683
vt 0.2346 0.9995 0.6683
vt 0.2414 0.0005 0.6715
vt 0.2414 0.9995 0.6715
vt 0.2474 0.0005 0.6763
vt 0.2474 0.9995 0.6763
vt 0.6763 0.0005 0.2474
vt 0.6823 0.0005 0.2522
vt 0.6823 0.9995 0.2522
vt 0.6763 0.9995 0.2474
vt 0.6890 0.0005 0.2553
vt 0.6890 0.9995 0.2553
vt 0.6962 0.0005 0.2569
vt 0.6962 0.9995 0.2569
vt 0.7034 0.0005 0.2569
vt 0.7034 0.9995 0.2569
vt 0.7106 0.0005 0.2553
vt 0.7106 0.9995 0.2553
vt 0.7173 0.0005 0.2522
vt 0.7173 0.9995 0.2522
vt 0.7233 0.0005 0.2474
vt 0.7233 0.9995 0.2474
vt 0.7526 0.0005 0.7233
vt 0.7586 0.0005 0.7281
vt 0.7586 0.9995 0.7281
vt 0.7526 0.9995 0.7233
vt 0.7654 0.0005 0.7313
vt 0.7654 0.9995 0.7313
vt 0.7725 0.0005 0.7329
vt 0.7725 0.9995 0.7329
vt 0.7798 0.0005 0.7329
vt 0.7798 0.9995 0.7329
vt 0.7870 0.0005 0.7313
vt 0.7870 0.9995 0.7313
vt 0.7937 0.0005 0.7281
vt 0.7937 0.9995 0.7281
vt 0.7997 0.0005 0.7233
vt 0.7997 0.9995 0.7233
vt 0.7233 0.0005 0.2003
vt 0.7997 0.0005 0.2003
vt 0.7997 0.9995 0.2003
vt 0.7233 0.9995 0.2003
vt 0.2003 0.0005 0.7997
vt 0.2767 0.0005 0.7997
vt 0.2767 0.9995 0.7997
vt 0.2003 0.9995 0.7997
vt 0.2003 0.0005 0.2767
vt 0.2063 0.0005 0.2719
vt 0.2063 0.9995 0.2719
vt 0.2003 0.9995 0.2767
vt 0.2130 0.0005 0.2687
vt 0.2130 0.9995 0.2687
vt 0.2202 0.0005 0.2671
vt 0.2202 0.9995 0.2671
vt 0.2275 0.0005 0.2671
vt 0.2275 0.9995 0.2671
vt 0.2346 0.0005 0.2687
vt 0.2346 0.9995 0.2687
vt 0.2414 0.0005 0.2719
vt 0.2414 0.9995 0.2719
vt 0.2474 0.0005 0.2767
vt 0.2474 0.9995 0.2767
vt 0.2767 0.0005 0.7526
vt 0.2827 0.0005 0.7478
vt 0.2827 0.9995 0.7478
vt 0.2767 0.9995 0.7526
vt 0.2894 0.0005 0.7447
vt 0.2894 0.9995 0.7447
vt 0.2966 0.0005 0.7431
vt 0.2966 0.9995 0.7431
vt 0.3038 0.0005 0.7431
vt 0.3038 0.9995 0.7431
vt 0.3110 0.0005 0.7447
vt 0.3110 0.9995 0.7447
vt 0.3177 0.0005 0.7478
vt 0.3177 0.9995 0.7478
vt 0.3237 0.0005 0.7526
vt 0.3237 0.9995 0.7526
vt 0.7526 0.0005 0.3237
vt 0.7586 0.0005 0.3285
vt 0.7586 0.9995 0.3285
vt 0.7526 0.9995 0.3237
vt 0.7654 0.0005 0.3317
vt 0.7654 0.9995 0.3317
vt 0.7725 0.0005 0.3333
vt 0.7725 0.9995 0.3333
vt 0.7798 0.0005 0.3333
vt 0.7798 0.9995 0.3333
vt 0.7870 0.0005 0.3317
vt 0.7870 0.9995 0.3317
vt 0.7937 0.0005 0.3285
vt 0.7937 0.9995 0.3285
vt 0.7997 0.0005 0.3237
vt 0.7997 0.9995 0.3237
vt 0.3237 0.0005 0.7997
vt 0.4001 0.0005 0.7997
vt 0.4001 0.9995 0.7997
vt 0.3237 0.9995 0.7997
vt 0.2063 0.3285 0.0005
vt 0.2130 0.3317 0.0005
vt 0.2003 0.4001 0.0005
vt 0.2003 0.3237 0.0005
vt 0.2719 0.2063 0.0005
vt 0.2687 0.2130 0.0005
vt 0.2003 0.2003 0.0005
vt 0.2767 0.2003 0.0005
vt 0.2130 0.2687 0.0005
vt 0.2063 0.2719 0.0005
vt 0.2003 0.2767 0.0005
vt 0.4001 0.2003 0.0005
vt 0.3317 0.2130 0.0005
vt 0.3285 0.2063 0.0005
vt 0.3237 0.2003 0.0005
vt 0.2202 0.2671 0.0005
vt 0.2671 0.2202 0.0005
vt 0.2671 0.2275 0.0005
vt 0.2346 0.2687 0.0005
vt 0.2275 0.2671 0.0005
vt 0.2687 0.2346 0.0005
vt 0.2414 0.2719 0.0005
vt 0.2719 0.2414 0.0005
vt 0.2474 0.2767 0.0005
vt 0.4001 0.2767 0.0005
vt 0.3333 0.2202 0.0005
vt 0.3317 0.2346 0.0005
vt 0.3333 0.2275 0.0005
vt 0.2202 0.3333 0.0005
vt 0.2767 0.4001 0.0005
vt 0.2275 0.3333 0.0005
vt 0.2346 0.3317 0.0005
vt 0.2767 0.2474 0.0005
vt 0.2827 0.2522 0.0005
vt 0.3237 0.2474 0.0005
vt 0.3285 0.2414 0.0005
vt 0.2414 0.3285 0.0005
vt 0.2474 0.3237 0.0005
vt 0.3237 0.4001 0.0005
vt 0.4001 0.3237 0.0005
vt 0.4001 0.4001 0.0005
vt 0.2553 0.2894 0.0005
vt 0.2522 0.2827 0.0005
vt 0.2894 0.2553 0.0005
vt 0.2966 0.2569 0.0005
vt 0.2522 0.3177 0.0005
vt 0.2553 0.3110 0.0005
vt 0.3110 0.2553 0.0005
vt 0.3177 0.2522 0.0005
vt 0.2569 0.3038 0.0005
vt 0.2569 0.2966 0.0005
vt 0.3038 0.2569 0.0005
vt 0.4520 0.2827 0.0005
vt 0.4344 0.2687 0.0005
vt 0.4412 0.2719 0.0005
vt 0.4472 0.2767 0.0005
vt 0.4551 0.2894 0.0005
vt 0.4567 0.2966 0.0005
vt 0.4567 0.3038 0.0005
vt 0.4273 0.2671 0.0005
vt 0.4551 0.3110 0.0005
vt 0.4200 0.2671 0.0005
vt 0.4520 0.3177 0.0005
vt 0.4472 0.3237 0.0005
vt 0.4412 0.3285 0.0005
vt 0.4344 0.3317 0.0005
vt 0.4273 0.3333 0.0005
vt 0.4200 0.3333 0.0005
vt 0.4128 0.3317 0.0005
vt 0.4061 0.3285 0.0005
vt 0.4128 0.2687 0.0005
vt 0.4061 0.2719 0.0005
vt 0.3285 0.4061 0.0005
vt 0.2719 0.4061 0.0005
vt 0.3317 0.4128 0.0005
vt 0.2687 0.4128 0.0005
vt 0.3333 0.4200 0.0005
vt 0.2671 0.4200 0.0005
vt 0.3333 0.4273 0.0005
vt 0.2671 0.4273 0.0005
vt 0.3317 0.4344 0.0005
vt 0.3285 0.4412 0.0005
vt 0.3237 0.4472 0.0005
vt 0.3177 0.4520 0.0005
vt 0.3110 0.4551 0.0005
vt 0.3038 0.4567 0.0005
vt 0.2966 0.4567 0.0005
vt 0.2894 0.4551 0.0005
vt 0.2827 0.4520 0.0005
vt 0.2767 0.4472 0.0005
vt 0.2719 0.4412 0.0005
vt 0.2687 0.4344 0.0005
vt 0.7937 0.3285 0.9995
vt 0.7997 0.3237 0.9995
vt 0.7997 0.4001 0.9995
vt 0.7870 0.3317 0.9995
vt 0.7281 0.2063 0.9995
vt 0.7233 0.2003 0.9995
vt 0.7997 0.2003 0.9995
vt 0.7313 0.2130 0.9995
vt 0.7997 0.2767 0.9995
vt 0.7937 0.2719 0.9995
vt 0.7870 0.2687 0.9995
vt 0.5999 0.2003 0.9995
vt 0.6763 0.2003 0.9995
vt 0.6715 0.2063 0.9995
vt 0.6683 0.2130 0.9995
vt 0.7798 0.2671 0.9995
vt 0.7329 0.2202 0.9995
vt 0.7329 0.2275 0.9995
vt 0.7725 0.2671 0.9995
vt 0.7654 0.2687 0.9995
vt 0.7313 0.2346 0.9995
vt 0.7586 0.2719 0.9995
vt 0.7281 0.2414 0.9995
vt 0.7526 0.2767 0.9995
vt 0.5999 0.2767 0.9995
vt 0.6667 0.2202 0.9995
vt 0.6667 0.2275 0.9995
vt 0.6683 0.2346 0.9995
vt 0.7233 0.4001 0.9995
vt 0.7798 0.3333 0.9995
vt 0.7725 0.3333 0.9995
vt 0.7654 0.3317 0.9995
vt 0.7233 0.2474 0.9995
vt 0.7173 0.2522 0.9995
vt 0.6715 0.2414 0.9995
vt 0.6763 0.2474 0.9995
vt 0.7586 0.3285 0.9995
vt 0.7526 0.3237 0.9995
vt 0.6763 0.4001 0.9995
vt 0.5999 0.4001 0.9995
vt 0.5999 0.3237 0.9995
vt 0.7478 0.2827 0.9995
vt 0.7447 0.2894 0.9995
vt 0.7106 0.2553 0.9995
vt 0.7034 0.2569 0.9995
vt 0.7478 0.3177 0.9995
vt 0.7447 0.3110 0.9995
vt 0.6823 0.2522 0.9995
vt 0.6890 0.2553 0.9995
vt 0.7431 0.2966 0.9995
vt 0.7431 0.3038 0.9995
vt 0.6962 0.2569 0.9995
vt 0.5480 0.2827 0.9995
vt 0.5528 0.2767 0.9995
vt 0.5588 0.2719 0.9995
vt 0.5656 0.2687 0.9995
vt 0.5449 0.2894 0.9995
vt 0.5433 0.2966 0.9995
vt 0.5727 0.2671 0.9995
vt 0.5433 0.3038 0.9995
vt 0.5800 0.2671 0.9995
vt 0.5449 0.3110 0.9995
vt 0.5480 0.3177 0.9995
vt 0.5528 0.3237 0.9995
vt 0.5588 0.3285 0.9995
vt 0.5656 0.3317 0.9995
vt 0.5727 0.3333 0.9995
vt 0.5800 0.3333 0.9995
vt 0.5872 0.3317 0.9995
vt 0.5939 0.3285 0.9995
vt 0.5872 0.2687 0.9995
vt 0.5939 0.2719 0.9995
vt 0.6715 0.4061 0.9995
vt 0.7281 0.4061 0.9995
vt 0.7313 0.4128 0.9995
vt 0.6683 0.4128 0.9995
vt 0.6667 0.4200 0.9995
vt 0.7329 0.4200 0.9995
vt 0.6667 0.4273 0.9995
vt 0.7329 0.4273 0.9995
vt 0.6683 0.4344 0.9995
vt 0.6715 0.4412 0.9995
vt 0.6763 0.4472 0.9995
vt 0.6823 0.4520 0.9995
vt 0.6890 0.4551 0.9995
vt 0.6962 0.4567 0.9995
vt 0.7034 0.4567 0.9995
vt 0.7106 0.4551 0.9995
vt 0.7173 0.4520 0.9995
vt 0.7233 0.4472 0.9995
vt 0.7281 0.4412 0.9995
vt 0.7313 0.4344 0.9995
# 408 texture coords

g 图形019
usemtl Material__25
s 1
f 1/1/1 2/2/1 3/3/1 4/4/1 
s 4
f 2/5/2 5/6/3 6/7/3 3/8/2 
f 5/6/3 7/9/4 8/10/4 6/7/3 
f 7/9/4 9/11/5 10/12/5 8/10/4 
f 9/11/5 11/13/6 12/14/6 10/12/5 
f 11/13/6 13/15/7 14/16/7 12/14/6 
f 13/15/7 15/17/8 16/18/8 14/16/7 
f 15/17/8 17/19/9 18/20/9 16/18/8 
f 17/21/9 19/22/10 20/23/10 18/24/9 
f 19/22/10 21/25/11 22/26/11 20/23/10 
f 21/25/11 23/27/12 24/28/12 22/26/11 
f 23/27/12 25/29/13 26/30/13 24/28/12 
f 25/29/13 27/31/14 28/32/14 26/30/13 
f 27/31/14 29/33/15 30/34/15 28/32/14 
f 29/33/15 31/35/16 32/36/16 30/34/15 
f 31/37/16 33/38/17 34/39/17 32/40/16 
f 33/38/17 35/41/18 36/42/18 34/39/17 
f 35/41/18 37/43/19 38/44/19 36/42/18 
f 37/43/19 39/45/20 40/46/20 38/44/19 
f 39/45/20 41/47/21 42/48/21 40/46/20 
f 41/47/21 43/49/22 44/50/22 42/48/21 
f 43/49/22 45/51/23 46/52/23 44/50/22 
s 2
f 45/53/1 47/54/1 48/55/1 46/56/1 
s 4
f 47/57/24 49/58/24 50/59/24 48/60/24 
s 2
f 49/61/25 51/62/10 52/63/10 50/64/25 
f 51/62/10 53/65/11 54/66/11 52/63/10 
f 53/65/11 55/67/12 56/68/12 54/66/11 
f 55/67/12 57/69/13 58/70/13 56/68/12 
f 57/69/13 59/71/14 60/72/14 58/70/13 
f 59/71/14 61/73/15 62/74/15 60/72/14 
f 61/73/15 63/75/16 64/76/16 62/74/15 
f 63/77/16 65/78/17 66/79/17 64/80/16 
f 65/78/17 67/81/18 68/82/18 66/79/17 
f 67/81/18 69/83/19 70/84/19 68/82/18 
f 69/83/19 71/85/20 72/86/20 70/84/19 
f 71/85/20 73/87/21 74/88/21 72/86/20 
f 73/87/21 75/89/22 76/90/22 74/88/21 
f 75/89/22 77/91/26 78/92/26 76/90/22 
f 77/93/26 79/94/27 80/95/27 78/96/26 
f 79/94/27 81/97/28 82/98/28 80/95/27 
f 81/97/28 83/99/29 84/100/29 82/98/28 
f 83/99/29 85/101/30 86/102/30 84/100/29 
f 85/101/30 87/103/31 88/104/31 86/102/30 
f 87/103/31 89/105/32 90/106/32 88/104/31 
f 89/105/32 91/107/33 92/108/33 90/106/32 
s 4
f 91/109/24 93/110/24 94/111/24 92/112/24 
s 2
f 93/113/34 95/114/34 96/115/34 94/116/34 
s 4
f 95/117/35 97/118/8 98/119/8 96/120/35 
f 97/118/8 99/121/7 100/122/7 98/119/8 
f 99/121/7 101/123/6 102/124/6 100/122/7 
f 101/123/6 103/125/5 104/126/5 102/124/6 
f 103/125/5 105/127/4 106/128/4 104/126/5 
f 105/127/4 107/129/3 108/130/3 106/128/4 
f 107/129/3 109/131/36 110/132/36 108/130/3 
f 109/133/36 111/134/32 112/135/32 110/136/36 
f 111/134/32 113/137/31 114/138/31 112/135/32 
f 113/137/31 115/139/30 116/140/30 114/138/31 
f 115/139/30 117/141/29 118/142/29 116/140/30 
f 117/141/29 119/143/28 120/144/28 118/142/29 
f 119/143/28 121/145/27 122/146/27 120/144/28 
f 121/145/27 123/147/26 124/148/26 122/146/27 
f 123/149/26 125/150/22 126/151/22 124/152/26 
f 125/150/22 127/153/21 128/154/21 126/151/22 
f 127/153/21 129/155/20 130/156/20 128/154/21 
f 129/155/20 131/157/19 132/158/19 130/156/20 
f 131/157/19 133/159/18 134/160/18 132/158/19 
f 133/159/18 135/161/17 136/162/17 134/160/18 
f 135/161/17 137/163/37 138/164/37 136/162/17 
s 2
f 137/165/34 139/166/34 140/167/34 138/168/34 
s 4
f 139/169/38 141/170/38 142/171/38 140/172/38 
s 2
f 141/173/39 143/174/15 144/175/15 142/176/39 
f 143/174/15 145/177/14 146/178/14 144/175/15 
f 145/177/14 147/179/13 148/180/13 146/178/14 
f 147/179/13 149/181/12 150/182/12 148/180/13 
f 149/181/12 151/183/11 152/184/11 150/182/12 
f 151/183/11 153/185/10 154/186/10 152/184/11 
f 153/185/10 155/187/9 156/188/9 154/186/10 
f 155/189/9 157/190/8 158/191/8 156/192/9 
f 157/190/8 159/193/7 160/194/7 158/191/8 
f 159/193/7 161/195/6 162/196/6 160/194/7 
f 161/195/6 163/197/5 164/198/5 162/196/6 
f 163/197/5 165/199/4 166/200/4 164/198/5 
f 165/199/4 167/201/3 168/202/3 166/200/4 
f 167/201/3 169/203/36 170/204/36 168/202/3 
f 169/205/36 171/206/32 172/207/32 170/208/36 
f 171/206/32 173/209/31 174/210/31 172/207/32 
f 173/209/31 175/211/30 176/212/30 174/210/31 
f 175/211/30 177/213/29 178/214/29 176/212/30 
f 177/213/29 179/215/28 180/216/28 178/214/29 
f 179/215/28 181/217/27 182/218/27 180/216/28 
f 181/217/27 183/219/40 184/220/40 182/218/27 
s 4
f 183/221/38 1/222/38 4/223/38 184/224/38 
s 16
f 181/225/41 179/226/41 1/227/41 183/228/41 
f 135/229/41 133/230/41 139/231/41 137/232/41 
f 139/231/41 145/233/41 143/234/41 141/235/41 
f 93/236/41 99/237/41 97/238/41 95/239/41 
f 133/230/41 147/240/41 145/233/41 139/231/41 
f 131/241/41 129/242/41 147/240/41 133/230/41 
f 129/242/41 151/243/41 149/244/41 147/240/41 
f 127/245/41 153/246/41 151/243/41 129/242/41 
f 125/247/41 155/248/41 153/246/41 127/245/41 
f 91/249/41 101/250/41 99/237/41 93/236/41 
f 91/249/41 105/251/41 103/252/41 101/250/41 
f 179/226/41 177/253/41 2/254/41 1/227/41 
f 175/255/41 173/256/41 2/254/41 177/253/41 
f 123/257/41 121/258/41 155/248/41 125/247/41 
f 91/249/41 109/259/41 107/260/41 105/251/41 
f 171/261/41 169/262/41 2/254/41 173/256/41 
f 45/263/41 2/254/41 49/264/41 47/265/41 
f 121/258/41 159/266/41 157/267/41 155/248/41 
f 119/268/41 117/269/41 159/266/41 121/258/41 
f 167/270/41 165/271/41 2/254/41 169/262/41 
f 91/249/41 113/272/41 111/273/41 109/259/41 
f 117/269/41 163/274/41 161/275/41 159/266/41 
f 115/276/41 113/272/41 163/274/41 117/269/41 
f 91/249/41 165/271/41 163/274/41 113/272/41 
f 91/249/41 49/264/41 2/254/41 165/271/41 
f 75/277/41 81/278/41 79/279/41 77/280/41 
f 73/281/41 71/282/41 81/278/41 75/277/41 
f 71/282/41 69/283/41 83/284/41 81/278/41 
f 69/283/41 67/285/41 85/286/41 83/284/41 
f 65/287/41 63/288/41 85/286/41 67/285/41 
f 61/289/41 59/290/41 85/286/41 63/288/41 
f 57/291/41 55/292/41 85/286/41 59/290/41 
f 53/293/41 51/294/41 85/286/41 55/292/41 
f 49/264/41 87/295/41 85/286/41 51/294/41 
f 49/264/41 91/249/41 89/296/41 87/295/41 
f 43/297/41 5/298/41 2/254/41 45/263/41 
f 43/297/41 41/299/41 7/300/41 5/298/41 
f 39/301/41 9/302/41 7/300/41 41/299/41 
f 37/303/41 11/304/41 9/302/41 39/301/41 
f 35/305/41 33/306/41 11/304/41 37/303/41 
f 31/307/41 29/308/41 11/304/41 33/306/41 
f 27/309/41 25/310/41 11/304/41 29/308/41 
f 23/311/41 21/312/41 11/304/41 25/310/41 
f 19/313/41 17/314/41 11/304/41 21/312/41 
f 15/315/41 13/316/41 11/304/41 17/314/41 
f 182/317/42 184/318/42 4/319/42 180/320/42 
f 136/321/42 138/322/42 140/323/42 134/324/42 
f 140/323/42 142/325/42 144/326/42 146/327/42 
f 94/328/42 96/329/42 98/330/42 100/331/42 
f 134/324/42 140/323/42 146/327/42 148/332/42 
f 132/333/42 134/324/42 148/332/42 130/334/42 
f 130/334/42 148/332/42 150/335/42 152/336/42 
f 128/337/42 130/334/42 152/336/42 154/338/42 
f 126/339/42 128/337/42 154/338/42 156/340/42 
f 92/341/42 94/328/42 100/331/42 102/342/42 
f 92/341/42 102/342/42 104/343/42 106/344/42 
f 180/320/42 4/319/42 3/345/42 178/346/42 
f 176/347/42 178/346/42 3/345/42 174/348/42 
f 124/349/42 126/339/42 156/340/42 122/350/42 
f 92/341/42 106/344/42 108/351/42 110/352/42 
f 172/353/42 174/348/42 3/345/42 170/354/42 
f 46/355/42 48/356/42 50/357/42 3/345/42 
f 122/350/42 156/340/42 158/358/42 160/359/42 
f 120/360/42 122/350/42 160/359/42 118/361/42 
f 168/362/42 170/354/42 3/345/42 166/363/42 
f 92/341/42 110/352/42 112/364/42 114/365/42 
f 118/361/42 160/359/42 162/366/42 164/367/42 
f 116/368/42 118/361/42 164/367/42 114/365/42 
f 92/341/42 114/365/42 164/367/42 166/363/42 
f 92/341/42 166/363/42 3/345/42 50/357/42 
f 76/369/42 78/370/42 80/371/42 82/372/42 
f 74/373/42 76/369/42 82/372/42 72/374/42 
f 72/374/42 82/372/42 84/375/42 70/376/42 
f 70/376/42 84/375/42 86/377/42 68/378/42 
f 66/379/42 68/378/42 86/377/42 64/380/42 
f 62/381/42 64/380/42 86/377/42 60/382/42 
f 58/383/42 60/382/42 86/377/42 56/384/42 
f 54/385/42 56/384/42 86/377/42 52/386/42 
f 50/357/42 52/386/42 86/377/42 88/387/42 
f 50/357/42 88/387/42 90/388/42 92/341/42 
f 44/389/42 46/355/42 3/345/42 6/390/42 
f 44/389/42 6/390/42 8/391/42 42/392/42 
f 40/393/42 42/392/42 8/391/42 10/394/42 
f 38/395/42 40/393/42 10/394/42 12/396/42 
f 36/397/42 38/395/42 12/396/42 34/398/42 
f 32/399/42 34/398/42 12/396/42 30/400/42 
f 28/401/42 30/400/42 12/396/42 26/402/42 
f 24/403/42 26/402/42 12/396/42 22/404/42 
f 20/405/42 22/404/42 12/396/42 18/406/42 
f 16/407/42 18/406/42 12/396/42 14/408/42 
# 182 polygons

