# 3ds Max Wavefront OBJ Exporter v0.97b - (c)2007 guruware
# 创建的文件:31.08.2017 12:28:01

mtllib board_1_6.mtl

#
# object 图形025
#

v  225.5948 0.0000 135.0000
v  214.1304 0.0000 135.0000
v  214.1304 5.0000 135.0000
v  225.5948 5.0000 135.0000
v  214.8472 0.0000 135.9037
v  214.8472 5.0000 135.9037
v  215.3251 0.0000 136.9138
v  215.3251 5.0000 136.9138
v  215.5640 0.0000 137.9879
v  215.5640 5.0000 137.9879
v  215.5640 0.0000 139.0832
v  215.5640 5.0000 139.0832
v  215.3251 0.0000 140.1572
v  215.3251 5.0000 140.1572
v  214.8472 0.0000 141.1674
v  214.8472 5.0000 141.1674
v  214.1304 0.0000 142.0711
v  214.1304 5.0000 142.0711
v  213.2267 0.0000 142.7879
v  213.2267 5.0000 142.7879
v  212.2165 0.0000 143.2657
v  212.2165 5.0000 143.2657
v  211.1425 0.0000 143.5047
v  211.1425 5.0000 143.5047
v  210.0472 0.0000 143.5047
v  210.0472 5.0000 143.5047
v  208.9732 0.0000 143.2657
v  208.9732 5.0000 143.2657
v  207.9630 0.0000 142.7879
v  207.9630 5.0000 142.7879
v  207.0593 0.0000 142.0711
v  207.0593 5.0000 142.0711
v  206.3425 0.0000 141.1674
v  206.3425 5.0000 141.1674
v  205.8646 0.0000 140.1572
v  205.8646 5.0000 140.1572
v  205.6257 0.0000 139.0832
v  205.6257 5.0000 139.0832
v  205.6257 0.0000 137.9879
v  205.6257 5.0000 137.9879
v  205.8646 0.0000 136.9138
v  205.8646 5.0000 136.9138
v  206.3425 0.0000 135.9037
v  206.3425 5.0000 135.9037
v  207.0593 0.0000 135.0000
v  207.0593 5.0000 135.0000
v  195.5948 0.0000 135.0000
v  195.5948 5.0000 135.0000
v  195.5948 0.0000 146.4645
v  195.5948 5.0000 146.4645
v  194.6911 0.0000 145.7477
v  194.6911 5.0000 145.7477
v  193.6810 0.0000 145.2698
v  193.6810 5.0000 145.2698
v  192.6070 0.0000 145.0309
v  192.6070 5.0000 145.0309
v  191.5117 0.0000 145.0309
v  191.5117 5.0000 145.0309
v  190.4376 0.0000 145.2698
v  190.4376 5.0000 145.2698
v  189.4275 0.0000 145.7477
v  189.4275 5.0000 145.7477
v  188.5238 0.0000 146.4645
v  188.5238 5.0000 146.4645
v  187.8070 0.0000 147.3682
v  187.8070 5.0000 147.3682
v  187.3291 0.0000 148.3783
v  187.3291 5.0000 148.3783
v  187.0902 0.0000 149.4523
v  187.0902 5.0000 149.4523
v  187.0902 0.0000 150.5477
v  187.0902 5.0000 150.5477
v  187.3291 0.0000 151.6217
v  187.3291 5.0000 151.6217
v  187.8070 0.0000 152.6318
v  187.8070 5.0000 152.6318
v  188.5238 0.0000 153.5355
v  188.5238 5.0000 153.5355
v  189.4275 0.0000 154.2523
v  189.4275 5.0000 154.2523
v  190.4376 0.0000 154.7302
v  190.4376 5.0000 154.7302
v  191.5117 0.0000 154.9691
v  191.5117 5.0000 154.9691
v  192.6070 0.0000 154.9691
v  192.6070 5.0000 154.9691
v  193.6810 0.0000 154.7302
v  193.6810 5.0000 154.7302
v  194.6911 0.0000 154.2523
v  194.6911 5.0000 154.2523
v  195.5948 0.0000 153.5355
v  195.5948 5.0000 153.5355
v  195.5948 0.0000 165.0000
v  195.5948 5.0000 165.0000
v  225.5948 0.0000 165.0000
v  225.5948 5.0000 165.0000
# 96 vertices

vn 0.0000 0.0000 -1.0000
vn -0.7835 0.0000 0.6214
vn -0.8493 0.0000 0.5280
vn -0.9459 0.0000 0.3244
vn -0.9940 0.0000 0.1092
vn -0.9940 0.0000 -0.1092
vn -0.9459 0.0000 -0.3244
vn -0.8493 0.0000 -0.5280
vn -0.7071 0.0000 -0.7071
vn -0.5280 0.0000 -0.8493
vn -0.3244 0.0000 -0.9459
vn -0.1092 0.0000 -0.9940
vn 0.1092 0.0000 -0.9940
vn 0.3244 0.0000 -0.9459
vn 0.5280 0.0000 -0.8493
vn 0.7071 0.0000 -0.7071
vn 0.8493 0.0000 -0.5280
vn 0.9459 0.0000 -0.3244
vn 0.9940 0.0000 -0.1092
vn 0.9940 0.0000 0.1092
vn 0.9459 0.0000 0.3244
vn 0.8493 0.0000 0.5280
vn 0.7835 0.0000 0.6214
vn -1.0000 0.0000 -0.0000
vn 0.6214 0.0000 -0.7835
vn -0.7071 0.0000 0.7071
vn -0.5280 0.0000 0.8493
vn -0.3244 0.0000 0.9459
vn -0.1092 0.0000 0.9940
vn 0.1092 0.0000 0.9940
vn 0.3244 0.0000 0.9459
vn 0.5280 0.0000 0.8493
vn 0.6214 0.0000 0.7835
vn 0.0000 0.0000 1.0000
vn 1.0000 0.0000 -0.0000
vn 0.0000 -1.0000 -0.0000
vn 0.0000 1.0000 -0.0000
# 37 vertex normals

vt 0.0005 0.0005 0.2003
vt 0.0769 0.0005 0.2003
vt 0.0769 0.9995 0.2003
vt 0.0005 0.9995 0.2003
vt 0.7997 0.0005 0.9231
vt 0.8057 0.0005 0.9279
vt 0.8057 0.9995 0.9279
vt 0.7997 0.9995 0.9231
vt 0.8124 0.0005 0.9311
vt 0.8124 0.9995 0.9311
vt 0.8196 0.0005 0.9327
vt 0.8196 0.9995 0.9327
vt 0.8269 0.0005 0.9327
vt 0.8269 0.9995 0.9327
vt 0.8340 0.0005 0.9311
vt 0.8340 0.9995 0.9311
vt 0.8408 0.0005 0.9279
vt 0.8408 0.9995 0.9279
vt 0.8468 0.0005 0.9231
vt 0.8468 0.9995 0.9231
vt 0.0769 0.0005 0.1532
vt 0.0829 0.0005 0.1484
vt 0.0829 0.9995 0.1484
vt 0.0769 0.9995 0.1532
vt 0.0896 0.0005 0.1452
vt 0.0896 0.9995 0.1452
vt 0.0968 0.0005 0.1437
vt 0.0968 0.9995 0.1437
vt 0.1040 0.0005 0.1437
vt 0.1040 0.9995 0.1437
vt 0.1112 0.0005 0.1452
vt 0.1112 0.9995 0.1452
vt 0.1179 0.0005 0.1484
vt 0.1179 0.9995 0.1484
vt 0.1239 0.0005 0.1532
vt 0.1239 0.9995 0.1532
vt 0.1532 0.0005 0.8761
vt 0.1592 0.0005 0.8713
vt 0.1592 0.9995 0.8713
vt 0.1532 0.9995 0.8761
vt 0.1660 0.0005 0.8681
vt 0.1660 0.9995 0.8681
vt 0.1731 0.0005 0.8665
vt 0.1731 0.9995 0.8665
vt 0.1804 0.0005 0.8665
vt 0.1804 0.9995 0.8665
vt 0.1876 0.0005 0.8681
vt 0.1876 0.9995 0.8681
vt 0.1943 0.0005 0.8713
vt 0.1943 0.9995 0.8713
vt 0.2003 0.0005 0.8761
vt 0.2003 0.9995 0.8761
vt 0.1239 0.0005 0.2003
vt 0.2003 0.0005 0.2003
vt 0.2003 0.9995 0.2003
vt 0.1239 0.9995 0.2003
vt 0.7997 0.0005 0.7997
vt 0.8761 0.0005 0.7997
vt 0.8761 0.9995 0.7997
vt 0.7997 0.9995 0.7997
vt 0.2003 0.0005 0.1239
vt 0.2063 0.0005 0.1287
vt 0.2063 0.9995 0.1287
vt 0.2003 0.9995 0.1239
vt 0.2130 0.0005 0.1319
vt 0.2130 0.9995 0.1319
vt 0.2202 0.0005 0.1335
vt 0.2202 0.9995 0.1335
vt 0.2275 0.0005 0.1335
vt 0.2275 0.9995 0.1335
vt 0.2346 0.0005 0.1319
vt 0.2346 0.9995 0.1319
vt 0.2414 0.0005 0.1287
vt 0.2414 0.9995 0.1287
vt 0.2474 0.0005 0.1239
vt 0.2474 0.9995 0.1239
vt 0.8761 0.0005 0.7526
vt 0.8821 0.0005 0.7478
vt 0.8821 0.9995 0.7478
vt 0.8761 0.9995 0.7526
vt 0.8888 0.0005 0.7447
vt 0.8888 0.9995 0.7447
vt 0.8960 0.0005 0.7431
vt 0.8960 0.9995 0.7431
vt 0.9032 0.0005 0.7431
vt 0.9032 0.9995 0.7431
vt 0.9104 0.0005 0.7447
vt 0.9104 0.9995 0.7447
vt 0.9171 0.0005 0.7478
vt 0.9171 0.9995 0.7478
vt 0.9231 0.0005 0.7526
vt 0.9231 0.9995 0.7526
vt 0.7526 0.0005 0.0769
vt 0.7586 0.0005 0.0721
vt 0.7586 0.9995 0.0721
vt 0.7526 0.9995 0.0769
vt 0.7654 0.0005 0.0689
vt 0.7654 0.9995 0.0689
vt 0.7725 0.0005 0.0673
vt 0.7725 0.9995 0.0673
vt 0.7798 0.0005 0.0673
vt 0.7798 0.9995 0.0673
vt 0.7870 0.0005 0.0689
vt 0.7870 0.9995 0.0689
vt 0.7937 0.0005 0.0721
vt 0.7937 0.9995 0.0721
vt 0.7997 0.0005 0.0769
vt 0.7997 0.9995 0.0769
vt 0.9231 0.0005 0.7997
vt 0.9995 0.0005 0.7997
vt 0.9995 0.9995 0.7997
vt 0.9231 0.9995 0.7997
vt 0.7997 0.0005 0.0005
vt 0.9995 0.0005 0.0005
vt 0.9995 0.9995 0.0005
vt 0.7997 0.9995 0.0005
vt 0.0005 0.0005 0.9995
vt 0.2003 0.0005 0.9995
vt 0.2003 0.9995 0.9995
vt 0.0005 0.9995 0.9995
vt 0.1287 0.1943 0.0005
vt 0.1319 0.1876 0.0005
vt 0.2003 0.2003 0.0005
vt 0.1239 0.2003 0.0005
vt 0.0005 0.2003 0.0005
vt 0.0689 0.1876 0.0005
vt 0.0721 0.1943 0.0005
vt 0.0769 0.2003 0.0005
vt 0.0005 0.0005 0.0005
vt 0.0673 0.1804 0.0005
vt 0.0689 0.1660 0.0005
vt 0.0673 0.1731 0.0005
vt 0.0769 0.1532 0.0005
vt 0.0721 0.1592 0.0005
vt 0.2003 0.0005 0.0005
vt 0.0829 0.1484 0.0005
vt 0.2003 0.0769 0.0005
vt 0.0896 0.1452 0.0005
vt 0.1040 0.1437 0.0005
vt 0.0968 0.1437 0.0005
vt 0.1179 0.1484 0.0005
vt 0.1112 0.1452 0.0005
vt 0.1287 0.1592 0.0005
vt 0.1239 0.1532 0.0005
vt 0.1335 0.1804 0.0005
vt 0.2003 0.1239 0.0005
vt 0.1335 0.1731 0.0005
vt 0.1319 0.1660 0.0005
vt 0.2063 0.0721 0.0005
vt 0.2063 0.1287 0.0005
vt 0.2130 0.0689 0.0005
vt 0.2130 0.1319 0.0005
vt 0.2202 0.0673 0.0005
vt 0.2202 0.1335 0.0005
vt 0.2275 0.0673 0.0005
vt 0.2275 0.1335 0.0005
vt 0.2346 0.0689 0.0005
vt 0.2414 0.0721 0.0005
vt 0.2474 0.0769 0.0005
vt 0.2522 0.0829 0.0005
vt 0.2553 0.0896 0.0005
vt 0.2569 0.0968 0.0005
vt 0.2569 0.1040 0.0005
vt 0.2553 0.1112 0.0005
vt 0.2522 0.1179 0.0005
vt 0.2474 0.1239 0.0005
vt 0.2414 0.1287 0.0005
vt 0.2346 0.1319 0.0005
vt 0.8713 0.1943 0.9995
vt 0.8761 0.2003 0.9995
vt 0.7997 0.2003 0.9995
vt 0.8681 0.1876 0.9995
vt 0.9995 0.2003 0.9995
vt 0.9231 0.2003 0.9995
vt 0.9279 0.1943 0.9995
vt 0.9311 0.1876 0.9995
vt 0.9995 0.0005 0.9995
vt 0.9327 0.1804 0.9995
vt 0.9327 0.1731 0.9995
vt 0.9311 0.1660 0.9995
vt 0.9279 0.1592 0.9995
vt 0.9231 0.1532 0.9995
vt 0.7997 0.0005 0.9995
vt 0.9171 0.1484 0.9995
vt 0.9104 0.1452 0.9995
vt 0.7997 0.0769 0.9995
vt 0.9032 0.1437 0.9995
vt 0.8960 0.1437 0.9995
vt 0.8888 0.1452 0.9995
vt 0.8821 0.1484 0.9995
vt 0.8761 0.1532 0.9995
vt 0.8713 0.1592 0.9995
vt 0.7997 0.1239 0.9995
vt 0.8665 0.1804 0.9995
vt 0.8665 0.1731 0.9995
vt 0.8681 0.1660 0.9995
vt 0.7937 0.0721 0.9995
vt 0.7937 0.1287 0.9995
vt 0.7870 0.1319 0.9995
vt 0.7870 0.0689 0.9995
vt 0.7798 0.0673 0.9995
vt 0.7798 0.1335 0.9995
vt 0.7725 0.0673 0.9995
vt 0.7725 0.1335 0.9995
vt 0.7654 0.0689 0.9995
vt 0.7586 0.0721 0.9995
vt 0.7526 0.0769 0.9995
vt 0.7478 0.0829 0.9995
vt 0.7447 0.0896 0.9995
vt 0.7431 0.0968 0.9995
vt 0.7431 0.1040 0.9995
vt 0.7447 0.1112 0.9995
vt 0.7478 0.1179 0.9995
vt 0.7526 0.1239 0.9995
vt 0.7586 0.1287 0.9995
vt 0.7654 0.1319 0.9995
# 216 texture coords

g 图形025
usemtl Material__25
s 1
f 1/1/1 2/2/1 3/3/1 4/4/1 
s 4
f 2/5/2 5/6/3 6/7/3 3/8/2 
f 5/6/3 7/9/4 8/10/4 6/7/3 
f 7/9/4 9/11/5 10/12/5 8/10/4 
f 9/11/5 11/13/6 12/14/6 10/12/5 
f 11/13/6 13/15/7 14/16/7 12/14/6 
f 13/15/7 15/17/8 16/18/8 14/16/7 
f 15/17/8 17/19/9 18/20/9 16/18/8 
f 17/21/9 19/22/10 20/23/10 18/24/9 
f 19/22/10 21/25/11 22/26/11 20/23/10 
f 21/25/11 23/27/12 24/28/12 22/26/11 
f 23/27/12 25/29/13 26/30/13 24/28/12 
f 25/29/13 27/31/14 28/32/14 26/30/13 
f 27/31/14 29/33/15 30/34/15 28/32/14 
f 29/33/15 31/35/16 32/36/16 30/34/15 
f 31/37/16 33/38/17 34/39/17 32/40/16 
f 33/38/17 35/41/18 36/42/18 34/39/17 
f 35/41/18 37/43/19 38/44/19 36/42/18 
f 37/43/19 39/45/20 40/46/20 38/44/19 
f 39/45/20 41/47/21 42/48/21 40/46/20 
f 41/47/21 43/49/22 44/50/22 42/48/21 
f 43/49/22 45/51/23 46/52/23 44/50/22 
s 2
f 45/53/1 47/54/1 48/55/1 46/56/1 
s 4
f 47/57/24 49/58/24 50/59/24 48/60/24 
s 2
f 49/61/25 51/62/15 52/63/15 50/64/25 
f 51/62/15 53/65/14 54/66/14 52/63/15 
f 53/65/14 55/67/13 56/68/13 54/66/14 
f 55/67/13 57/69/12 58/70/12 56/68/13 
f 57/69/12 59/71/11 60/72/11 58/70/12 
f 59/71/11 61/73/10 62/74/10 60/72/11 
f 61/73/10 63/75/9 64/76/9 62/74/10 
f 63/77/9 65/78/8 66/79/8 64/80/9 
f 65/78/8 67/81/7 68/82/7 66/79/8 
f 67/81/7 69/83/6 70/84/6 68/82/7 
f 69/83/6 71/85/5 72/86/5 70/84/6 
f 71/85/5 73/87/4 74/88/4 72/86/5 
f 73/87/4 75/89/3 76/90/3 74/88/4 
f 75/89/3 77/91/26 78/92/26 76/90/3 
f 77/93/26 79/94/27 80/95/27 78/96/26 
f 79/94/27 81/97/28 82/98/28 80/95/27 
f 81/97/28 83/99/29 84/100/29 82/98/28 
f 83/99/29 85/101/30 86/102/30 84/100/29 
f 85/101/30 87/103/31 88/104/31 86/102/30 
f 87/103/31 89/105/32 90/106/32 88/104/31 
f 89/105/32 91/107/33 92/108/33 90/106/32 
s 4
f 91/109/24 93/110/24 94/111/24 92/112/24 
s 2
f 93/113/34 95/114/34 96/115/34 94/116/34 
s 4
f 95/117/35 1/118/35 4/119/35 96/120/35 
s 16
f 43/121/36 41/122/36 47/123/36 45/124/36 
f 1/125/36 7/126/36 5/127/36 2/128/36 
f 95/129/36 9/130/36 7/126/36 1/125/36 
f 95/129/36 13/131/36 11/132/36 9/130/36 
f 95/129/36 17/133/36 15/134/36 13/131/36 
f 93/135/36 19/136/36 17/133/36 95/129/36 
f 93/135/36 91/137/36 21/138/36 19/136/36 
f 91/137/36 25/139/36 23/140/36 21/138/36 
f 91/137/36 29/141/36 27/142/36 25/139/36 
f 91/137/36 33/143/36 31/144/36 29/141/36 
f 41/122/36 39/145/36 49/146/36 47/123/36 
f 37/147/36 35/148/36 49/146/36 39/145/36 
f 33/143/36 91/137/36 49/146/36 35/148/36 
f 89/149/36 51/150/36 49/146/36 91/137/36 
f 89/149/36 87/151/36 53/152/36 51/150/36 
f 85/153/36 55/154/36 53/152/36 87/151/36 
f 83/155/36 57/156/36 55/154/36 85/153/36 
f 81/157/36 79/158/36 57/156/36 83/155/36 
f 77/159/36 75/160/36 57/156/36 79/158/36 
f 73/161/36 71/162/36 57/156/36 75/160/36 
f 69/163/36 67/164/36 57/156/36 71/162/36 
f 65/165/36 63/166/36 57/156/36 67/164/36 
f 61/167/36 59/168/36 57/156/36 63/166/36 
f 44/169/37 46/170/37 48/171/37 42/172/37 
f 4/173/37 3/174/37 6/175/37 8/176/37 
f 96/177/37 4/173/37 8/176/37 10/178/37 
f 96/177/37 10/178/37 12/179/37 14/180/37 
f 96/177/37 14/180/37 16/181/37 18/182/37 
f 94/183/37 96/177/37 18/182/37 20/184/37 
f 94/183/37 20/184/37 22/185/37 92/186/37 
f 92/186/37 22/185/37 24/187/37 26/188/37 
f 92/186/37 26/188/37 28/189/37 30/190/37 
f 92/186/37 30/190/37 32/191/37 34/192/37 
f 42/172/37 48/171/37 50/193/37 40/194/37 
f 38/195/37 40/194/37 50/193/37 36/196/37 
f 34/192/37 36/196/37 50/193/37 92/186/37 
f 90/197/37 92/186/37 50/193/37 52/198/37 
f 90/197/37 52/198/37 54/199/37 88/200/37 
f 86/201/37 88/200/37 54/199/37 56/202/37 
f 84/203/37 86/201/37 56/202/37 58/204/37 
f 82/205/37 84/203/37 58/204/37 80/206/37 
f 78/207/37 80/206/37 58/204/37 76/208/37 
f 74/209/37 76/208/37 58/204/37 72/210/37 
f 70/211/37 72/210/37 58/204/37 68/212/37 
f 66/213/37 68/212/37 58/204/37 64/214/37 
f 62/215/37 64/214/37 58/204/37 60/216/37 
# 94 polygons

