# 3ds Max Wavefront OBJ Exporter v0.97b - (c)2007 guruware
# 创建的文件:31.08.2017 11:20:49

mtllib board_3_1.mtl

#
# object 图形003
#

v  45.0000 0.0000 75.0000
v  33.5355 0.0000 75.0000
v  33.5355 5.0000 75.0000
v  45.0000 5.0000 75.0000
v  34.2523 0.0000 74.0963
v  34.2523 5.0000 74.0963
v  34.7302 0.0000 73.0862
v  34.7302 5.0000 73.0862
v  34.9692 0.0000 72.0121
v  34.9692 5.0000 72.0121
v  34.9692 0.0000 70.9168
v  34.9692 5.0000 70.9168
v  34.7302 0.0000 69.8428
v  34.7302 5.0000 69.8428
v  34.2523 0.0000 68.8326
v  34.2523 5.0000 68.8326
v  33.5355 0.0000 67.9289
v  33.5355 5.0000 67.9289
v  32.6318 0.0000 67.2121
v  32.6318 5.0000 67.2121
v  31.6217 0.0000 66.7343
v  31.6217 5.0000 66.7343
v  30.5477 0.0000 66.4953
v  30.5477 5.0000 66.4953
v  29.4523 0.0000 66.4953
v  29.4523 5.0000 66.4953
v  28.3783 0.0000 66.7342
v  28.3783 5.0000 66.7342
v  27.3682 0.0000 67.2121
v  27.3682 5.0000 67.2121
v  26.4645 0.0000 67.9289
v  26.4645 5.0000 67.9289
v  25.7477 0.0000 68.8326
v  25.7477 5.0000 68.8326
v  25.2698 0.0000 69.8428
v  25.2698 5.0000 69.8428
v  25.0308 0.0000 70.9168
v  25.0308 5.0000 70.9168
v  25.0308 0.0000 72.0121
v  25.0308 5.0000 72.0121
v  25.2698 0.0000 73.0862
v  25.2698 5.0000 73.0862
v  25.7477 0.0000 74.0963
v  25.7477 5.0000 74.0963
v  26.4645 0.0000 75.0000
v  26.4645 5.0000 75.0000
v  15.0000 0.0000 75.0000
v  15.0000 5.0000 75.0000
v  15.0000 0.0000 105.0000
v  15.0000 5.0000 105.0000
v  26.4645 0.0000 105.0000
v  26.4645 5.0000 105.0000
v  25.7477 0.0000 104.0963
v  25.7477 5.0000 104.0963
v  25.2698 0.0000 103.0862
v  25.2698 5.0000 103.0862
v  25.0308 0.0000 102.0121
v  25.0308 5.0000 102.0121
v  25.0308 0.0000 100.9168
v  25.0308 5.0000 100.9168
v  25.2698 0.0000 99.8428
v  25.2698 5.0000 99.8428
v  25.7477 0.0000 98.8326
v  25.7477 5.0000 98.8326
v  26.4645 0.0000 97.9289
v  26.4645 5.0000 97.9289
v  27.3682 0.0000 97.2121
v  27.3682 5.0000 97.2121
v  28.3783 0.0000 96.7343
v  28.3783 5.0000 96.7343
v  29.4523 0.0000 96.4953
v  29.4523 5.0000 96.4953
v  30.5477 0.0000 96.4953
v  30.5477 5.0000 96.4953
v  31.6217 0.0000 96.7343
v  31.6217 5.0000 96.7343
v  32.6318 0.0000 97.2121
v  32.6318 5.0000 97.2121
v  33.5355 0.0000 97.9289
v  33.5355 5.0000 97.9289
v  34.2523 0.0000 98.8326
v  34.2523 5.0000 98.8326
v  34.7302 0.0000 99.8428
v  34.7302 5.0000 99.8428
v  34.9692 0.0000 100.9168
v  34.9692 5.0000 100.9168
v  34.9692 0.0000 102.0121
v  34.9692 5.0000 102.0121
v  34.7302 0.0000 103.0862
v  34.7302 5.0000 103.0862
v  34.2523 0.0000 104.0963
v  34.2523 5.0000 104.0963
v  33.5355 0.0000 105.0000
v  33.5355 5.0000 105.0000
v  45.0000 0.0000 105.0000
v  45.0000 5.0000 105.0000
v  45.0000 0.0000 93.5355
v  45.0000 5.0000 93.5355
v  44.0963 0.0000 94.2523
v  44.0963 5.0000 94.2523
v  43.0862 0.0000 94.7302
v  43.0862 5.0000 94.7302
v  42.0121 0.0000 94.9692
v  42.0121 5.0000 94.9692
v  40.9168 0.0000 94.9692
v  40.9168 5.0000 94.9692
v  39.8428 0.0000 94.7302
v  39.8428 5.0000 94.7302
v  38.8326 0.0000 94.2523
v  38.8326 5.0000 94.2523
v  37.9289 0.0000 93.5355
v  37.9289 5.0000 93.5355
v  37.2121 0.0000 92.6318
v  37.2121 5.0000 92.6318
v  36.7342 0.0000 91.6217
v  36.7342 5.0000 91.6217
v  36.4953 0.0000 90.5477
v  36.4953 5.0000 90.5477
v  36.4953 0.0000 89.4523
v  36.4953 5.0000 89.4523
v  36.7342 0.0000 88.3783
v  36.7342 5.0000 88.3783
v  37.2121 0.0000 87.3682
v  37.2121 5.0000 87.3682
v  37.9289 0.0000 86.4645
v  37.9289 5.0000 86.4645
v  38.8326 0.0000 85.7477
v  38.8326 5.0000 85.7477
v  39.8428 0.0000 85.2698
v  39.8428 5.0000 85.2698
v  40.9168 0.0000 85.0308
v  40.9168 5.0000 85.0308
v  42.0121 0.0000 85.0308
v  42.0121 5.0000 85.0308
v  43.0862 0.0000 85.2698
v  43.0862 5.0000 85.2698
v  44.0963 0.0000 85.7477
v  44.0963 5.0000 85.7477
v  45.0000 0.0000 86.4645
v  45.0000 5.0000 86.4645
# 140 vertices

vn 0.0000 0.0000 -1.0000
vn 0.7835 0.0000 0.6214
vn 0.8493 0.0000 0.5280
vn 0.9459 0.0000 0.3244
vn 0.9940 0.0000 0.1092
vn 0.9940 0.0000 -0.1092
vn 0.9459 0.0000 -0.3244
vn 0.8493 0.0000 -0.5280
vn 0.7071 0.0000 -0.7071
vn 0.5280 0.0000 -0.8493
vn 0.3244 0.0000 -0.9459
vn 0.1092 0.0000 -0.9940
vn -0.1092 0.0000 -0.9940
vn -0.3244 0.0000 -0.9459
vn -0.5280 0.0000 -0.8493
vn -0.7071 0.0000 -0.7071
vn -0.8493 0.0000 -0.5280
vn -0.9459 0.0000 -0.3244
vn -0.9940 0.0000 -0.1092
vn -0.9940 0.0000 0.1092
vn -0.9459 0.0000 0.3244
vn -0.8493 0.0000 0.5280
vn -0.7835 0.0000 0.6214
vn -1.0000 0.0000 -0.0000
vn 0.0000 0.0000 1.0000
vn 0.7835 0.0000 -0.6214
vn 0.7071 0.0000 0.7071
vn 0.5280 0.0000 0.8493
vn 0.3244 0.0000 0.9459
vn 0.1092 0.0000 0.9940
vn -0.1092 0.0000 0.9940
vn -0.3244 0.0000 0.9459
vn -0.5280 0.0000 0.8493
vn -0.7071 0.0000 0.7071
vn -0.7835 0.0000 -0.6214
vn 1.0000 0.0000 -0.0000
vn -0.6214 0.0000 -0.7835
vn -0.6214 0.0000 0.7835
vn 0.0000 -1.0000 -0.0000
vn 0.0000 1.0000 -0.0000
# 40 vertex normals

vt 0.7997 0.0005 0.5999
vt 0.8761 0.0005 0.5999
vt 0.8761 0.9995 0.5999
vt 0.7997 0.9995 0.5999
vt 0.5999 0.0005 0.1239
vt 0.6059 0.0005 0.1287
vt 0.6059 0.9995 0.1287
vt 0.5999 0.9995 0.1239
vt 0.6126 0.0005 0.1319
vt 0.6126 0.9995 0.1319
vt 0.6198 0.0005 0.1335
vt 0.6198 0.9995 0.1335
vt 0.6271 0.0005 0.1335
vt 0.6271 0.9995 0.1335
vt 0.6342 0.0005 0.1319
vt 0.6342 0.9995 0.1319
vt 0.6410 0.0005 0.1287
vt 0.6410 0.9995 0.1287
vt 0.6470 0.0005 0.1239
vt 0.6470 0.9995 0.1239
vt 0.8761 0.0005 0.6470
vt 0.8821 0.0005 0.6518
vt 0.8821 0.9995 0.6518
vt 0.8761 0.9995 0.6470
vt 0.8888 0.0005 0.6550
vt 0.8888 0.9995 0.6550
vt 0.8960 0.0005 0.6565
vt 0.8960 0.9995 0.6565
vt 0.9032 0.0005 0.6565
vt 0.9032 0.9995 0.6565
vt 0.9104 0.0005 0.6550
vt 0.9104 0.9995 0.6550
vt 0.9171 0.0005 0.6518
vt 0.9171 0.9995 0.6518
vt 0.9231 0.0005 0.6470
vt 0.9231 0.9995 0.6470
vt 0.3530 0.0005 0.0769
vt 0.3590 0.0005 0.0721
vt 0.3590 0.9995 0.0721
vt 0.3530 0.9995 0.0769
vt 0.3658 0.0005 0.0689
vt 0.3658 0.9995 0.0689
vt 0.3729 0.0005 0.0673
vt 0.3729 0.9995 0.0673
vt 0.3802 0.0005 0.0673
vt 0.3802 0.9995 0.0673
vt 0.3874 0.0005 0.0689
vt 0.3874 0.9995 0.0689
vt 0.3941 0.0005 0.0721
vt 0.3941 0.9995 0.0721
vt 0.4001 0.0005 0.0769
vt 0.4001 0.9995 0.0769
vt 0.9231 0.0005 0.5999
vt 0.9995 0.0005 0.5999
vt 0.9995 0.9995 0.5999
vt 0.9231 0.9995 0.5999
vt 0.4001 0.0005 0.0005
vt 0.5999 0.0005 0.0005
vt 0.5999 0.9995 0.0005
vt 0.4001 0.9995 0.0005
vt 0.0005 0.0005 0.4001
vt 0.0769 0.0005 0.4001
vt 0.0769 0.9995 0.4001
vt 0.0005 0.9995 0.4001
vt 0.4061 0.0005 0.0721
vt 0.4061 0.9995 0.0721
vt 0.4128 0.0005 0.0689
vt 0.4128 0.9995 0.0689
vt 0.4200 0.0005 0.0673
vt 0.4200 0.9995 0.0673
vt 0.4273 0.0005 0.0673
vt 0.4273 0.9995 0.0673
vt 0.4344 0.0005 0.0689
vt 0.4344 0.9995 0.0689
vt 0.4412 0.0005 0.0721
vt 0.4412 0.9995 0.0721
vt 0.4472 0.0005 0.0769
vt 0.4472 0.9995 0.0769
vt 0.0769 0.0005 0.4472
vt 0.0829 0.0005 0.4520
vt 0.0829 0.9995 0.4520
vt 0.0769 0.9995 0.4472
vt 0.0896 0.0005 0.4551
vt 0.0896 0.9995 0.4551
vt 0.0968 0.0005 0.4567
vt 0.0968 0.9995 0.4567
vt 0.1040 0.0005 0.4567
vt 0.1040 0.9995 0.4567
vt 0.1112 0.0005 0.4551
vt 0.1112 0.9995 0.4551
vt 0.1179 0.0005 0.4520
vt 0.1179 0.9995 0.4520
vt 0.1239 0.0005 0.4472
vt 0.1239 0.9995 0.4472
vt 0.5528 0.0005 0.1239
vt 0.5588 0.0005 0.1287
vt 0.5588 0.9995 0.1287
vt 0.5528 0.9995 0.1239
vt 0.5656 0.0005 0.1319
vt 0.5656 0.9995 0.1319
vt 0.5727 0.0005 0.1335
vt 0.5727 0.9995 0.1335
vt 0.5800 0.0005 0.1335
vt 0.5800 0.9995 0.1335
vt 0.5872 0.0005 0.1319
vt 0.5872 0.9995 0.1319
vt 0.5939 0.0005 0.1287
vt 0.5939 0.9995 0.1287
vt 0.1239 0.0005 0.4001
vt 0.2003 0.0005 0.4001
vt 0.2003 0.9995 0.4001
vt 0.1239 0.9995 0.4001
vt 0.4001 0.0005 0.2003
vt 0.4765 0.0005 0.2003
vt 0.4765 0.9995 0.2003
vt 0.4001 0.9995 0.2003
vt 0.7997 0.0005 0.4765
vt 0.8057 0.0005 0.4717
vt 0.8057 0.9995 0.4717
vt 0.7997 0.9995 0.4765
vt 0.8124 0.0005 0.4685
vt 0.8124 0.9995 0.4685
vt 0.8196 0.0005 0.4669
vt 0.8196 0.9995 0.4669
vt 0.8269 0.0005 0.4669
vt 0.8269 0.9995 0.4669
vt 0.8340 0.0005 0.4685
vt 0.8340 0.9995 0.4685
vt 0.8408 0.0005 0.4717
vt 0.8408 0.9995 0.4717
vt 0.8468 0.0005 0.4765
vt 0.8468 0.9995 0.4765
vt 0.4765 0.0005 0.1532
vt 0.4825 0.0005 0.1484
vt 0.4825 0.9995 0.1484
vt 0.4765 0.9995 0.1532
vt 0.4892 0.0005 0.1452
vt 0.4892 0.9995 0.1452
vt 0.4964 0.0005 0.1437
vt 0.4964 0.9995 0.1437
vt 0.5036 0.0005 0.1437
vt 0.5036 0.9995 0.1437
vt 0.5108 0.0005 0.1452
vt 0.5108 0.9995 0.1452
vt 0.5175 0.0005 0.1484
vt 0.5175 0.9995 0.1484
vt 0.5235 0.0005 0.1532
vt 0.5235 0.9995 0.1532
vt 0.1532 0.0005 0.5235
vt 0.1592 0.0005 0.5283
vt 0.1592 0.9995 0.5283
vt 0.1532 0.9995 0.5235
vt 0.1660 0.0005 0.5315
vt 0.1660 0.9995 0.5315
vt 0.1731 0.0005 0.5331
vt 0.1731 0.9995 0.5331
vt 0.1804 0.0005 0.5331
vt 0.1804 0.9995 0.5331
vt 0.1876 0.0005 0.5315
vt 0.1876 0.9995 0.5315
vt 0.1943 0.0005 0.5283
vt 0.1943 0.9995 0.5283
vt 0.2003 0.0005 0.5235
vt 0.2003 0.9995 0.5235
vt 0.5235 0.0005 0.2003
vt 0.5999 0.0005 0.2003
vt 0.5999 0.9995 0.2003
vt 0.5235 0.9995 0.2003
vt 0.8057 0.5283 0.0005
vt 0.8124 0.5315 0.0005
vt 0.7997 0.5999 0.0005
vt 0.7997 0.5235 0.0005
vt 0.8713 0.4061 0.0005
vt 0.8681 0.4128 0.0005
vt 0.7997 0.4001 0.0005
vt 0.8761 0.4001 0.0005
vt 0.8124 0.4685 0.0005
vt 0.8057 0.4717 0.0005
vt 0.7997 0.4765 0.0005
vt 0.9995 0.4001 0.0005
vt 0.9311 0.4128 0.0005
vt 0.9279 0.4061 0.0005
vt 0.9231 0.4001 0.0005
vt 0.8196 0.4669 0.0005
vt 0.8665 0.4200 0.0005
vt 0.8665 0.4273 0.0005
vt 0.8340 0.4685 0.0005
vt 0.8269 0.4669 0.0005
vt 0.8681 0.4344 0.0005
vt 0.8408 0.4717 0.0005
vt 0.8713 0.4412 0.0005
vt 0.8468 0.4765 0.0005
vt 0.9995 0.5999 0.0005
vt 0.9327 0.4200 0.0005
vt 0.9311 0.4344 0.0005
vt 0.9327 0.4273 0.0005
vt 0.9231 0.4472 0.0005
vt 0.9279 0.4412 0.0005
vt 0.9231 0.5999 0.0005
vt 0.9171 0.4520 0.0005
vt 0.9032 0.4567 0.0005
vt 0.9104 0.4551 0.0005
vt 0.8196 0.5331 0.0005
vt 0.8761 0.5999 0.0005
vt 0.8269 0.5331 0.0005
vt 0.8340 0.5315 0.0005
vt 0.8761 0.4472 0.0005
vt 0.8821 0.4520 0.0005
vt 0.8408 0.5283 0.0005
vt 0.8468 0.5235 0.0005
vt 0.8548 0.4892 0.0005
vt 0.8516 0.4825 0.0005
vt 0.8888 0.4551 0.0005
vt 0.8960 0.4567 0.0005
vt 0.8563 0.5036 0.0005
vt 0.8563 0.4964 0.0005
vt 0.8516 0.5175 0.0005
vt 0.8548 0.5108 0.0005
vt 0.9279 0.6059 0.0005
vt 0.8713 0.6059 0.0005
vt 0.9311 0.6126 0.0005
vt 0.8681 0.6126 0.0005
vt 0.9327 0.6198 0.0005
vt 0.8665 0.6198 0.0005
vt 0.9327 0.6271 0.0005
vt 0.8665 0.6271 0.0005
vt 0.9311 0.6342 0.0005
vt 0.9279 0.6410 0.0005
vt 0.9231 0.6470 0.0005
vt 0.9171 0.6518 0.0005
vt 0.9104 0.6550 0.0005
vt 0.9032 0.6565 0.0005
vt 0.8960 0.6565 0.0005
vt 0.8888 0.6550 0.0005
vt 0.8821 0.6518 0.0005
vt 0.8761 0.6470 0.0005
vt 0.8713 0.6410 0.0005
vt 0.8681 0.6342 0.0005
vt 0.1943 0.5283 0.9995
vt 0.2003 0.5235 0.9995
vt 0.2003 0.5999 0.9995
vt 0.1876 0.5315 0.9995
vt 0.1287 0.4061 0.9995
vt 0.1239 0.4001 0.9995
vt 0.2003 0.4001 0.9995
vt 0.1319 0.4128 0.9995
vt 0.2003 0.4765 0.9995
vt 0.1943 0.4717 0.9995
vt 0.1876 0.4685 0.9995
vt 0.0005 0.4001 0.9995
vt 0.0769 0.4001 0.9995
vt 0.0721 0.4061 0.9995
vt 0.0689 0.4128 0.9995
vt 0.1804 0.4669 0.9995
vt 0.1335 0.4200 0.9995
vt 0.1335 0.4273 0.9995
vt 0.1731 0.4669 0.9995
vt 0.1660 0.4685 0.9995
vt 0.1319 0.4344 0.9995
vt 0.1592 0.4717 0.9995
vt 0.1287 0.4412 0.9995
vt 0.1532 0.4765 0.9995
vt 0.0005 0.5999 0.9995
vt 0.0673 0.4200 0.9995
vt 0.0673 0.4273 0.9995
vt 0.0689 0.4344 0.9995
vt 0.0721 0.4412 0.9995
vt 0.0769 0.4472 0.9995
vt 0.0769 0.5999 0.9995
vt 0.0829 0.4520 0.9995
vt 0.0896 0.4551 0.9995
vt 0.0968 0.4567 0.9995
vt 0.1239 0.5999 0.9995
vt 0.1804 0.5331 0.9995
vt 0.1731 0.5331 0.9995
vt 0.1660 0.5315 0.9995
vt 0.1239 0.4472 0.9995
vt 0.1179 0.4520 0.9995
vt 0.1592 0.5283 0.9995
vt 0.1532 0.5235 0.9995
vt 0.1484 0.4825 0.9995
vt 0.1452 0.4892 0.9995
vt 0.1040 0.4567 0.9995
vt 0.1112 0.4551 0.9995
vt 0.1437 0.4964 0.9995
vt 0.1437 0.5036 0.9995
vt 0.1452 0.5108 0.9995
vt 0.1484 0.5175 0.9995
vt 0.0721 0.6059 0.9995
vt 0.1287 0.6059 0.9995
vt 0.1319 0.6126 0.9995
vt 0.0689 0.6126 0.9995
vt 0.0673 0.6198 0.9995
vt 0.1335 0.6198 0.9995
vt 0.0673 0.6271 0.9995
vt 0.1335 0.6271 0.9995
vt 0.0689 0.6342 0.9995
vt 0.0721 0.6410 0.9995
vt 0.0769 0.6470 0.9995
vt 0.0829 0.6518 0.9995
vt 0.0896 0.6550 0.9995
vt 0.0968 0.6565 0.9995
vt 0.1040 0.6565 0.9995
vt 0.1112 0.6550 0.9995
vt 0.1179 0.6518 0.9995
vt 0.1239 0.6470 0.9995
vt 0.1287 0.6410 0.9995
vt 0.1319 0.6342 0.9995
# 308 texture coords

g 图形003
usemtl Material__25
s 1
f 1/1/1 2/2/1 3/3/1 4/4/1 
s 4
f 2/5/2 5/6/3 6/7/3 3/8/2 
f 5/6/3 7/9/4 8/10/4 6/7/3 
f 7/9/4 9/11/5 10/12/5 8/10/4 
f 9/11/5 11/13/6 12/14/6 10/12/5 
f 11/13/6 13/15/7 14/16/7 12/14/6 
f 13/15/7 15/17/8 16/18/8 14/16/7 
f 15/17/8 17/19/9 18/20/9 16/18/8 
f 17/21/9 19/22/10 20/23/10 18/24/9 
f 19/22/10 21/25/11 22/26/11 20/23/10 
f 21/25/11 23/27/12 24/28/12 22/26/11 
f 23/27/12 25/29/13 26/30/13 24/28/12 
f 25/29/13 27/31/14 28/32/14 26/30/13 
f 27/31/14 29/33/15 30/34/15 28/32/14 
f 29/33/15 31/35/16 32/36/16 30/34/15 
f 31/37/16 33/38/17 34/39/17 32/40/16 
f 33/38/17 35/41/18 36/42/18 34/39/17 
f 35/41/18 37/43/19 38/44/19 36/42/18 
f 37/43/19 39/45/20 40/46/20 38/44/19 
f 39/45/20 41/47/21 42/48/21 40/46/20 
f 41/47/21 43/49/22 44/50/22 42/48/21 
f 43/49/22 45/51/23 46/52/23 44/50/22 
s 2
f 45/53/1 47/54/1 48/55/1 46/56/1 
s 4
f 47/57/24 49/58/24 50/59/24 48/60/24 
s 2
f 49/61/25 51/62/25 52/63/25 50/64/25 
s 4
f 51/51/26 53/65/8 54/66/8 52/52/26 
f 53/65/8 55/67/7 56/68/7 54/66/8 
f 55/67/7 57/69/6 58/70/6 56/68/7 
f 57/69/6 59/71/5 60/72/5 58/70/6 
f 59/71/5 61/73/4 62/74/4 60/72/5 
f 61/73/4 63/75/3 64/76/3 62/74/4 
f 63/75/3 65/77/27 66/78/27 64/76/3 
f 65/79/27 67/80/28 68/81/28 66/82/27 
f 67/80/28 69/83/29 70/84/29 68/81/28 
f 69/83/29 71/85/30 72/86/30 70/84/29 
f 71/85/30 73/87/31 74/88/31 72/86/30 
f 73/87/31 75/89/32 76/90/32 74/88/31 
f 75/89/32 77/91/33 78/92/33 76/90/32 
f 77/91/33 79/93/34 80/94/34 78/92/33 
f 79/95/34 81/96/22 82/97/22 80/98/34 
f 81/96/22 83/99/21 84/100/21 82/97/22 
f 83/99/21 85/101/20 86/102/20 84/100/21 
f 85/101/20 87/103/19 88/104/19 86/102/20 
f 87/103/19 89/105/18 90/106/18 88/104/19 
f 89/105/18 91/107/17 92/108/17 90/106/18 
f 91/107/17 93/5/35 94/8/35 92/108/17 
s 2
f 93/109/25 95/110/25 96/111/25 94/112/25 
s 4
f 95/113/36 97/114/36 98/115/36 96/116/36 
s 2
f 97/117/37 99/118/15 100/119/15 98/120/37 
f 99/118/15 101/121/14 102/122/14 100/119/15 
f 101/121/14 103/123/13 104/124/13 102/122/14 
f 103/123/13 105/125/12 106/126/12 104/124/13 
f 105/125/12 107/127/11 108/128/11 106/126/12 
f 107/127/11 109/129/10 110/130/10 108/128/11 
f 109/129/10 111/131/9 112/132/9 110/130/10 
f 111/133/9 113/134/8 114/135/8 112/136/9 
f 113/134/8 115/137/7 116/138/7 114/135/8 
f 115/137/7 117/139/6 118/140/6 116/138/7 
f 117/139/6 119/141/5 120/142/5 118/140/6 
f 119/141/5 121/143/4 122/144/4 120/142/5 
f 121/143/4 123/145/3 124/146/3 122/144/4 
f 123/145/3 125/147/27 126/148/27 124/146/3 
f 125/149/27 127/150/28 128/151/28 126/152/27 
f 127/150/28 129/153/29 130/154/29 128/151/28 
f 129/153/29 131/155/30 132/156/30 130/154/29 
f 131/155/30 133/157/31 134/158/31 132/156/30 
f 133/157/31 135/159/32 136/160/32 134/158/31 
f 135/159/32 137/161/33 138/162/33 136/160/32 
f 137/161/33 139/163/38 140/164/38 138/162/33 
s 4
f 139/165/36 1/166/36 4/167/36 140/168/36 
s 16
f 137/169/39 135/170/39 1/171/39 139/172/39 
f 91/173/39 89/174/39 95/175/39 93/176/39 
f 95/175/39 101/177/39 99/178/39 97/179/39 
f 49/180/39 55/181/39 53/182/39 51/183/39 
f 89/174/39 103/184/39 101/177/39 95/175/39 
f 87/185/39 85/186/39 103/184/39 89/174/39 
f 85/186/39 107/187/39 105/188/39 103/184/39 
f 83/189/39 109/190/39 107/187/39 85/186/39 
f 81/191/39 111/192/39 109/190/39 83/189/39 
f 47/193/39 57/194/39 55/181/39 49/180/39 
f 47/193/39 61/195/39 59/196/39 57/194/39 
f 47/193/39 65/197/39 63/198/39 61/195/39 
f 45/199/39 67/200/39 65/197/39 47/193/39 
f 45/199/39 71/201/39 69/202/39 67/200/39 
f 135/170/39 133/203/39 2/204/39 1/171/39 
f 131/205/39 129/206/39 2/204/39 133/203/39 
f 79/207/39 77/208/39 111/192/39 81/191/39 
f 127/209/39 125/210/39 2/204/39 129/206/39 
f 77/208/39 115/211/39 113/212/39 111/192/39 
f 45/199/39 75/213/39 73/214/39 71/201/39 
f 75/213/39 45/199/39 115/211/39 77/208/39 
f 45/199/39 119/215/39 117/216/39 115/211/39 
f 45/199/39 123/217/39 121/218/39 119/215/39 
f 45/199/39 2/204/39 125/210/39 123/217/39 
f 43/219/39 5/220/39 2/204/39 45/199/39 
f 43/219/39 41/221/39 7/222/39 5/220/39 
f 39/223/39 9/224/39 7/222/39 41/221/39 
f 37/225/39 11/226/39 9/224/39 39/223/39 
f 35/227/39 33/228/39 11/226/39 37/225/39 
f 31/229/39 29/230/39 11/226/39 33/228/39 
f 27/231/39 25/232/39 11/226/39 29/230/39 
f 23/233/39 21/234/39 11/226/39 25/232/39 
f 19/235/39 17/236/39 11/226/39 21/234/39 
f 15/237/39 13/238/39 11/226/39 17/236/39 
f 138/239/40 140/240/40 4/241/40 136/242/40 
f 92/243/40 94/244/40 96/245/40 90/246/40 
f 96/245/40 98/247/40 100/248/40 102/249/40 
f 50/250/40 52/251/40 54/252/40 56/253/40 
f 90/246/40 96/245/40 102/249/40 104/254/40 
f 88/255/40 90/246/40 104/254/40 86/256/40 
f 86/256/40 104/254/40 106/257/40 108/258/40 
f 84/259/40 86/256/40 108/258/40 110/260/40 
f 82/261/40 84/259/40 110/260/40 112/262/40 
f 48/263/40 50/250/40 56/253/40 58/264/40 
f 48/263/40 58/264/40 60/265/40 62/266/40 
f 48/263/40 62/266/40 64/267/40 66/268/40 
f 46/269/40 48/263/40 66/268/40 68/270/40 
f 46/269/40 68/270/40 70/271/40 72/272/40 
f 136/242/40 4/241/40 3/273/40 134/274/40 
f 132/275/40 134/274/40 3/273/40 130/276/40 
f 80/277/40 82/261/40 112/262/40 78/278/40 
f 128/279/40 130/276/40 3/273/40 126/280/40 
f 78/278/40 112/262/40 114/281/40 116/282/40 
f 46/269/40 72/272/40 74/283/40 76/284/40 
f 76/284/40 78/278/40 116/282/40 46/269/40 
f 46/269/40 116/282/40 118/285/40 120/286/40 
f 46/269/40 120/286/40 122/287/40 124/288/40 
f 46/269/40 124/288/40 126/280/40 3/273/40 
f 44/289/40 46/269/40 3/273/40 6/290/40 
f 44/289/40 6/290/40 8/291/40 42/292/40 
f 40/293/40 42/292/40 8/291/40 10/294/40 
f 38/295/40 40/293/40 10/294/40 12/296/40 
f 36/297/40 38/295/40 12/296/40 34/298/40 
f 32/299/40 34/298/40 12/296/40 30/300/40 
f 28/301/40 30/300/40 12/296/40 26/302/40 
f 24/303/40 26/302/40 12/296/40 22/304/40 
f 20/305/40 22/304/40 12/296/40 18/306/40 
f 16/307/40 18/306/40 12/296/40 14/308/40 
# 138 polygons

