# 3ds Max Wavefront OBJ Exporter v0.97b - (c)2007 guruware
# 创建的文件:31.08.2017 11:19:21

mtllib board_2_3.mtl

#
# object 图形014
#

v  105.0000 0.0000 105.0000
v  93.5355 0.0000 105.0000
v  93.5355 5.0000 105.0000
v  105.0000 5.0000 105.0000
v  94.2523 0.0000 104.0963
v  94.2523 5.0000 104.0963
v  94.7302 0.0000 103.0862
v  94.7302 5.0000 103.0862
v  94.9692 0.0000 102.0121
v  94.9692 5.0000 102.0121
v  94.9692 0.0000 100.9168
v  94.9692 5.0000 100.9168
v  94.7302 0.0000 99.8428
v  94.7302 5.0000 99.8428
v  94.2523 0.0000 98.8326
v  94.2523 5.0000 98.8326
v  93.5355 0.0000 97.9289
v  93.5355 5.0000 97.9289
v  92.6318 0.0000 97.2121
v  92.6318 5.0000 97.2121
v  91.6217 0.0000 96.7343
v  91.6217 5.0000 96.7343
v  90.5477 0.0000 96.4953
v  90.5477 5.0000 96.4953
v  89.4523 0.0000 96.4953
v  89.4523 5.0000 96.4953
v  88.3783 0.0000 96.7342
v  88.3783 5.0000 96.7342
v  87.3682 0.0000 97.2121
v  87.3682 5.0000 97.2121
v  86.4645 0.0000 97.9289
v  86.4645 5.0000 97.9289
v  85.7477 0.0000 98.8326
v  85.7477 5.0000 98.8326
v  85.2698 0.0000 99.8428
v  85.2698 5.0000 99.8428
v  85.0308 0.0000 100.9168
v  85.0308 5.0000 100.9168
v  85.0308 0.0000 102.0121
v  85.0308 5.0000 102.0121
v  85.2698 0.0000 103.0862
v  85.2698 5.0000 103.0862
v  85.7477 0.0000 104.0963
v  85.7477 5.0000 104.0963
v  86.4645 0.0000 105.0000
v  86.4645 5.0000 105.0000
v  75.0000 0.0000 105.0000
v  75.0000 5.0000 105.0000
v  75.0000 0.0000 116.4645
v  75.0000 5.0000 116.4645
v  74.0963 0.0000 115.7477
v  74.0963 5.0000 115.7477
v  73.0862 0.0000 115.2698
v  73.0862 5.0000 115.2698
v  72.0121 0.0000 115.0308
v  72.0121 5.0000 115.0308
v  70.9168 0.0000 115.0308
v  70.9168 5.0000 115.0308
v  69.8428 0.0000 115.2698
v  69.8428 5.0000 115.2698
v  68.8326 0.0000 115.7477
v  68.8326 5.0000 115.7477
v  67.9289 0.0000 116.4645
v  67.9289 5.0000 116.4645
v  67.2121 0.0000 117.3682
v  67.2121 5.0000 117.3682
v  66.7343 0.0000 118.3783
v  66.7343 5.0000 118.3783
v  66.4953 0.0000 119.4523
v  66.4953 5.0000 119.4523
v  66.4953 0.0000 120.5477
v  66.4953 5.0000 120.5477
v  66.7342 0.0000 121.6217
v  66.7342 5.0000 121.6217
v  67.2121 0.0000 122.6318
v  67.2121 5.0000 122.6318
v  67.9289 0.0000 123.5355
v  67.9289 5.0000 123.5355
v  68.8326 0.0000 124.2523
v  68.8326 5.0000 124.2523
v  69.8428 0.0000 124.7302
v  69.8428 5.0000 124.7302
v  70.9168 0.0000 124.9692
v  70.9168 5.0000 124.9692
v  72.0121 0.0000 124.9692
v  72.0121 5.0000 124.9692
v  73.0862 0.0000 124.7302
v  73.0862 5.0000 124.7302
v  74.0963 0.0000 124.2523
v  74.0963 5.0000 124.2523
v  75.0000 0.0000 123.5355
v  75.0000 5.0000 123.5355
v  75.0000 0.0000 135.0000
v  75.0000 5.0000 135.0000
v  86.4645 0.0000 135.0000
v  86.4645 5.0000 135.0000
v  85.7477 0.0000 135.9037
v  85.7477 5.0000 135.9037
v  85.2698 0.0000 136.9138
v  85.2698 5.0000 136.9138
v  85.0308 0.0000 137.9879
v  85.0308 5.0000 137.9879
v  85.0308 0.0000 139.0832
v  85.0308 5.0000 139.0832
v  85.2698 0.0000 140.1572
v  85.2698 5.0000 140.1572
v  85.7477 0.0000 141.1674
v  85.7477 5.0000 141.1674
v  86.4645 0.0000 142.0711
v  86.4645 5.0000 142.0711
v  87.3682 0.0000 142.7879
v  87.3682 5.0000 142.7879
v  88.3783 0.0000 143.2657
v  88.3783 5.0000 143.2657
v  89.4523 0.0000 143.5047
v  89.4523 5.0000 143.5047
v  90.5477 0.0000 143.5047
v  90.5477 5.0000 143.5047
v  91.6217 0.0000 143.2657
v  91.6217 5.0000 143.2657
v  92.6318 0.0000 142.7879
v  92.6318 5.0000 142.7879
v  93.5355 0.0000 142.0711
v  93.5355 5.0000 142.0711
v  94.2523 0.0000 141.1674
v  94.2523 5.0000 141.1674
v  94.7302 0.0000 140.1572
v  94.7302 5.0000 140.1572
v  94.9692 0.0000 139.0832
v  94.9692 5.0000 139.0832
v  94.9692 0.0000 137.9879
v  94.9692 5.0000 137.9879
v  94.7302 0.0000 136.9138
v  94.7302 5.0000 136.9138
v  94.2523 0.0000 135.9037
v  94.2523 5.0000 135.9037
v  93.5355 0.0000 135.0000
v  93.5355 5.0000 135.0000
v  105.0000 0.0000 135.0000
v  105.0000 5.0000 135.0000
v  105.0000 0.0000 123.5355
v  105.0000 5.0000 123.5355
v  104.0963 0.0000 124.2523
v  104.0963 5.0000 124.2523
v  103.0862 0.0000 124.7302
v  103.0862 5.0000 124.7302
v  102.0121 0.0000 124.9692
v  102.0121 5.0000 124.9692
v  100.9168 0.0000 124.9692
v  100.9168 5.0000 124.9692
v  99.8428 0.0000 124.7302
v  99.8428 5.0000 124.7302
v  98.8326 0.0000 124.2523
v  98.8326 5.0000 124.2523
v  97.9289 0.0000 123.5355
v  97.9289 5.0000 123.5355
v  97.2121 0.0000 122.6318
v  97.2121 5.0000 122.6318
v  96.7343 0.0000 121.6217
v  96.7343 5.0000 121.6217
v  96.4953 0.0000 120.5477
v  96.4953 5.0000 120.5477
v  96.4953 0.0000 119.4523
v  96.4953 5.0000 119.4523
v  96.7343 0.0000 118.3783
v  96.7343 5.0000 118.3783
v  97.2121 0.0000 117.3682
v  97.2121 5.0000 117.3682
v  97.9289 0.0000 116.4645
v  97.9289 5.0000 116.4645
v  98.8326 0.0000 115.7477
v  98.8326 5.0000 115.7477
v  99.8428 0.0000 115.2698
v  99.8428 5.0000 115.2698
v  100.9168 0.0000 115.0308
v  100.9168 5.0000 115.0308
v  102.0121 0.0000 115.0308
v  102.0121 5.0000 115.0308
v  103.0862 0.0000 115.2698
v  103.0862 5.0000 115.2698
v  104.0963 0.0000 115.7477
v  104.0963 5.0000 115.7477
v  105.0000 0.0000 116.4645
v  105.0000 5.0000 116.4645
# 184 vertices

vn 0.0000 0.0000 -1.0000
vn 0.7835 0.0000 0.6214
vn 0.8493 0.0000 0.5280
vn 0.9459 0.0000 0.3244
vn 0.9940 0.0000 0.1092
vn 0.9940 0.0000 -0.1092
vn 0.9459 0.0000 -0.3244
vn 0.8493 0.0000 -0.5280
vn 0.7071 0.0000 -0.7071
vn 0.5280 0.0000 -0.8493
vn 0.3244 0.0000 -0.9459
vn 0.1092 0.0000 -0.9940
vn -0.1092 0.0000 -0.9940
vn -0.3244 0.0000 -0.9459
vn -0.5280 0.0000 -0.8493
vn -0.7071 0.0000 -0.7071
vn -0.8493 0.0000 -0.5280
vn -0.9459 0.0000 -0.3244
vn -0.9940 0.0000 -0.1092
vn -0.9940 0.0000 0.1092
vn -0.9459 0.0000 0.3244
vn -0.8493 0.0000 0.5280
vn -0.7835 0.0000 0.6214
vn -1.0000 0.0000 -0.0000
vn 0.6214 0.0000 -0.7835
vn -0.7071 0.0000 0.7071
vn -0.5280 0.0000 0.8493
vn -0.3244 0.0000 0.9459
vn -0.1092 0.0000 0.9940
vn 0.1092 0.0000 0.9940
vn 0.3244 0.0000 0.9459
vn 0.5280 0.0000 0.8493
vn 0.6214 0.0000 0.7835
vn 0.0000 0.0000 1.0000
vn -0.7835 0.0000 -0.6214
vn 0.7071 0.0000 0.7071
vn 0.7835 0.0000 -0.6214
vn 1.0000 0.0000 -0.0000
vn -0.6214 0.0000 -0.7835
vn -0.6214 0.0000 0.7835
vn 0.0000 -1.0000 -0.0000
vn 0.0000 1.0000 -0.0000
# 42 vertex normals

vt 0.4001 0.0005 0.4001
vt 0.4765 0.0005 0.4001
vt 0.4765 0.9995 0.4001
vt 0.4001 0.9995 0.4001
vt 0.4001 0.0005 0.5235
vt 0.4061 0.0005 0.5283
vt 0.4061 0.9995 0.5283
vt 0.4001 0.9995 0.5235
vt 0.4128 0.0005 0.5315
vt 0.4128 0.9995 0.5315
vt 0.4200 0.0005 0.5331
vt 0.4200 0.9995 0.5331
vt 0.4273 0.0005 0.5331
vt 0.4273 0.9995 0.5331
vt 0.4344 0.0005 0.5315
vt 0.4344 0.9995 0.5315
vt 0.4412 0.0005 0.5283
vt 0.4412 0.9995 0.5283
vt 0.4472 0.0005 0.5235
vt 0.4472 0.9995 0.5235
vt 0.4765 0.0005 0.4472
vt 0.4825 0.0005 0.4520
vt 0.4825 0.9995 0.4520
vt 0.4765 0.9995 0.4472
vt 0.4892 0.0005 0.4551
vt 0.4892 0.9995 0.4551
vt 0.4964 0.0005 0.4567
vt 0.4964 0.9995 0.4567
vt 0.5036 0.0005 0.4567
vt 0.5036 0.9995 0.4567
vt 0.5108 0.0005 0.4551
vt 0.5108 0.9995 0.4551
vt 0.5175 0.0005 0.4520
vt 0.5175 0.9995 0.4520
vt 0.5235 0.0005 0.4472
vt 0.5235 0.9995 0.4472
vt 0.5528 0.0005 0.4765
vt 0.5588 0.0005 0.4717
vt 0.5588 0.9995 0.4717
vt 0.5528 0.9995 0.4765
vt 0.5656 0.0005 0.4685
vt 0.5656 0.9995 0.4685
vt 0.5727 0.0005 0.4669
vt 0.5727 0.9995 0.4669
vt 0.5800 0.0005 0.4669
vt 0.5800 0.9995 0.4669
vt 0.5872 0.0005 0.4685
vt 0.5872 0.9995 0.4685
vt 0.5939 0.0005 0.4717
vt 0.5939 0.9995 0.4717
vt 0.5999 0.0005 0.4765
vt 0.5999 0.9995 0.4765
vt 0.5235 0.0005 0.4001
vt 0.5999 0.0005 0.4001
vt 0.5999 0.9995 0.4001
vt 0.5235 0.9995 0.4001
vt 0.6763 0.0005 0.4001
vt 0.6763 0.9995 0.4001
vt 0.5999 0.0005 0.3237
vt 0.6059 0.0005 0.3285
vt 0.6059 0.9995 0.3285
vt 0.5999 0.9995 0.3237
vt 0.6126 0.0005 0.3317
vt 0.6126 0.9995 0.3317
vt 0.6198 0.0005 0.3333
vt 0.6198 0.9995 0.3333
vt 0.6271 0.0005 0.3333
vt 0.6271 0.9995 0.3333
vt 0.6342 0.0005 0.3317
vt 0.6342 0.9995 0.3317
vt 0.6410 0.0005 0.3285
vt 0.6410 0.9995 0.3285
vt 0.6470 0.0005 0.3237
vt 0.6470 0.9995 0.3237
vt 0.6763 0.0005 0.3530
vt 0.6823 0.0005 0.3482
vt 0.6823 0.9995 0.3482
vt 0.6763 0.9995 0.3530
vt 0.6890 0.0005 0.3450
vt 0.6890 0.9995 0.3450
vt 0.6962 0.0005 0.3435
vt 0.6962 0.9995 0.3435
vt 0.7034 0.0005 0.3435
vt 0.7034 0.9995 0.3435
vt 0.7106 0.0005 0.3450
vt 0.7106 0.9995 0.3450
vt 0.7173 0.0005 0.3482
vt 0.7173 0.9995 0.3482
vt 0.7233 0.0005 0.3530
vt 0.7233 0.9995 0.3530
vt 0.3530 0.0005 0.2767
vt 0.3590 0.0005 0.2719
vt 0.3590 0.9995 0.2719
vt 0.3530 0.9995 0.2767
vt 0.3658 0.0005 0.2687
vt 0.3658 0.9995 0.2687
vt 0.3729 0.0005 0.2671
vt 0.3729 0.9995 0.2671
vt 0.3802 0.0005 0.2671
vt 0.3802 0.9995 0.2671
vt 0.3874 0.0005 0.2687
vt 0.3874 0.9995 0.2687
vt 0.3941 0.0005 0.2719
vt 0.3941 0.9995 0.2719
vt 0.4001 0.0005 0.2767
vt 0.4001 0.9995 0.2767
vt 0.7233 0.0005 0.4001
vt 0.7997 0.0005 0.4001
vt 0.7997 0.9995 0.4001
vt 0.7233 0.9995 0.4001
vt 0.4001 0.0005 0.2003
vt 0.4765 0.0005 0.2003
vt 0.4765 0.9995 0.2003
vt 0.4001 0.9995 0.2003
vt 0.7997 0.0005 0.4765
vt 0.8057 0.0005 0.4717
vt 0.8057 0.9995 0.4717
vt 0.7997 0.9995 0.4765
vt 0.8124 0.0005 0.4685
vt 0.8124 0.9995 0.4685
vt 0.8196 0.0005 0.4669
vt 0.8196 0.9995 0.4669
vt 0.8269 0.0005 0.4669
vt 0.8269 0.9995 0.4669
vt 0.8340 0.0005 0.4685
vt 0.8340 0.9995 0.4685
vt 0.8408 0.0005 0.4717
vt 0.8408 0.9995 0.4717
vt 0.8468 0.0005 0.4765
vt 0.8468 0.9995 0.4765
vt 0.4765 0.0005 0.1532
vt 0.4825 0.0005 0.1484
vt 0.4825 0.9995 0.1484
vt 0.4765 0.9995 0.1532
vt 0.4892 0.0005 0.1452
vt 0.4892 0.9995 0.1452
vt 0.4964 0.0005 0.1437
vt 0.4964 0.9995 0.1437
vt 0.5036 0.0005 0.1437
vt 0.5036 0.9995 0.1437
vt 0.5108 0.0005 0.1452
vt 0.5108 0.9995 0.1452
vt 0.5175 0.0005 0.1484
vt 0.5175 0.9995 0.1484
vt 0.5235 0.0005 0.1532
vt 0.5235 0.9995 0.1532
vt 0.1532 0.0005 0.5235
vt 0.1592 0.0005 0.5283
vt 0.1592 0.9995 0.5283
vt 0.1532 0.9995 0.5235
vt 0.1660 0.0005 0.5315
vt 0.1660 0.9995 0.5315
vt 0.1731 0.0005 0.5331
vt 0.1731 0.9995 0.5331
vt 0.1804 0.0005 0.5331
vt 0.1804 0.9995 0.5331
vt 0.1876 0.0005 0.5315
vt 0.1876 0.9995 0.5315
vt 0.1943 0.0005 0.5283
vt 0.1943 0.9995 0.5283
vt 0.2003 0.0005 0.5235
vt 0.2003 0.9995 0.5235
vt 0.5235 0.0005 0.2003
vt 0.5999 0.0005 0.2003
vt 0.5999 0.9995 0.2003
vt 0.5235 0.9995 0.2003
vt 0.2003 0.0005 0.5999
vt 0.2767 0.0005 0.5999
vt 0.2767 0.9995 0.5999
vt 0.2003 0.9995 0.5999
vt 0.4061 0.0005 0.2719
vt 0.4061 0.9995 0.2719
vt 0.4128 0.0005 0.2687
vt 0.4128 0.9995 0.2687
vt 0.4200 0.0005 0.2671
vt 0.4200 0.9995 0.2671
vt 0.4273 0.0005 0.2671
vt 0.4273 0.9995 0.2671
vt 0.4344 0.0005 0.2687
vt 0.4344 0.9995 0.2687
vt 0.4412 0.0005 0.2719
vt 0.4412 0.9995 0.2719
vt 0.4472 0.0005 0.2767
vt 0.4472 0.9995 0.2767
vt 0.2767 0.0005 0.5528
vt 0.2827 0.0005 0.5480
vt 0.2827 0.9995 0.5480
vt 0.2767 0.9995 0.5528
vt 0.2894 0.0005 0.5449
vt 0.2894 0.9995 0.5449
vt 0.2966 0.0005 0.5433
vt 0.2966 0.9995 0.5433
vt 0.3038 0.0005 0.5433
vt 0.3038 0.9995 0.5433
vt 0.3110 0.0005 0.5449
vt 0.3110 0.9995 0.5449
vt 0.3177 0.0005 0.5480
vt 0.3177 0.9995 0.5480
vt 0.3237 0.0005 0.5528
vt 0.3237 0.9995 0.5528
vt 0.5528 0.0005 0.3237
vt 0.5588 0.0005 0.3285
vt 0.5588 0.9995 0.3285
vt 0.5528 0.9995 0.3237
vt 0.5656 0.0005 0.3317
vt 0.5656 0.9995 0.3317
vt 0.5727 0.0005 0.3333
vt 0.5727 0.9995 0.3333
vt 0.5800 0.0005 0.3333
vt 0.5800 0.9995 0.3333
vt 0.5872 0.0005 0.3317
vt 0.5872 0.9995 0.3317
vt 0.5939 0.0005 0.3285
vt 0.5939 0.9995 0.3285
vt 0.3237 0.0005 0.5999
vt 0.4001 0.0005 0.5999
vt 0.4001 0.9995 0.5999
vt 0.3237 0.9995 0.5999
vt 0.4061 0.3285 0.0005
vt 0.4128 0.3317 0.0005
vt 0.4001 0.4001 0.0005
vt 0.4001 0.3237 0.0005
vt 0.4001 0.2003 0.0005
vt 0.4128 0.2687 0.0005
vt 0.4061 0.2719 0.0005
vt 0.4001 0.2767 0.0005
vt 0.4765 0.2003 0.0005
vt 0.4200 0.2671 0.0005
vt 0.4344 0.2687 0.0005
vt 0.4273 0.2671 0.0005
vt 0.4200 0.3333 0.0005
vt 0.4765 0.4001 0.0005
vt 0.4273 0.3333 0.0005
vt 0.4344 0.3317 0.0005
vt 0.4472 0.2767 0.0005
vt 0.4412 0.2719 0.0005
vt 0.4412 0.3285 0.0005
vt 0.4472 0.3237 0.0005
vt 0.5999 0.2767 0.0005
vt 0.4567 0.2966 0.0005
vt 0.5235 0.2003 0.0005
vt 0.5999 0.2003 0.0005
vt 0.5235 0.4001 0.0005
vt 0.5999 0.3237 0.0005
vt 0.5999 0.4001 0.0005
vt 0.4520 0.3177 0.0005
vt 0.4551 0.3110 0.0005
vt 0.4551 0.2894 0.0005
vt 0.4520 0.2827 0.0005
vt 0.4567 0.3038 0.0005
vt 0.4825 0.1484 0.0005
vt 0.4685 0.1660 0.0005
vt 0.4717 0.1592 0.0005
vt 0.4765 0.1532 0.0005
vt 0.4892 0.1452 0.0005
vt 0.4964 0.1437 0.0005
vt 0.5036 0.1437 0.0005
vt 0.4669 0.1731 0.0005
vt 0.5108 0.1452 0.0005
vt 0.4669 0.1804 0.0005
vt 0.5175 0.1484 0.0005
vt 0.5235 0.1532 0.0005
vt 0.5283 0.1592 0.0005
vt 0.5315 0.1660 0.0005
vt 0.5331 0.1731 0.0005
vt 0.5331 0.1804 0.0005
vt 0.5315 0.1876 0.0005
vt 0.5283 0.1943 0.0005
vt 0.4685 0.1876 0.0005
vt 0.4717 0.1943 0.0005
vt 0.6518 0.2827 0.0005
vt 0.6342 0.2687 0.0005
vt 0.6410 0.2719 0.0005
vt 0.6470 0.2767 0.0005
vt 0.6550 0.2894 0.0005
vt 0.6565 0.2966 0.0005
vt 0.6565 0.3038 0.0005
vt 0.6271 0.2671 0.0005
vt 0.6550 0.3110 0.0005
vt 0.6198 0.2671 0.0005
vt 0.6518 0.3177 0.0005
vt 0.6470 0.3237 0.0005
vt 0.6410 0.3285 0.0005
vt 0.6342 0.3317 0.0005
vt 0.6271 0.3333 0.0005
vt 0.6198 0.3333 0.0005
vt 0.6126 0.3317 0.0005
vt 0.6059 0.3285 0.0005
vt 0.6126 0.2687 0.0005
vt 0.6059 0.2719 0.0005
vt 0.5283 0.4061 0.0005
vt 0.4717 0.4061 0.0005
vt 0.5315 0.4128 0.0005
vt 0.4685 0.4128 0.0005
vt 0.5331 0.4200 0.0005
vt 0.4669 0.4200 0.0005
vt 0.5331 0.4273 0.0005
vt 0.4669 0.4273 0.0005
vt 0.5315 0.4344 0.0005
vt 0.5283 0.4412 0.0005
vt 0.5235 0.4472 0.0005
vt 0.5175 0.4520 0.0005
vt 0.5108 0.4551 0.0005
vt 0.5036 0.4567 0.0005
vt 0.4964 0.4567 0.0005
vt 0.4892 0.4551 0.0005
vt 0.4825 0.4520 0.0005
vt 0.4765 0.4472 0.0005
vt 0.4717 0.4412 0.0005
vt 0.4685 0.4344 0.0005
vt 0.5939 0.3285 0.9995
vt 0.5999 0.3237 0.9995
vt 0.5999 0.4001 0.9995
vt 0.5872 0.3317 0.9995
vt 0.5999 0.2003 0.9995
vt 0.5999 0.2767 0.9995
vt 0.5939 0.2719 0.9995
vt 0.5872 0.2687 0.9995
vt 0.5235 0.2003 0.9995
vt 0.5800 0.2671 0.9995
vt 0.5727 0.2671 0.9995
vt 0.5656 0.2687 0.9995
vt 0.5235 0.4001 0.9995
vt 0.5800 0.3333 0.9995
vt 0.5727 0.3333 0.9995
vt 0.5656 0.3317 0.9995
vt 0.5588 0.2719 0.9995
vt 0.5528 0.2767 0.9995
vt 0.5588 0.3285 0.9995
vt 0.5528 0.3237 0.9995
vt 0.4001 0.2767 0.9995
vt 0.4001 0.2003 0.9995
vt 0.4765 0.2003 0.9995
vt 0.5433 0.2966 0.9995
vt 0.4765 0.4001 0.9995
vt 0.4001 0.4001 0.9995
vt 0.4001 0.3237 0.9995
vt 0.5480 0.3177 0.9995
vt 0.5449 0.3110 0.9995
vt 0.5480 0.2827 0.9995
vt 0.5449 0.2894 0.9995
vt 0.5433 0.3038 0.9995
vt 0.5175 0.1484 0.9995
vt 0.5235 0.1532 0.9995
vt 0.5283 0.1592 0.9995
vt 0.5315 0.1660 0.9995
vt 0.5108 0.1452 0.9995
vt 0.5036 0.1437 0.9995
vt 0.5331 0.1731 0.9995
vt 0.4964 0.1437 0.9995
vt 0.5331 0.1804 0.9995
vt 0.4892 0.1452 0.9995
vt 0.4825 0.1484 0.9995
vt 0.4765 0.1532 0.9995
vt 0.4717 0.1592 0.9995
vt 0.4685 0.1660 0.9995
vt 0.4669 0.1731 0.9995
vt 0.4669 0.1804 0.9995
vt 0.4685 0.1876 0.9995
vt 0.4717 0.1943 0.9995
vt 0.5315 0.1876 0.9995
vt 0.5283 0.1943 0.9995
vt 0.3482 0.2827 0.9995
vt 0.3530 0.2767 0.9995
vt 0.3590 0.2719 0.9995
vt 0.3658 0.2687 0.9995
vt 0.3450 0.2894 0.9995
vt 0.3435 0.2966 0.9995
vt 0.3729 0.2671 0.9995
vt 0.3435 0.3038 0.9995
vt 0.3802 0.2671 0.9995
vt 0.3450 0.3110 0.9995
vt 0.3482 0.3177 0.9995
vt 0.3530 0.3237 0.9995
vt 0.3590 0.3285 0.9995
vt 0.3658 0.3317 0.9995
vt 0.3729 0.3333 0.9995
vt 0.3802 0.3333 0.9995
vt 0.3874 0.3317 0.9995
vt 0.3941 0.3285 0.9995
vt 0.3874 0.2687 0.9995
vt 0.3941 0.2719 0.9995
vt 0.4717 0.4061 0.9995
vt 0.5283 0.4061 0.9995
vt 0.5315 0.4128 0.9995
vt 0.4685 0.4128 0.9995
vt 0.4669 0.4200 0.9995
vt 0.5331 0.4200 0.9995
vt 0.4669 0.4273 0.9995
vt 0.5331 0.4273 0.9995
vt 0.4685 0.4344 0.9995
vt 0.4717 0.4412 0.9995
vt 0.4765 0.4472 0.9995
vt 0.4825 0.4520 0.9995
vt 0.4892 0.4551 0.9995
vt 0.4964 0.4567 0.9995
vt 0.5036 0.4567 0.9995
vt 0.5108 0.4551 0.9995
vt 0.5175 0.4520 0.9995
vt 0.5235 0.4472 0.9995
vt 0.5283 0.4412 0.9995
vt 0.5315 0.4344 0.9995
# 402 texture coords

g 图形014
usemtl Material__25
s 1
f 1/1/1 2/2/1 3/3/1 4/4/1 
s 4
f 2/5/2 5/6/3 6/7/3 3/8/2 
f 5/6/3 7/9/4 8/10/4 6/7/3 
f 7/9/4 9/11/5 10/12/5 8/10/4 
f 9/11/5 11/13/6 12/14/6 10/12/5 
f 11/13/6 13/15/7 14/16/7 12/14/6 
f 13/15/7 15/17/8 16/18/8 14/16/7 
f 15/17/8 17/19/9 18/20/9 16/18/8 
f 17/21/9 19/22/10 20/23/10 18/24/9 
f 19/22/10 21/25/11 22/26/11 20/23/10 
f 21/25/11 23/27/12 24/28/12 22/26/11 
f 23/27/12 25/29/13 26/30/13 24/28/12 
f 25/29/13 27/31/14 28/32/14 26/30/13 
f 27/31/14 29/33/15 30/34/15 28/32/14 
f 29/33/15 31/35/16 32/36/16 30/34/15 
f 31/37/16 33/38/17 34/39/17 32/40/16 
f 33/38/17 35/41/18 36/42/18 34/39/17 
f 35/41/18 37/43/19 38/44/19 36/42/18 
f 37/43/19 39/45/20 40/46/20 38/44/19 
f 39/45/20 41/47/21 42/48/21 40/46/20 
f 41/47/21 43/49/22 44/50/22 42/48/21 
f 43/49/22 45/51/23 46/52/23 44/50/22 
s 2
f 45/53/1 47/54/1 48/55/1 46/56/1 
s 4
f 47/54/24 49/57/24 50/58/24 48/55/24 
s 2
f 49/59/25 51/60/10 52/61/10 50/62/25 
f 51/60/10 53/63/11 54/64/11 52/61/10 
f 53/63/11 55/65/12 56/66/12 54/64/11 
f 55/65/12 57/67/13 58/68/13 56/66/12 
f 57/67/13 59/69/14 60/70/14 58/68/13 
f 59/69/14 61/71/15 62/72/15 60/70/14 
f 61/71/15 63/73/16 64/74/16 62/72/15 
f 63/75/16 65/76/17 66/77/17 64/78/16 
f 65/76/17 67/79/18 68/80/18 66/77/17 
f 67/79/18 69/81/19 70/82/19 68/80/18 
f 69/81/19 71/83/20 72/84/20 70/82/19 
f 71/83/20 73/85/21 74/86/21 72/84/20 
f 73/85/21 75/87/22 76/88/22 74/86/21 
f 75/87/22 77/89/26 78/90/26 76/88/22 
f 77/91/26 79/92/27 80/93/27 78/94/26 
f 79/92/27 81/95/28 82/96/28 80/93/27 
f 81/95/28 83/97/29 84/98/29 82/96/28 
f 83/97/29 85/99/30 86/100/30 84/98/29 
f 85/99/30 87/101/31 88/102/31 86/100/30 
f 87/101/31 89/103/32 90/104/32 88/102/31 
f 89/103/32 91/105/33 92/106/33 90/104/32 
s 4
f 91/107/24 93/108/24 94/109/24 92/110/24 
s 2
f 93/111/34 95/112/34 96/113/34 94/114/34 
s 4
f 95/115/35 97/116/17 98/117/17 96/118/35 
f 97/116/17 99/119/18 100/120/18 98/117/17 
f 99/119/18 101/121/19 102/122/19 100/120/18 
f 101/121/19 103/123/20 104/124/20 102/122/19 
f 103/123/20 105/125/21 106/126/21 104/124/20 
f 105/125/21 107/127/22 108/128/22 106/126/21 
f 107/127/22 109/129/26 110/130/26 108/128/22 
f 109/131/26 111/132/27 112/133/27 110/134/26 
f 111/132/27 113/135/28 114/136/28 112/133/27 
f 113/135/28 115/137/29 116/138/29 114/136/28 
f 115/137/29 117/139/30 118/140/30 116/138/29 
f 117/139/30 119/141/31 120/142/31 118/140/30 
f 119/141/31 121/143/32 122/144/32 120/142/31 
f 121/143/32 123/145/36 124/146/36 122/144/32 
f 123/147/36 125/148/3 126/149/3 124/150/36 
f 125/148/3 127/151/4 128/152/4 126/149/3 
f 127/151/4 129/153/5 130/154/5 128/152/4 
f 129/153/5 131/155/6 132/156/6 130/154/5 
f 131/155/6 133/157/7 134/158/7 132/156/6 
f 133/157/7 135/159/8 136/160/8 134/158/7 
f 135/159/8 137/161/37 138/162/37 136/160/8 
s 2
f 137/163/34 139/164/34 140/165/34 138/166/34 
s 4
f 139/167/38 141/168/38 142/169/38 140/170/38 
s 2
f 141/105/39 143/171/15 144/172/15 142/106/39 
f 143/171/15 145/173/14 146/174/14 144/172/15 
f 145/173/14 147/175/13 148/176/13 146/174/14 
f 147/175/13 149/177/12 150/178/12 148/176/13 
f 149/177/12 151/179/11 152/180/11 150/178/12 
f 151/179/11 153/181/10 154/182/10 152/180/11 
f 153/181/10 155/183/9 156/184/9 154/182/10 
f 155/185/9 157/186/8 158/187/8 156/188/9 
f 157/186/8 159/189/7 160/190/7 158/187/8 
f 159/189/7 161/191/6 162/192/6 160/190/7 
f 161/191/6 163/193/5 164/194/5 162/192/6 
f 163/193/5 165/195/4 166/196/4 164/194/5 
f 165/195/4 167/197/3 168/198/3 166/196/4 
f 167/197/3 169/199/36 170/200/36 168/198/3 
f 169/201/36 171/202/32 172/203/32 170/204/36 
f 171/202/32 173/205/31 174/206/31 172/203/32 
f 173/205/31 175/207/30 176/208/30 174/206/31 
f 175/207/30 177/209/29 178/210/29 176/208/30 
f 177/209/29 179/211/28 180/212/28 178/210/29 
f 179/211/28 181/213/27 182/214/27 180/212/28 
f 181/213/27 183/59/40 184/62/40 182/214/27 
s 4
f 183/215/38 1/216/38 4/217/38 184/218/38 
s 16
f 181/219/41 179/220/41 1/221/41 183/222/41 
f 139/223/41 145/224/41 143/225/41 141/226/41 
f 137/227/41 147/228/41 145/224/41 139/223/41 
f 137/227/41 151/229/41 149/230/41 147/228/41 
f 179/220/41 177/231/41 2/232/41 1/221/41 
f 175/233/41 173/234/41 2/232/41 177/231/41 
f 137/227/41 155/235/41 153/236/41 151/229/41 
f 171/237/41 169/238/41 2/232/41 173/234/41 
f 91/239/41 161/240/41 95/241/41 93/242/41 
f 45/243/41 2/232/41 49/244/41 47/245/41 
f 167/246/41 165/247/41 2/232/41 169/238/41 
f 137/227/41 159/248/41 157/249/41 155/235/41 
f 163/250/41 91/239/41 2/232/41 165/247/41 
f 137/227/41 95/241/41 161/240/41 159/248/41 
f 121/251/41 127/252/41 125/253/41 123/254/41 
f 119/255/41 117/256/41 127/252/41 121/251/41 
f 117/256/41 115/257/41 129/258/41 127/252/41 
f 115/257/41 113/259/41 131/260/41 129/258/41 
f 111/261/41 109/262/41 131/260/41 113/259/41 
f 107/263/41 105/264/41 131/260/41 109/262/41 
f 103/265/41 101/266/41 131/260/41 105/264/41 
f 99/267/41 97/268/41 131/260/41 101/266/41 
f 95/241/41 133/269/41 131/260/41 97/268/41 
f 95/241/41 137/227/41 135/270/41 133/269/41 
f 91/239/41 163/250/41 161/240/41 
f 75/271/41 81/272/41 79/273/41 77/274/41 
f 73/275/41 71/276/41 81/272/41 75/271/41 
f 71/276/41 69/277/41 83/278/41 81/272/41 
f 69/277/41 67/279/41 85/280/41 83/278/41 
f 65/281/41 63/282/41 85/280/41 67/279/41 
f 61/283/41 59/284/41 85/280/41 63/282/41 
f 57/285/41 55/286/41 85/280/41 59/284/41 
f 53/287/41 51/288/41 85/280/41 55/286/41 
f 49/244/41 87/289/41 85/280/41 51/288/41 
f 49/244/41 91/239/41 89/290/41 87/289/41 
f 49/244/41 2/232/41 91/239/41 
f 43/291/41 5/292/41 2/232/41 45/243/41 
f 43/291/41 41/293/41 7/294/41 5/292/41 
f 39/295/41 9/296/41 7/294/41 41/293/41 
f 37/297/41 11/298/41 9/296/41 39/295/41 
f 35/299/41 33/300/41 11/298/41 37/297/41 
f 31/301/41 29/302/41 11/298/41 33/300/41 
f 27/303/41 25/304/41 11/298/41 29/302/41 
f 23/305/41 21/306/41 11/298/41 25/304/41 
f 19/307/41 17/308/41 11/298/41 21/306/41 
f 15/309/41 13/310/41 11/298/41 17/308/41 
f 182/311/42 184/312/42 4/313/42 180/314/42 
f 140/315/42 142/316/42 144/317/42 146/318/42 
f 138/319/42 140/315/42 146/318/42 148/320/42 
f 138/319/42 148/320/42 150/321/42 152/322/42 
f 180/314/42 4/313/42 3/323/42 178/324/42 
f 176/325/42 178/324/42 3/323/42 174/326/42 
f 138/319/42 152/322/42 154/327/42 156/328/42 
f 172/329/42 174/326/42 3/323/42 170/330/42 
f 92/331/42 94/332/42 96/333/42 162/334/42 
f 46/335/42 48/336/42 50/337/42 3/323/42 
f 168/338/42 170/330/42 3/323/42 166/339/42 
f 138/319/42 156/328/42 158/340/42 160/341/42 
f 164/342/42 166/339/42 3/323/42 92/331/42 
f 138/319/42 160/341/42 162/334/42 96/333/42 
f 122/343/42 124/344/42 126/345/42 128/346/42 
f 120/347/42 122/343/42 128/346/42 118/348/42 
f 118/348/42 128/346/42 130/349/42 116/350/42 
f 116/350/42 130/349/42 132/351/42 114/352/42 
f 112/353/42 114/352/42 132/351/42 110/354/42 
f 108/355/42 110/354/42 132/351/42 106/356/42 
f 104/357/42 106/356/42 132/351/42 102/358/42 
f 100/359/42 102/358/42 132/351/42 98/360/42 
f 96/333/42 98/360/42 132/351/42 134/361/42 
f 96/333/42 134/361/42 136/362/42 138/319/42 
f 92/331/42 162/334/42 164/342/42 
f 76/363/42 78/364/42 80/365/42 82/366/42 
f 74/367/42 76/363/42 82/366/42 72/368/42 
f 72/368/42 82/366/42 84/369/42 70/370/42 
f 70/370/42 84/369/42 86/371/42 68/372/42 
f 66/373/42 68/372/42 86/371/42 64/374/42 
f 62/375/42 64/374/42 86/371/42 60/376/42 
f 58/377/42 60/376/42 86/371/42 56/378/42 
f 54/379/42 56/378/42 86/371/42 52/380/42 
f 50/337/42 52/380/42 86/371/42 88/381/42 
f 50/337/42 88/381/42 90/382/42 92/331/42 
f 50/337/42 92/331/42 3/323/42 
f 44/383/42 46/335/42 3/323/42 6/384/42 
f 44/383/42 6/384/42 8/385/42 42/386/42 
f 40/387/42 42/386/42 8/385/42 10/388/42 
f 38/389/42 40/387/42 10/388/42 12/390/42 
f 36/391/42 38/389/42 12/390/42 34/392/42 
f 32/393/42 34/392/42 12/390/42 30/394/42 
f 28/395/42 30/394/42 12/390/42 26/396/42 
f 24/397/42 26/396/42 12/390/42 22/398/42 
f 20/399/42 22/398/42 12/390/42 18/400/42 
f 16/401/42 18/400/42 12/390/42 14/402/42 
# 180 polygons - 4 triangles

