# 3ds Max Wavefront OBJ Exporter v0.97b - (c)2007 guruware
# 创建的文件:31.08.2017 11:20:24

mtllib board_2_5.mtl

#
# object 图形024
#

v  164.6123 0.0000 105.0000
v  153.1479 0.0000 105.0000
v  153.1479 5.0000 105.0000
v  164.6123 5.0000 105.0000
v  153.8647 0.0000 104.0963
v  153.8647 5.0000 104.0963
v  154.3425 0.0000 103.0862
v  154.3425 5.0000 103.0862
v  154.5815 0.0000 102.0121
v  154.5815 5.0000 102.0121
v  154.5815 0.0000 100.9168
v  154.5815 5.0000 100.9168
v  154.3425 0.0000 99.8428
v  154.3425 5.0000 99.8428
v  153.8647 0.0000 98.8326
v  153.8647 5.0000 98.8326
v  153.1479 0.0000 97.9289
v  153.1479 5.0000 97.9289
v  152.2442 0.0000 97.2121
v  152.2442 5.0000 97.2121
v  151.2340 0.0000 96.7343
v  151.2340 5.0000 96.7343
v  150.1600 0.0000 96.4953
v  150.1600 5.0000 96.4953
v  149.0647 0.0000 96.4953
v  149.0647 5.0000 96.4953
v  147.9906 0.0000 96.7342
v  147.9906 5.0000 96.7342
v  146.9805 0.0000 97.2121
v  146.9805 5.0000 97.2121
v  146.0768 0.0000 97.9289
v  146.0768 5.0000 97.9289
v  145.3600 0.0000 98.8326
v  145.3600 5.0000 98.8326
v  144.8821 0.0000 99.8428
v  144.8821 5.0000 99.8428
v  144.6432 0.0000 100.9168
v  144.6432 5.0000 100.9168
v  144.6432 0.0000 102.0121
v  144.6432 5.0000 102.0121
v  144.8821 0.0000 103.0862
v  144.8821 5.0000 103.0862
v  145.3600 0.0000 104.0963
v  145.3600 5.0000 104.0963
v  146.0768 0.0000 105.0000
v  146.0768 5.0000 105.0000
v  134.6123 0.0000 105.0000
v  134.6123 5.0000 105.0000
v  134.6123 0.0000 116.4645
v  134.6123 5.0000 116.4645
v  133.7086 0.0000 115.7477
v  133.7086 5.0000 115.7477
v  132.6985 0.0000 115.2698
v  132.6985 5.0000 115.2698
v  131.6245 0.0000 115.0308
v  131.6245 5.0000 115.0308
v  130.5291 0.0000 115.0308
v  130.5291 5.0000 115.0308
v  129.4551 0.0000 115.2698
v  129.4551 5.0000 115.2698
v  128.4450 0.0000 115.7477
v  128.4450 5.0000 115.7477
v  127.5413 0.0000 116.4645
v  127.5413 5.0000 116.4645
v  126.8245 0.0000 117.3682
v  126.8245 5.0000 117.3682
v  126.3466 0.0000 118.3783
v  126.3466 5.0000 118.3783
v  126.1077 0.0000 119.4523
v  126.1077 5.0000 119.4523
v  126.1077 0.0000 120.5477
v  126.1077 5.0000 120.5477
v  126.3466 0.0000 121.6217
v  126.3466 5.0000 121.6217
v  126.8245 0.0000 122.6318
v  126.8245 5.0000 122.6318
v  127.5413 0.0000 123.5355
v  127.5413 5.0000 123.5355
v  128.4450 0.0000 124.2523
v  128.4450 5.0000 124.2523
v  129.4551 0.0000 124.7302
v  129.4551 5.0000 124.7302
v  130.5291 0.0000 124.9692
v  130.5291 5.0000 124.9692
v  131.6245 0.0000 124.9692
v  131.6245 5.0000 124.9692
v  132.6985 0.0000 124.7302
v  132.6985 5.0000 124.7302
v  133.7086 0.0000 124.2523
v  133.7086 5.0000 124.2523
v  134.6123 0.0000 123.5355
v  134.6123 5.0000 123.5355
v  134.6123 0.0000 135.0000
v  134.6123 5.0000 135.0000
v  146.0768 0.0000 135.0000
v  146.0768 5.0000 135.0000
v  145.3600 0.0000 135.9037
v  145.3600 5.0000 135.9037
v  144.8821 0.0000 136.9138
v  144.8821 5.0000 136.9138
v  144.6432 0.0000 137.9879
v  144.6432 5.0000 137.9879
v  144.6432 0.0000 139.0832
v  144.6432 5.0000 139.0832
v  144.8821 0.0000 140.1572
v  144.8821 5.0000 140.1572
v  145.3600 0.0000 141.1674
v  145.3600 5.0000 141.1674
v  146.0768 0.0000 142.0711
v  146.0768 5.0000 142.0711
v  146.9805 0.0000 142.7879
v  146.9805 5.0000 142.7879
v  147.9906 0.0000 143.2657
v  147.9906 5.0000 143.2657
v  149.0647 0.0000 143.5047
v  149.0647 5.0000 143.5047
v  150.1600 0.0000 143.5047
v  150.1600 5.0000 143.5047
v  151.2340 0.0000 143.2657
v  151.2340 5.0000 143.2657
v  152.2442 0.0000 142.7879
v  152.2442 5.0000 142.7879
v  153.1479 0.0000 142.0711
v  153.1479 5.0000 142.0711
v  153.8647 0.0000 141.1674
v  153.8647 5.0000 141.1674
v  154.3425 0.0000 140.1572
v  154.3425 5.0000 140.1572
v  154.5815 0.0000 139.0832
v  154.5815 5.0000 139.0832
v  154.5815 0.0000 137.9879
v  154.5815 5.0000 137.9879
v  154.3425 0.0000 136.9138
v  154.3425 5.0000 136.9138
v  153.8647 0.0000 135.9037
v  153.8647 5.0000 135.9037
v  153.1479 0.0000 135.0000
v  153.1479 5.0000 135.0000
v  164.6123 0.0000 135.0000
v  164.6123 5.0000 135.0000
# 140 vertices

vn 0.0000 0.0000 -1.0000
vn 0.7835 0.0000 0.6214
vn 0.8493 0.0000 0.5280
vn 0.9459 0.0000 0.3244
vn 0.9940 0.0000 0.1092
vn 0.9940 0.0000 -0.1092
vn 0.9459 0.0000 -0.3244
vn 0.8493 0.0000 -0.5280
vn 0.7071 0.0000 -0.7071
vn 0.5280 0.0000 -0.8493
vn 0.3244 0.0000 -0.9459
vn 0.1092 0.0000 -0.9940
vn -0.1092 0.0000 -0.9940
vn -0.3244 0.0000 -0.9459
vn -0.5280 0.0000 -0.8493
vn -0.7071 0.0000 -0.7071
vn -0.8493 0.0000 -0.5280
vn -0.9459 0.0000 -0.3244
vn -0.9940 0.0000 -0.1092
vn -0.9940 0.0000 0.1092
vn -0.9459 0.0000 0.3244
vn -0.8493 0.0000 0.5280
vn -0.7835 0.0000 0.6214
vn -1.0000 0.0000 -0.0000
vn 0.6214 0.0000 -0.7835
vn -0.7071 0.0000 0.7071
vn -0.5280 0.0000 0.8493
vn -0.3244 0.0000 0.9459
vn -0.1092 0.0000 0.9940
vn 0.1092 0.0000 0.9940
vn 0.3244 0.0000 0.9459
vn 0.5280 0.0000 0.8493
vn 0.6214 0.0000 0.7835
vn 0.0000 0.0000 1.0000
vn -0.7835 0.0000 -0.6214
vn 0.7071 0.0000 0.7071
vn 0.7835 0.0000 -0.6214
vn 1.0000 0.0000 -0.0000
vn 0.0000 -1.0000 -0.0000
vn 0.0000 1.0000 -0.0000
# 40 vertex normals

vt 0.0005 0.0005 0.4001
vt 0.0769 0.0005 0.4001
vt 0.0769 0.9995 0.4001
vt 0.0005 0.9995 0.4001
vt 0.4001 0.0005 0.9231
vt 0.4061 0.0005 0.9279
vt 0.4061 0.9995 0.9279
vt 0.4001 0.9995 0.9231
vt 0.4128 0.0005 0.9311
vt 0.4128 0.9995 0.9311
vt 0.4200 0.0005 0.9327
vt 0.4200 0.9995 0.9327
vt 0.4273 0.0005 0.9327
vt 0.4273 0.9995 0.9327
vt 0.4344 0.0005 0.9311
vt 0.4344 0.9995 0.9311
vt 0.4412 0.0005 0.9279
vt 0.4412 0.9995 0.9279
vt 0.4472 0.0005 0.9231
vt 0.4472 0.9995 0.9231
vt 0.0769 0.0005 0.4472
vt 0.0829 0.0005 0.4520
vt 0.0829 0.9995 0.4520
vt 0.0769 0.9995 0.4472
vt 0.0896 0.0005 0.4551
vt 0.0896 0.9995 0.4551
vt 0.0968 0.0005 0.4567
vt 0.0968 0.9995 0.4567
vt 0.1040 0.0005 0.4567
vt 0.1040 0.9995 0.4567
vt 0.1112 0.0005 0.4551
vt 0.1112 0.9995 0.4551
vt 0.1179 0.0005 0.4520
vt 0.1179 0.9995 0.4520
vt 0.1239 0.0005 0.4472
vt 0.1239 0.9995 0.4472
vt 0.5528 0.0005 0.8761
vt 0.5588 0.0005 0.8713
vt 0.5588 0.9995 0.8713
vt 0.5528 0.9995 0.8761
vt 0.5656 0.0005 0.8681
vt 0.5656 0.9995 0.8681
vt 0.5727 0.0005 0.8665
vt 0.5727 0.9995 0.8665
vt 0.5800 0.0005 0.8665
vt 0.5800 0.9995 0.8665
vt 0.5872 0.0005 0.8681
vt 0.5872 0.9995 0.8681
vt 0.5939 0.0005 0.8713
vt 0.5939 0.9995 0.8713
vt 0.5999 0.0005 0.8761
vt 0.5999 0.9995 0.8761
vt 0.1239 0.0005 0.4001
vt 0.2003 0.0005 0.4001
vt 0.2003 0.9995 0.4001
vt 0.1239 0.9995 0.4001
vt 0.5999 0.0005 0.7997
vt 0.6763 0.0005 0.7997
vt 0.6763 0.9995 0.7997
vt 0.5999 0.9995 0.7997
vt 0.2003 0.0005 0.3237
vt 0.2063 0.0005 0.3285
vt 0.2063 0.9995 0.3285
vt 0.2003 0.9995 0.3237
vt 0.2130 0.0005 0.3317
vt 0.2130 0.9995 0.3317
vt 0.2202 0.0005 0.3333
vt 0.2202 0.9995 0.3333
vt 0.2275 0.0005 0.3333
vt 0.2275 0.9995 0.3333
vt 0.2346 0.0005 0.3317
vt 0.2346 0.9995 0.3317
vt 0.2414 0.0005 0.3285
vt 0.2414 0.9995 0.3285
vt 0.2474 0.0005 0.3237
vt 0.2474 0.9995 0.3237
vt 0.6763 0.0005 0.7526
vt 0.6823 0.0005 0.7478
vt 0.6823 0.9995 0.7478
vt 0.6763 0.9995 0.7526
vt 0.6890 0.0005 0.7447
vt 0.6890 0.9995 0.7447
vt 0.6962 0.0005 0.7431
vt 0.6962 0.9995 0.7431
vt 0.7034 0.0005 0.7431
vt 0.7034 0.9995 0.7431
vt 0.7106 0.0005 0.7447
vt 0.7106 0.9995 0.7447
vt 0.7173 0.0005 0.7478
vt 0.7173 0.9995 0.7478
vt 0.7233 0.0005 0.7526
vt 0.7233 0.9995 0.7526
vt 0.7526 0.0005 0.2767
vt 0.7586 0.0005 0.2719
vt 0.7586 0.9995 0.2719
vt 0.7526 0.9995 0.2767
vt 0.7654 0.0005 0.2687
vt 0.7654 0.9995 0.2687
vt 0.7725 0.0005 0.2671
vt 0.7725 0.9995 0.2671
vt 0.7798 0.0005 0.2671
vt 0.7798 0.9995 0.2671
vt 0.7870 0.0005 0.2687
vt 0.7870 0.9995 0.2687
vt 0.7937 0.0005 0.2719
vt 0.7937 0.9995 0.2719
vt 0.7997 0.0005 0.2767
vt 0.7997 0.9995 0.2767
vt 0.7233 0.0005 0.7997
vt 0.7997 0.0005 0.7997
vt 0.7997 0.9995 0.7997
vt 0.7233 0.9995 0.7997
vt 0.7997 0.0005 0.2003
vt 0.8761 0.0005 0.2003
vt 0.8761 0.9995 0.2003
vt 0.7997 0.9995 0.2003
vt 0.7997 0.0005 0.8761
vt 0.8057 0.0005 0.8713
vt 0.8057 0.9995 0.8713
vt 0.7997 0.9995 0.8761
vt 0.8124 0.0005 0.8681
vt 0.8124 0.9995 0.8681
vt 0.8196 0.0005 0.8665
vt 0.8196 0.9995 0.8665
vt 0.8269 0.0005 0.8665
vt 0.8269 0.9995 0.8665
vt 0.8340 0.0005 0.8681
vt 0.8340 0.9995 0.8681
vt 0.8408 0.0005 0.8713
vt 0.8408 0.9995 0.8713
vt 0.8468 0.0005 0.8761
vt 0.8468 0.9995 0.8761
vt 0.8761 0.0005 0.1532
vt 0.8821 0.0005 0.1484
vt 0.8821 0.9995 0.1484
vt 0.8761 0.9995 0.1532
vt 0.8888 0.0005 0.1452
vt 0.8888 0.9995 0.1452
vt 0.8960 0.0005 0.1437
vt 0.8960 0.9995 0.1437
vt 0.9032 0.0005 0.1437
vt 0.9032 0.9995 0.1437
vt 0.9104 0.0005 0.1452
vt 0.9104 0.9995 0.1452
vt 0.9171 0.0005 0.1484
vt 0.9171 0.9995 0.1484
vt 0.9231 0.0005 0.1532
vt 0.9231 0.9995 0.1532
vt 0.1532 0.0005 0.9231
vt 0.1592 0.0005 0.9279
vt 0.1592 0.9995 0.9279
vt 0.1532 0.9995 0.9231
vt 0.1660 0.0005 0.9311
vt 0.1660 0.9995 0.9311
vt 0.1731 0.0005 0.9327
vt 0.1731 0.9995 0.9327
vt 0.1804 0.0005 0.9327
vt 0.1804 0.9995 0.9327
vt 0.1876 0.0005 0.9311
vt 0.1876 0.9995 0.9311
vt 0.1943 0.0005 0.9279
vt 0.1943 0.9995 0.9279
vt 0.2003 0.0005 0.9231
vt 0.2003 0.9995 0.9231
vt 0.9231 0.0005 0.2003
vt 0.9995 0.0005 0.2003
vt 0.9995 0.9995 0.2003
vt 0.9231 0.9995 0.2003
vt 0.2003 0.0005 0.9995
vt 0.4001 0.0005 0.9995
vt 0.4001 0.9995 0.9995
vt 0.2003 0.9995 0.9995
vt 0.0769 0.2003 0.0005
vt 0.0769 0.4001 0.0005
vt 0.0005 0.4001 0.0005
vt 0.0005 0.2003 0.0005
vt 0.2003 0.2767 0.0005
vt 0.1239 0.2003 0.0005
vt 0.2003 0.2003 0.0005
vt 0.1239 0.4001 0.0005
vt 0.2003 0.3237 0.0005
vt 0.2003 0.4001 0.0005
vt 0.0829 0.1484 0.0005
vt 0.0689 0.1660 0.0005
vt 0.0721 0.1592 0.0005
vt 0.0769 0.1532 0.0005
vt 0.0896 0.1452 0.0005
vt 0.0968 0.1437 0.0005
vt 0.1040 0.1437 0.0005
vt 0.0673 0.1731 0.0005
vt 0.1112 0.1452 0.0005
vt 0.0673 0.1804 0.0005
vt 0.1179 0.1484 0.0005
vt 0.1239 0.1532 0.0005
vt 0.1287 0.1592 0.0005
vt 0.1319 0.1660 0.0005
vt 0.1335 0.1731 0.0005
vt 0.1335 0.1804 0.0005
vt 0.1319 0.1876 0.0005
vt 0.1287 0.1943 0.0005
vt 0.0689 0.1876 0.0005
vt 0.0721 0.1943 0.0005
vt 0.2522 0.2827 0.0005
vt 0.2346 0.2687 0.0005
vt 0.2414 0.2719 0.0005
vt 0.2474 0.2767 0.0005
vt 0.2553 0.2894 0.0005
vt 0.2569 0.2966 0.0005
vt 0.2569 0.3038 0.0005
vt 0.2275 0.2671 0.0005
vt 0.2553 0.3110 0.0005
vt 0.2202 0.2671 0.0005
vt 0.2522 0.3177 0.0005
vt 0.2474 0.3237 0.0005
vt 0.2414 0.3285 0.0005
vt 0.2346 0.3317 0.0005
vt 0.2275 0.3333 0.0005
vt 0.2202 0.3333 0.0005
vt 0.2130 0.3317 0.0005
vt 0.2063 0.3285 0.0005
vt 0.2130 0.2687 0.0005
vt 0.2063 0.2719 0.0005
vt 0.1287 0.4061 0.0005
vt 0.0721 0.4061 0.0005
vt 0.1319 0.4128 0.0005
vt 0.0689 0.4128 0.0005
vt 0.1335 0.4200 0.0005
vt 0.0673 0.4200 0.0005
vt 0.1335 0.4273 0.0005
vt 0.0673 0.4273 0.0005
vt 0.1319 0.4344 0.0005
vt 0.1287 0.4412 0.0005
vt 0.1239 0.4472 0.0005
vt 0.1179 0.4520 0.0005
vt 0.1112 0.4551 0.0005
vt 0.1040 0.4567 0.0005
vt 0.0968 0.4567 0.0005
vt 0.0896 0.4551 0.0005
vt 0.0829 0.4520 0.0005
vt 0.0769 0.4472 0.0005
vt 0.0721 0.4412 0.0005
vt 0.0689 0.4344 0.0005
vt 0.9231 0.2003 0.9995
vt 0.9995 0.2003 0.9995
vt 0.9995 0.4001 0.9995
vt 0.9231 0.4001 0.9995
vt 0.7997 0.2767 0.9995
vt 0.7997 0.2003 0.9995
vt 0.8761 0.2003 0.9995
vt 0.8761 0.4001 0.9995
vt 0.7997 0.4001 0.9995
vt 0.7997 0.3237 0.9995
vt 0.9171 0.1484 0.9995
vt 0.9231 0.1532 0.9995
vt 0.9279 0.1592 0.9995
vt 0.9311 0.1660 0.9995
vt 0.9104 0.1452 0.9995
vt 0.9032 0.1437 0.9995
vt 0.9327 0.1731 0.9995
vt 0.8960 0.1437 0.9995
vt 0.9327 0.1804 0.9995
vt 0.8888 0.1452 0.9995
vt 0.8821 0.1484 0.9995
vt 0.8761 0.1532 0.9995
vt 0.8713 0.1592 0.9995
vt 0.8681 0.1660 0.9995
vt 0.8665 0.1731 0.9995
vt 0.8665 0.1804 0.9995
vt 0.8681 0.1876 0.9995
vt 0.8713 0.1943 0.9995
vt 0.9311 0.1876 0.9995
vt 0.9279 0.1943 0.9995
vt 0.7478 0.2827 0.9995
vt 0.7526 0.2767 0.9995
vt 0.7586 0.2719 0.9995
vt 0.7654 0.2687 0.9995
vt 0.7447 0.2894 0.9995
vt 0.7431 0.2966 0.9995
vt 0.7725 0.2671 0.9995
vt 0.7431 0.3038 0.9995
vt 0.7798 0.2671 0.9995
vt 0.7447 0.3110 0.9995
vt 0.7478 0.3177 0.9995
vt 0.7526 0.3237 0.9995
vt 0.7586 0.3285 0.9995
vt 0.7654 0.3317 0.9995
vt 0.7725 0.3333 0.9995
vt 0.7798 0.3333 0.9995
vt 0.7870 0.3317 0.9995
vt 0.7937 0.3285 0.9995
vt 0.7870 0.2687 0.9995
vt 0.7937 0.2719 0.9995
vt 0.8713 0.4061 0.9995
vt 0.9279 0.4061 0.9995
vt 0.9311 0.4128 0.9995
vt 0.8681 0.4128 0.9995
vt 0.8665 0.4200 0.9995
vt 0.9327 0.4200 0.9995
vt 0.8665 0.4273 0.9995
vt 0.9327 0.4273 0.9995
vt 0.8681 0.4344 0.9995
vt 0.8713 0.4412 0.9995
vt 0.8761 0.4472 0.9995
vt 0.8821 0.4520 0.9995
vt 0.8888 0.4551 0.9995
vt 0.8960 0.4567 0.9995
vt 0.9032 0.4567 0.9995
vt 0.9104 0.4551 0.9995
vt 0.9171 0.4520 0.9995
vt 0.9231 0.4472 0.9995
vt 0.9279 0.4412 0.9995
vt 0.9311 0.4344 0.9995
# 312 texture coords

g 图形024
usemtl Material__25
s 1
f 1/1/1 2/2/1 3/3/1 4/4/1 
s 4
f 2/5/2 5/6/3 6/7/3 3/8/2 
f 5/6/3 7/9/4 8/10/4 6/7/3 
f 7/9/4 9/11/5 10/12/5 8/10/4 
f 9/11/5 11/13/6 12/14/6 10/12/5 
f 11/13/6 13/15/7 14/16/7 12/14/6 
f 13/15/7 15/17/8 16/18/8 14/16/7 
f 15/17/8 17/19/9 18/20/9 16/18/8 
f 17/21/9 19/22/10 20/23/10 18/24/9 
f 19/22/10 21/25/11 22/26/11 20/23/10 
f 21/25/11 23/27/12 24/28/12 22/26/11 
f 23/27/12 25/29/13 26/30/13 24/28/12 
f 25/29/13 27/31/14 28/32/14 26/30/13 
f 27/31/14 29/33/15 30/34/15 28/32/14 
f 29/33/15 31/35/16 32/36/16 30/34/15 
f 31/37/16 33/38/17 34/39/17 32/40/16 
f 33/38/17 35/41/18 36/42/18 34/39/17 
f 35/41/18 37/43/19 38/44/19 36/42/18 
f 37/43/19 39/45/20 40/46/20 38/44/19 
f 39/45/20 41/47/21 42/48/21 40/46/20 
f 41/47/21 43/49/22 44/50/22 42/48/21 
f 43/49/22 45/51/23 46/52/23 44/50/22 
s 2
f 45/53/1 47/54/1 48/55/1 46/56/1 
s 4
f 47/57/24 49/58/24 50/59/24 48/60/24 
s 2
f 49/61/25 51/62/10 52/63/10 50/64/25 
f 51/62/10 53/65/11 54/66/11 52/63/10 
f 53/65/11 55/67/12 56/68/12 54/66/11 
f 55/67/12 57/69/13 58/70/13 56/68/12 
f 57/69/13 59/71/14 60/72/14 58/70/13 
f 59/71/14 61/73/15 62/74/15 60/72/14 
f 61/73/15 63/75/16 64/76/16 62/74/15 
f 63/77/16 65/78/17 66/79/17 64/80/16 
f 65/78/17 67/81/18 68/82/18 66/79/17 
f 67/81/18 69/83/19 70/84/19 68/82/18 
f 69/83/19 71/85/20 72/86/20 70/84/19 
f 71/85/20 73/87/21 74/88/21 72/86/20 
f 73/87/21 75/89/22 76/90/22 74/88/21 
f 75/89/22 77/91/26 78/92/26 76/90/22 
f 77/93/26 79/94/27 80/95/27 78/96/26 
f 79/94/27 81/97/28 82/98/28 80/95/27 
f 81/97/28 83/99/29 84/100/29 82/98/28 
f 83/99/29 85/101/30 86/102/30 84/100/29 
f 85/101/30 87/103/31 88/104/31 86/102/30 
f 87/103/31 89/105/32 90/106/32 88/104/31 
f 89/105/32 91/107/33 92/108/33 90/106/32 
s 4
f 91/109/24 93/110/24 94/111/24 92/112/24 
s 2
f 93/113/34 95/114/34 96/115/34 94/116/34 
s 4
f 95/117/35 97/118/17 98/119/17 96/120/35 
f 97/118/17 99/121/18 100/122/18 98/119/17 
f 99/121/18 101/123/19 102/124/19 100/122/18 
f 101/123/19 103/125/20 104/126/20 102/124/19 
f 103/125/20 105/127/21 106/128/21 104/126/20 
f 105/127/21 107/129/22 108/130/22 106/128/21 
f 107/129/22 109/131/26 110/132/26 108/130/22 
f 109/133/26 111/134/27 112/135/27 110/136/26 
f 111/134/27 113/137/28 114/138/28 112/135/27 
f 113/137/28 115/139/29 116/140/29 114/138/28 
f 115/139/29 117/141/30 118/142/30 116/140/29 
f 117/141/30 119/143/31 120/144/31 118/142/30 
f 119/143/31 121/145/32 122/146/32 120/144/31 
f 121/145/32 123/147/36 124/148/36 122/146/32 
f 123/149/36 125/150/3 126/151/3 124/152/36 
f 125/150/3 127/153/4 128/154/4 126/151/3 
f 127/153/4 129/155/5 130/156/5 128/154/4 
f 129/155/5 131/157/6 132/158/6 130/156/5 
f 131/157/6 133/159/7 134/160/7 132/158/6 
f 133/159/7 135/161/8 136/162/8 134/160/7 
f 135/161/8 137/163/37 138/164/37 136/162/8 
s 2
f 137/165/34 139/166/34 140/167/34 138/168/34 
s 4
f 139/169/38 1/170/38 4/171/38 140/172/38 
s 16
f 137/173/39 2/174/39 1/175/39 139/176/39 
f 91/177/39 2/174/39 95/178/39 93/179/39 
f 45/180/39 2/174/39 49/181/39 47/182/39 
f 121/183/39 127/184/39 125/185/39 123/186/39 
f 119/187/39 117/188/39 127/184/39 121/183/39 
f 117/188/39 115/189/39 129/190/39 127/184/39 
f 115/189/39 113/191/39 131/192/39 129/190/39 
f 111/193/39 109/194/39 131/192/39 113/191/39 
f 107/195/39 105/196/39 131/192/39 109/194/39 
f 103/197/39 101/198/39 131/192/39 105/196/39 
f 99/199/39 97/200/39 131/192/39 101/198/39 
f 95/178/39 133/201/39 131/192/39 97/200/39 
f 95/178/39 137/173/39 135/202/39 133/201/39 
f 95/178/39 2/174/39 137/173/39 
f 75/203/39 81/204/39 79/205/39 77/206/39 
f 73/207/39 71/208/39 81/204/39 75/203/39 
f 71/208/39 69/209/39 83/210/39 81/204/39 
f 69/209/39 67/211/39 85/212/39 83/210/39 
f 65/213/39 63/214/39 85/212/39 67/211/39 
f 61/215/39 59/216/39 85/212/39 63/214/39 
f 57/217/39 55/218/39 85/212/39 59/216/39 
f 53/219/39 51/220/39 85/212/39 55/218/39 
f 49/181/39 87/221/39 85/212/39 51/220/39 
f 49/181/39 91/177/39 89/222/39 87/221/39 
f 49/181/39 2/174/39 91/177/39 
f 43/223/39 5/224/39 2/174/39 45/180/39 
f 43/223/39 41/225/39 7/226/39 5/224/39 
f 39/227/39 9/228/39 7/226/39 41/225/39 
f 37/229/39 11/230/39 9/228/39 39/227/39 
f 35/231/39 33/232/39 11/230/39 37/229/39 
f 31/233/39 29/234/39 11/230/39 33/232/39 
f 27/235/39 25/236/39 11/230/39 29/234/39 
f 23/237/39 21/238/39 11/230/39 25/236/39 
f 19/239/39 17/240/39 11/230/39 21/238/39 
f 15/241/39 13/242/39 11/230/39 17/240/39 
f 138/243/40 140/244/40 4/245/40 3/246/40 
f 92/247/40 94/248/40 96/249/40 3/246/40 
f 46/250/40 48/251/40 50/252/40 3/246/40 
f 122/253/40 124/254/40 126/255/40 128/256/40 
f 120/257/40 122/253/40 128/256/40 118/258/40 
f 118/258/40 128/256/40 130/259/40 116/260/40 
f 116/260/40 130/259/40 132/261/40 114/262/40 
f 112/263/40 114/262/40 132/261/40 110/264/40 
f 108/265/40 110/264/40 132/261/40 106/266/40 
f 104/267/40 106/266/40 132/261/40 102/268/40 
f 100/269/40 102/268/40 132/261/40 98/270/40 
f 96/249/40 98/270/40 132/261/40 134/271/40 
f 96/249/40 134/271/40 136/272/40 138/243/40 
f 96/249/40 138/243/40 3/246/40 
f 76/273/40 78/274/40 80/275/40 82/276/40 
f 74/277/40 76/273/40 82/276/40 72/278/40 
f 72/278/40 82/276/40 84/279/40 70/280/40 
f 70/280/40 84/279/40 86/281/40 68/282/40 
f 66/283/40 68/282/40 86/281/40 64/284/40 
f 62/285/40 64/284/40 86/281/40 60/286/40 
f 58/287/40 60/286/40 86/281/40 56/288/40 
f 54/289/40 56/288/40 86/281/40 52/290/40 
f 50/252/40 52/290/40 86/281/40 88/291/40 
f 50/252/40 88/291/40 90/292/40 92/247/40 
f 50/252/40 92/247/40 3/246/40 
f 44/293/40 46/250/40 3/246/40 6/294/40 
f 44/293/40 6/294/40 8/295/40 42/296/40 
f 40/297/40 42/296/40 8/295/40 10/298/40 
f 38/299/40 40/297/40 10/298/40 12/300/40 
f 36/301/40 38/299/40 12/300/40 34/302/40 
f 32/303/40 34/302/40 12/300/40 30/304/40 
f 28/305/40 30/304/40 12/300/40 26/306/40 
f 24/307/40 26/306/40 12/300/40 22/308/40 
f 20/309/40 22/308/40 12/300/40 18/310/40 
f 16/311/40 18/310/40 12/300/40 14/312/40 
# 136 polygons - 4 triangles

