# 3ds Max Wavefront OBJ Exporter v0.97b - (c)2007 guruware
# 创建的文件:31.08.2017 11:22:14

mtllib board_3_4.mtl

#
# object 图形018
#

v  135.0000 0.0000 75.0000
v  123.5355 0.0000 75.0000
v  123.5355 5.0000 75.0000
v  135.0000 5.0000 75.0000
v  124.2523 0.0000 74.0963
v  124.2523 5.0000 74.0963
v  124.7302 0.0000 73.0862
v  124.7302 5.0000 73.0862
v  124.9692 0.0000 72.0121
v  124.9692 5.0000 72.0121
v  124.9692 0.0000 70.9168
v  124.9692 5.0000 70.9168
v  124.7302 0.0000 69.8428
v  124.7302 5.0000 69.8428
v  124.2523 0.0000 68.8326
v  124.2523 5.0000 68.8326
v  123.5355 0.0000 67.9289
v  123.5355 5.0000 67.9289
v  122.6318 0.0000 67.2121
v  122.6318 5.0000 67.2121
v  121.6217 0.0000 66.7343
v  121.6217 5.0000 66.7343
v  120.5477 0.0000 66.4953
v  120.5477 5.0000 66.4953
v  119.4523 0.0000 66.4953
v  119.4523 5.0000 66.4953
v  118.3783 0.0000 66.7342
v  118.3783 5.0000 66.7342
v  117.3682 0.0000 67.2121
v  117.3682 5.0000 67.2121
v  116.4645 0.0000 67.9289
v  116.4645 5.0000 67.9289
v  115.7477 0.0000 68.8326
v  115.7477 5.0000 68.8326
v  115.2698 0.0000 69.8428
v  115.2698 5.0000 69.8428
v  115.0308 0.0000 70.9168
v  115.0308 5.0000 70.9168
v  115.0308 0.0000 72.0121
v  115.0308 5.0000 72.0121
v  115.2698 0.0000 73.0862
v  115.2698 5.0000 73.0862
v  115.7477 0.0000 74.0963
v  115.7477 5.0000 74.0963
v  116.4645 0.0000 75.0000
v  116.4645 5.0000 75.0000
v  105.0000 0.0000 75.0000
v  105.0000 5.0000 75.0000
v  105.0000 0.0000 86.4645
v  105.0000 5.0000 86.4645
v  104.0963 0.0000 85.7477
v  104.0963 5.0000 85.7477
v  103.0862 0.0000 85.2698
v  103.0862 5.0000 85.2698
v  102.0121 0.0000 85.0308
v  102.0121 5.0000 85.0308
v  100.9168 0.0000 85.0308
v  100.9168 5.0000 85.0308
v  99.8428 0.0000 85.2698
v  99.8428 5.0000 85.2698
v  98.8326 0.0000 85.7477
v  98.8326 5.0000 85.7477
v  97.9289 0.0000 86.4645
v  97.9289 5.0000 86.4645
v  97.2121 0.0000 87.3682
v  97.2121 5.0000 87.3682
v  96.7343 0.0000 88.3783
v  96.7343 5.0000 88.3783
v  96.4953 0.0000 89.4523
v  96.4953 5.0000 89.4523
v  96.4953 0.0000 90.5477
v  96.4953 5.0000 90.5477
v  96.7342 0.0000 91.6217
v  96.7342 5.0000 91.6217
v  97.2121 0.0000 92.6318
v  97.2121 5.0000 92.6318
v  97.9289 0.0000 93.5355
v  97.9289 5.0000 93.5355
v  98.8326 0.0000 94.2523
v  98.8326 5.0000 94.2523
v  99.8428 0.0000 94.7302
v  99.8428 5.0000 94.7302
v  100.9168 0.0000 94.9692
v  100.9168 5.0000 94.9692
v  102.0121 0.0000 94.9692
v  102.0121 5.0000 94.9692
v  103.0862 0.0000 94.7302
v  103.0862 5.0000 94.7302
v  104.0963 0.0000 94.2523
v  104.0963 5.0000 94.2523
v  105.0000 0.0000 93.5355
v  105.0000 5.0000 93.5355
v  105.0000 0.0000 105.0000
v  105.0000 5.0000 105.0000
v  116.4645 0.0000 105.0000
v  116.4645 5.0000 105.0000
v  115.7477 0.0000 104.0963
v  115.7477 5.0000 104.0963
v  115.2698 0.0000 103.0862
v  115.2698 5.0000 103.0862
v  115.0308 0.0000 102.0121
v  115.0308 5.0000 102.0121
v  115.0308 0.0000 100.9168
v  115.0308 5.0000 100.9168
v  115.2698 0.0000 99.8428
v  115.2698 5.0000 99.8428
v  115.7477 0.0000 98.8326
v  115.7477 5.0000 98.8326
v  116.4645 0.0000 97.9289
v  116.4645 5.0000 97.9289
v  117.3682 0.0000 97.2121
v  117.3682 5.0000 97.2121
v  118.3783 0.0000 96.7343
v  118.3783 5.0000 96.7343
v  119.4523 0.0000 96.4953
v  119.4523 5.0000 96.4953
v  120.5477 0.0000 96.4953
v  120.5477 5.0000 96.4953
v  121.6217 0.0000 96.7343
v  121.6217 5.0000 96.7343
v  122.6318 0.0000 97.2121
v  122.6318 5.0000 97.2121
v  123.5355 0.0000 97.9289
v  123.5355 5.0000 97.9289
v  124.2523 0.0000 98.8326
v  124.2523 5.0000 98.8326
v  124.7302 0.0000 99.8428
v  124.7302 5.0000 99.8428
v  124.9692 0.0000 100.9168
v  124.9692 5.0000 100.9168
v  124.9692 0.0000 102.0121
v  124.9692 5.0000 102.0121
v  124.7302 0.0000 103.0862
v  124.7302 5.0000 103.0862
v  124.2523 0.0000 104.0963
v  124.2523 5.0000 104.0963
v  123.5355 0.0000 105.0000
v  123.5355 5.0000 105.0000
v  135.0000 0.0000 105.0000
v  135.0000 5.0000 105.0000
v  135.0000 0.0000 93.5355
v  135.0000 5.0000 93.5355
v  134.0963 0.0000 94.2523
v  134.0963 5.0000 94.2523
v  133.0862 0.0000 94.7302
v  133.0862 5.0000 94.7302
v  132.0121 0.0000 94.9692
v  132.0121 5.0000 94.9692
v  130.9168 0.0000 94.9692
v  130.9168 5.0000 94.9692
v  129.8428 0.0000 94.7302
v  129.8428 5.0000 94.7302
v  128.8326 0.0000 94.2523
v  128.8326 5.0000 94.2523
v  127.9289 0.0000 93.5355
v  127.9289 5.0000 93.5355
v  127.2121 0.0000 92.6318
v  127.2121 5.0000 92.6318
v  126.7343 0.0000 91.6217
v  126.7343 5.0000 91.6217
v  126.4953 0.0000 90.5477
v  126.4953 5.0000 90.5477
v  126.4953 0.0000 89.4523
v  126.4953 5.0000 89.4523
v  126.7343 0.0000 88.3783
v  126.7343 5.0000 88.3783
v  127.2121 0.0000 87.3682
v  127.2121 5.0000 87.3682
v  127.9289 0.0000 86.4645
v  127.9289 5.0000 86.4645
v  128.8326 0.0000 85.7477
v  128.8326 5.0000 85.7477
v  129.8428 0.0000 85.2698
v  129.8428 5.0000 85.2698
v  130.9168 0.0000 85.0308
v  130.9168 5.0000 85.0308
v  132.0121 0.0000 85.0308
v  132.0121 5.0000 85.0308
v  133.0862 0.0000 85.2698
v  133.0862 5.0000 85.2698
v  134.0963 0.0000 85.7477
v  134.0963 5.0000 85.7477
v  135.0000 0.0000 86.4645
v  135.0000 5.0000 86.4645
# 184 vertices

vn 0.0000 0.0000 -1.0000
vn 0.7835 0.0000 0.6214
vn 0.8493 0.0000 0.5280
vn 0.9459 0.0000 0.3244
vn 0.9940 0.0000 0.1092
vn 0.9940 0.0000 -0.1092
vn 0.9459 0.0000 -0.3244
vn 0.8493 0.0000 -0.5280
vn 0.7071 0.0000 -0.7071
vn 0.5280 0.0000 -0.8493
vn 0.3244 0.0000 -0.9459
vn 0.1092 0.0000 -0.9940
vn -0.1092 0.0000 -0.9940
vn -0.3244 0.0000 -0.9459
vn -0.5280 0.0000 -0.8493
vn -0.7071 0.0000 -0.7071
vn -0.8493 0.0000 -0.5280
vn -0.9459 0.0000 -0.3244
vn -0.9940 0.0000 -0.1092
vn -0.9940 0.0000 0.1092
vn -0.9459 0.0000 0.3244
vn -0.8493 0.0000 0.5280
vn -0.7835 0.0000 0.6214
vn -1.0000 0.0000 -0.0000
vn 0.6214 0.0000 -0.7835
vn -0.7071 0.0000 0.7071
vn -0.5280 0.0000 0.8493
vn -0.3244 0.0000 0.9459
vn -0.1092 0.0000 0.9940
vn 0.1092 0.0000 0.9940
vn 0.3244 0.0000 0.9459
vn 0.5280 0.0000 0.8493
vn 0.6214 0.0000 0.7835
vn 0.0000 0.0000 1.0000
vn 0.7835 0.0000 -0.6214
vn 0.7071 0.0000 0.7071
vn -0.7835 0.0000 -0.6214
vn 1.0000 0.0000 -0.0000
vn -0.6214 0.0000 -0.7835
vn -0.6214 0.0000 0.7835
vn 0.0000 -1.0000 -0.0000
vn 0.0000 1.0000 -0.0000
# 42 vertex normals

vt 0.2003 0.0005 0.5999
vt 0.2767 0.0005 0.5999
vt 0.2767 0.9995 0.5999
vt 0.2003 0.9995 0.5999
vt 0.5999 0.0005 0.7233
vt 0.6059 0.0005 0.7281
vt 0.6059 0.9995 0.7281
vt 0.5999 0.9995 0.7233
vt 0.6126 0.0005 0.7313
vt 0.6126 0.9995 0.7313
vt 0.6198 0.0005 0.7329
vt 0.6198 0.9995 0.7329
vt 0.6271 0.0005 0.7329
vt 0.6271 0.9995 0.7329
vt 0.6342 0.0005 0.7313
vt 0.6342 0.9995 0.7313
vt 0.6410 0.0005 0.7281
vt 0.6410 0.9995 0.7281
vt 0.6470 0.0005 0.7233
vt 0.6470 0.9995 0.7233
vt 0.2767 0.0005 0.6470
vt 0.2827 0.0005 0.6518
vt 0.2827 0.9995 0.6518
vt 0.2767 0.9995 0.6470
vt 0.2894 0.0005 0.6549
vt 0.2894 0.9995 0.6549
vt 0.2966 0.0005 0.6565
vt 0.2966 0.9995 0.6565
vt 0.3038 0.0005 0.6565
vt 0.3038 0.9995 0.6565
vt 0.3110 0.0005 0.6550
vt 0.3110 0.9995 0.6550
vt 0.3177 0.0005 0.6518
vt 0.3177 0.9995 0.6518
vt 0.3237 0.0005 0.6470
vt 0.3237 0.9995 0.6470
vt 0.3530 0.0005 0.6763
vt 0.3590 0.0005 0.6715
vt 0.3590 0.9995 0.6715
vt 0.3530 0.9995 0.6763
vt 0.3658 0.0005 0.6683
vt 0.3658 0.9995 0.6683
vt 0.3729 0.0005 0.6667
vt 0.3729 0.9995 0.6667
vt 0.3802 0.0005 0.6667
vt 0.3802 0.9995 0.6667
vt 0.3874 0.0005 0.6683
vt 0.3874 0.9995 0.6683
vt 0.3941 0.0005 0.6715
vt 0.3941 0.9995 0.6715
vt 0.4001 0.0005 0.6763
vt 0.4001 0.9995 0.6763
vt 0.3237 0.0005 0.5999
vt 0.4001 0.0005 0.5999
vt 0.4001 0.9995 0.5999
vt 0.3237 0.9995 0.5999
vt 0.4765 0.0005 0.5999
vt 0.4765 0.9995 0.5999
vt 0.4001 0.0005 0.5235
vt 0.4061 0.0005 0.5283
vt 0.4061 0.9995 0.5283
vt 0.4001 0.9995 0.5235
vt 0.4128 0.0005 0.5315
vt 0.4128 0.9995 0.5315
vt 0.4200 0.0005 0.5331
vt 0.4200 0.9995 0.5331
vt 0.4273 0.0005 0.5331
vt 0.4273 0.9995 0.5331
vt 0.4344 0.0005 0.5315
vt 0.4344 0.9995 0.5315
vt 0.4412 0.0005 0.5283
vt 0.4412 0.9995 0.5283
vt 0.4472 0.0005 0.5235
vt 0.4472 0.9995 0.5235
vt 0.4765 0.0005 0.5528
vt 0.4825 0.0005 0.5480
vt 0.4825 0.9995 0.5480
vt 0.4765 0.9995 0.5528
vt 0.4892 0.0005 0.5449
vt 0.4892 0.9995 0.5449
vt 0.4964 0.0005 0.5433
vt 0.4964 0.9995 0.5433
vt 0.5036 0.0005 0.5433
vt 0.5036 0.9995 0.5433
vt 0.5108 0.0005 0.5449
vt 0.5108 0.9995 0.5449
vt 0.5175 0.0005 0.5480
vt 0.5175 0.9995 0.5480
vt 0.5235 0.0005 0.5528
vt 0.5235 0.9995 0.5528
vt 0.5528 0.0005 0.4765
vt 0.5588 0.0005 0.4717
vt 0.5588 0.9995 0.4717
vt 0.5528 0.9995 0.4765
vt 0.5656 0.0005 0.4685
vt 0.5656 0.9995 0.4685
vt 0.5727 0.0005 0.4669
vt 0.5727 0.9995 0.4669
vt 0.5800 0.0005 0.4669
vt 0.5800 0.9995 0.4669
vt 0.5872 0.0005 0.4685
vt 0.5872 0.9995 0.4685
vt 0.5939 0.0005 0.4717
vt 0.5939 0.9995 0.4717
vt 0.5999 0.0005 0.4765
vt 0.5999 0.9995 0.4765
vt 0.5235 0.0005 0.5999
vt 0.5999 0.0005 0.5999
vt 0.5999 0.9995 0.5999
vt 0.5235 0.9995 0.5999
vt 0.5999 0.0005 0.4001
vt 0.6763 0.0005 0.4001
vt 0.6763 0.9995 0.4001
vt 0.5999 0.9995 0.4001
vt 0.4061 0.0005 0.6715
vt 0.4061 0.9995 0.6715
vt 0.4128 0.0005 0.6683
vt 0.4128 0.9995 0.6683
vt 0.4200 0.0005 0.6667
vt 0.4200 0.9995 0.6667
vt 0.4273 0.0005 0.6667
vt 0.4273 0.9995 0.6667
vt 0.4344 0.0005 0.6683
vt 0.4344 0.9995 0.6683
vt 0.4412 0.0005 0.6715
vt 0.4412 0.9995 0.6715
vt 0.4472 0.0005 0.6763
vt 0.4472 0.9995 0.6763
vt 0.6763 0.0005 0.4472
vt 0.6823 0.0005 0.4520
vt 0.6823 0.9995 0.4520
vt 0.6763 0.9995 0.4472
vt 0.6890 0.0005 0.4551
vt 0.6890 0.9995 0.4551
vt 0.6962 0.0005 0.4567
vt 0.6962 0.9995 0.4567
vt 0.7034 0.0005 0.4567
vt 0.7034 0.9995 0.4567
vt 0.7106 0.0005 0.4551
vt 0.7106 0.9995 0.4551
vt 0.7173 0.0005 0.4520
vt 0.7173 0.9995 0.4520
vt 0.7233 0.0005 0.4472
vt 0.7233 0.9995 0.4472
vt 0.5528 0.0005 0.7233
vt 0.5588 0.0005 0.7281
vt 0.5588 0.9995 0.7281
vt 0.5528 0.9995 0.7233
vt 0.5656 0.0005 0.7313
vt 0.5656 0.9995 0.7313
vt 0.5727 0.0005 0.7329
vt 0.5727 0.9995 0.7329
vt 0.5800 0.0005 0.7329
vt 0.5800 0.9995 0.7329
vt 0.5872 0.0005 0.7313
vt 0.5872 0.9995 0.7313
vt 0.5939 0.0005 0.7281
vt 0.5939 0.9995 0.7281
vt 0.7233 0.0005 0.4001
vt 0.7997 0.0005 0.4001
vt 0.7997 0.9995 0.4001
vt 0.7233 0.9995 0.4001
vt 0.4001 0.0005 0.7997
vt 0.4765 0.0005 0.7997
vt 0.4765 0.9995 0.7997
vt 0.4001 0.9995 0.7997
vt 0.2003 0.0005 0.4765
vt 0.2063 0.0005 0.4717
vt 0.2063 0.9995 0.4717
vt 0.2003 0.9995 0.4765
vt 0.2130 0.0005 0.4685
vt 0.2130 0.9995 0.4685
vt 0.2202 0.0005 0.4669
vt 0.2202 0.9995 0.4669
vt 0.2275 0.0005 0.4669
vt 0.2275 0.9995 0.4669
vt 0.2346 0.0005 0.4685
vt 0.2346 0.9995 0.4685
vt 0.2414 0.0005 0.4717
vt 0.2414 0.9995 0.4717
vt 0.2474 0.0005 0.4765
vt 0.2474 0.9995 0.4765
vt 0.4765 0.0005 0.7526
vt 0.4825 0.0005 0.7478
vt 0.4825 0.9995 0.7478
vt 0.4765 0.9995 0.7526
vt 0.4892 0.0005 0.7447
vt 0.4892 0.9995 0.7447
vt 0.4964 0.0005 0.7431
vt 0.4964 0.9995 0.7431
vt 0.5036 0.0005 0.7431
vt 0.5036 0.9995 0.7431
vt 0.5108 0.0005 0.7447
vt 0.5108 0.9995 0.7447
vt 0.5175 0.0005 0.7478
vt 0.5175 0.9995 0.7478
vt 0.5235 0.0005 0.7526
vt 0.5235 0.9995 0.7526
vt 0.7526 0.0005 0.5235
vt 0.7586 0.0005 0.5283
vt 0.7586 0.9995 0.5283
vt 0.7526 0.9995 0.5235
vt 0.7654 0.0005 0.5315
vt 0.7654 0.9995 0.5315
vt 0.7725 0.0005 0.5331
vt 0.7725 0.9995 0.5331
vt 0.7798 0.0005 0.5331
vt 0.7798 0.9995 0.5331
vt 0.7870 0.0005 0.5315
vt 0.7870 0.9995 0.5315
vt 0.7937 0.0005 0.5283
vt 0.7937 0.9995 0.5283
vt 0.7997 0.0005 0.5235
vt 0.7997 0.9995 0.5235
vt 0.5235 0.0005 0.7997
vt 0.5999 0.0005 0.7997
vt 0.5999 0.9995 0.7997
vt 0.5235 0.9995 0.7997
vt 0.2063 0.5283 0.0005
vt 0.2130 0.5315 0.0005
vt 0.2003 0.5999 0.0005
vt 0.2003 0.5235 0.0005
vt 0.2719 0.4061 0.0005
vt 0.2687 0.4128 0.0005
vt 0.2003 0.4001 0.0005
vt 0.2767 0.4001 0.0005
vt 0.2130 0.4685 0.0005
vt 0.2063 0.4717 0.0005
vt 0.2003 0.4765 0.0005
vt 0.4001 0.4001 0.0005
vt 0.3317 0.4128 0.0005
vt 0.3285 0.4061 0.0005
vt 0.3237 0.4001 0.0005
vt 0.2202 0.4669 0.0005
vt 0.2671 0.4200 0.0005
vt 0.2671 0.4273 0.0005
vt 0.2346 0.4685 0.0005
vt 0.2275 0.4669 0.0005
vt 0.2687 0.4344 0.0005
vt 0.2414 0.4717 0.0005
vt 0.2719 0.4412 0.0005
vt 0.2474 0.4765 0.0005
vt 0.4001 0.4765 0.0005
vt 0.3333 0.4200 0.0005
vt 0.3317 0.4344 0.0005
vt 0.3333 0.4273 0.0005
vt 0.2202 0.5331 0.0005
vt 0.2767 0.5999 0.0005
vt 0.2275 0.5331 0.0005
vt 0.2346 0.5315 0.0005
vt 0.2767 0.4472 0.0005
vt 0.2827 0.4520 0.0005
vt 0.3237 0.4472 0.0005
vt 0.3285 0.4412 0.0005
vt 0.2414 0.5283 0.0005
vt 0.2474 0.5235 0.0005
vt 0.3237 0.5999 0.0005
vt 0.4001 0.5235 0.0005
vt 0.4001 0.5999 0.0005
vt 0.2553 0.4892 0.0005
vt 0.2522 0.4825 0.0005
vt 0.2894 0.4551 0.0005
vt 0.2966 0.4567 0.0005
vt 0.2522 0.5175 0.0005
vt 0.2553 0.5108 0.0005
vt 0.3110 0.4551 0.0005
vt 0.3177 0.4520 0.0005
vt 0.2569 0.5036 0.0005
vt 0.2569 0.4964 0.0005
vt 0.3038 0.4567 0.0005
vt 0.4520 0.4825 0.0005
vt 0.4344 0.4685 0.0005
vt 0.4412 0.4717 0.0005
vt 0.4472 0.4765 0.0005
vt 0.4551 0.4892 0.0005
vt 0.4567 0.4964 0.0005
vt 0.4567 0.5036 0.0005
vt 0.4273 0.4669 0.0005
vt 0.4551 0.5108 0.0005
vt 0.4200 0.4669 0.0005
vt 0.4520 0.5175 0.0005
vt 0.4472 0.5235 0.0005
vt 0.4412 0.5283 0.0005
vt 0.4344 0.5315 0.0005
vt 0.4273 0.5331 0.0005
vt 0.4200 0.5331 0.0005
vt 0.4128 0.5315 0.0005
vt 0.4061 0.5283 0.0005
vt 0.4128 0.4685 0.0005
vt 0.4061 0.4717 0.0005
vt 0.3285 0.6059 0.0005
vt 0.2719 0.6059 0.0005
vt 0.3317 0.6126 0.0005
vt 0.2687 0.6126 0.0005
vt 0.3333 0.6198 0.0005
vt 0.2671 0.6198 0.0005
vt 0.3333 0.6271 0.0005
vt 0.2671 0.6271 0.0005
vt 0.3317 0.6342 0.0005
vt 0.3285 0.6410 0.0005
vt 0.3237 0.6470 0.0005
vt 0.3177 0.6518 0.0005
vt 0.3110 0.6550 0.0005
vt 0.3038 0.6565 0.0005
vt 0.2966 0.6565 0.0005
vt 0.2894 0.6549 0.0005
vt 0.2827 0.6518 0.0005
vt 0.2767 0.6470 0.0005
vt 0.2719 0.6410 0.0005
vt 0.2687 0.6342 0.0005
vt 0.7937 0.5283 0.9995
vt 0.7997 0.5235 0.9995
vt 0.7997 0.5999 0.9995
vt 0.7870 0.5315 0.9995
vt 0.7281 0.4061 0.9995
vt 0.7233 0.4001 0.9995
vt 0.7997 0.4001 0.9995
vt 0.7313 0.4128 0.9995
vt 0.7997 0.4765 0.9995
vt 0.7937 0.4717 0.9995
vt 0.7870 0.4685 0.9995
vt 0.5999 0.4001 0.9995
vt 0.6763 0.4001 0.9995
vt 0.6715 0.4061 0.9995
vt 0.6683 0.4128 0.9995
vt 0.7798 0.4669 0.9995
vt 0.7329 0.4200 0.9995
vt 0.7329 0.4273 0.9995
vt 0.7725 0.4669 0.9995
vt 0.7654 0.4685 0.9995
vt 0.7313 0.4344 0.9995
vt 0.7586 0.4717 0.9995
vt 0.7281 0.4412 0.9995
vt 0.7526 0.4765 0.9995
vt 0.5999 0.4765 0.9995
vt 0.6667 0.4200 0.9995
vt 0.6667 0.4273 0.9995
vt 0.6683 0.4344 0.9995
vt 0.7233 0.5999 0.9995
vt 0.7798 0.5331 0.9995
vt 0.7725 0.5331 0.9995
vt 0.7654 0.5315 0.9995
vt 0.7233 0.4472 0.9995
vt 0.7173 0.4520 0.9995
vt 0.6715 0.4412 0.9995
vt 0.6763 0.4472 0.9995
vt 0.7586 0.5283 0.9995
vt 0.7526 0.5235 0.9995
vt 0.6763 0.5999 0.9995
vt 0.5999 0.5999 0.9995
vt 0.5999 0.5235 0.9995
vt 0.7478 0.4825 0.9995
vt 0.7447 0.4892 0.9995
vt 0.7106 0.4551 0.9995
vt 0.7034 0.4567 0.9995
vt 0.7478 0.5175 0.9995
vt 0.7447 0.5108 0.9995
vt 0.6823 0.4520 0.9995
vt 0.6890 0.4551 0.9995
vt 0.7431 0.4964 0.9995
vt 0.7431 0.5036 0.9995
vt 0.6962 0.4567 0.9995
vt 0.5480 0.4825 0.9995
vt 0.5528 0.4765 0.9995
vt 0.5588 0.4717 0.9995
vt 0.5656 0.4685 0.9995
vt 0.5449 0.4892 0.9995
vt 0.5433 0.4964 0.9995
vt 0.5727 0.4669 0.9995
vt 0.5433 0.5036 0.9995
vt 0.5800 0.4669 0.9995
vt 0.5449 0.5108 0.9995
vt 0.5480 0.5175 0.9995
vt 0.5528 0.5235 0.9995
vt 0.5588 0.5283 0.9995
vt 0.5656 0.5315 0.9995
vt 0.5727 0.5331 0.9995
vt 0.5800 0.5331 0.9995
vt 0.5872 0.5315 0.9995
vt 0.5939 0.5283 0.9995
vt 0.5872 0.4685 0.9995
vt 0.5939 0.4717 0.9995
vt 0.6715 0.6059 0.9995
vt 0.7281 0.6059 0.9995
vt 0.7313 0.6126 0.9995
vt 0.6683 0.6126 0.9995
vt 0.6667 0.6198 0.9995
vt 0.7329 0.6198 0.9995
vt 0.6667 0.6271 0.9995
vt 0.7329 0.6271 0.9995
vt 0.6683 0.6342 0.9995
vt 0.6715 0.6410 0.9995
vt 0.6763 0.6470 0.9995
vt 0.6823 0.6518 0.9995
vt 0.6890 0.6550 0.9995
vt 0.6962 0.6565 0.9995
vt 0.7034 0.6565 0.9995
vt 0.7106 0.6549 0.9995
vt 0.7173 0.6518 0.9995
vt 0.7233 0.6470 0.9995
vt 0.7281 0.6410 0.9995
vt 0.7313 0.6342 0.9995
# 402 texture coords

g 图形018
usemtl Material__25
s 1
f 1/1/1 2/2/1 3/3/1 4/4/1 
s 4
f 2/5/2 5/6/3 6/7/3 3/8/2 
f 5/6/3 7/9/4 8/10/4 6/7/3 
f 7/9/4 9/11/5 10/12/5 8/10/4 
f 9/11/5 11/13/6 12/14/6 10/12/5 
f 11/13/6 13/15/7 14/16/7 12/14/6 
f 13/15/7 15/17/8 16/18/8 14/16/7 
f 15/17/8 17/19/9 18/20/9 16/18/8 
f 17/21/9 19/22/10 20/23/10 18/24/9 
f 19/22/10 21/25/11 22/26/11 20/23/10 
f 21/25/11 23/27/12 24/28/12 22/26/11 
f 23/27/12 25/29/13 26/30/13 24/28/12 
f 25/29/13 27/31/14 28/32/14 26/30/13 
f 27/31/14 29/33/15 30/34/15 28/32/14 
f 29/33/15 31/35/16 32/36/16 30/34/15 
f 31/37/16 33/38/17 34/39/17 32/40/16 
f 33/38/17 35/41/18 36/42/18 34/39/17 
f 35/41/18 37/43/19 38/44/19 36/42/18 
f 37/43/19 39/45/20 40/46/20 38/44/19 
f 39/45/20 41/47/21 42/48/21 40/46/20 
f 41/47/21 43/49/22 44/50/22 42/48/21 
f 43/49/22 45/51/23 46/52/23 44/50/22 
s 2
f 45/53/1 47/54/1 48/55/1 46/56/1 
s 4
f 47/54/24 49/57/24 50/58/24 48/55/24 
s 2
f 49/59/25 51/60/10 52/61/10 50/62/25 
f 51/60/10 53/63/11 54/64/11 52/61/10 
f 53/63/11 55/65/12 56/66/12 54/64/11 
f 55/65/12 57/67/13 58/68/13 56/66/12 
f 57/67/13 59/69/14 60/70/14 58/68/13 
f 59/69/14 61/71/15 62/72/15 60/70/14 
f 61/71/15 63/73/16 64/74/16 62/72/15 
f 63/75/16 65/76/17 66/77/17 64/78/16 
f 65/76/17 67/79/18 68/80/18 66/77/17 
f 67/79/18 69/81/19 70/82/19 68/80/18 
f 69/81/19 71/83/20 72/84/20 70/82/19 
f 71/83/20 73/85/21 74/86/21 72/84/20 
f 73/85/21 75/87/22 76/88/22 74/86/21 
f 75/87/22 77/89/26 78/90/26 76/88/22 
f 77/91/26 79/92/27 80/93/27 78/94/26 
f 79/92/27 81/95/28 82/96/28 80/93/27 
f 81/95/28 83/97/29 84/98/29 82/96/28 
f 83/97/29 85/99/30 86/100/30 84/98/29 
f 85/99/30 87/101/31 88/102/31 86/100/30 
f 87/101/31 89/103/32 90/104/32 88/102/31 
f 89/103/32 91/105/33 92/106/33 90/104/32 
s 4
f 91/107/24 93/108/24 94/109/24 92/110/24 
s 2
f 93/111/34 95/112/34 96/113/34 94/114/34 
s 4
f 95/51/35 97/115/8 98/116/8 96/52/35 
f 97/115/8 99/117/7 100/118/7 98/116/8 
f 99/117/7 101/119/6 102/120/6 100/118/7 
f 101/119/6 103/121/5 104/122/5 102/120/6 
f 103/121/5 105/123/4 106/124/4 104/122/5 
f 105/123/4 107/125/3 108/126/3 106/124/4 
f 107/125/3 109/127/36 110/128/36 108/126/3 
f 109/129/36 111/130/32 112/131/32 110/132/36 
f 111/130/32 113/133/31 114/134/31 112/131/32 
f 113/133/31 115/135/30 116/136/30 114/134/31 
f 115/135/30 117/137/29 118/138/29 116/136/30 
f 117/137/29 119/139/28 120/140/28 118/138/29 
f 119/139/28 121/141/27 122/142/27 120/140/28 
f 121/141/27 123/143/26 124/144/26 122/142/27 
f 123/145/26 125/146/22 126/147/22 124/148/26 
f 125/146/22 127/149/21 128/150/21 126/147/22 
f 127/149/21 129/151/20 130/152/20 128/150/21 
f 129/151/20 131/153/19 132/154/19 130/152/20 
f 131/153/19 133/155/18 134/156/18 132/154/19 
f 133/155/18 135/157/17 136/158/17 134/156/18 
f 135/157/17 137/5/37 138/8/37 136/158/17 
s 2
f 137/159/34 139/160/34 140/161/34 138/162/34 
s 4
f 139/163/38 141/164/38 142/165/38 140/166/38 
s 2
f 141/167/39 143/168/15 144/169/15 142/170/39 
f 143/168/15 145/171/14 146/172/14 144/169/15 
f 145/171/14 147/173/13 148/174/13 146/172/14 
f 147/173/13 149/175/12 150/176/12 148/174/13 
f 149/175/12 151/177/11 152/178/11 150/176/12 
f 151/177/11 153/179/10 154/180/10 152/178/11 
f 153/179/10 155/181/9 156/182/9 154/180/10 
f 155/183/9 157/184/8 158/185/8 156/186/9 
f 157/184/8 159/187/7 160/188/7 158/185/8 
f 159/187/7 161/189/6 162/190/6 160/188/7 
f 161/189/6 163/191/5 164/192/5 162/190/6 
f 163/191/5 165/193/4 166/194/4 164/192/5 
f 165/193/4 167/195/3 168/196/3 166/194/4 
f 167/195/3 169/197/36 170/198/36 168/196/3 
f 169/199/36 171/200/32 172/201/32 170/202/36 
f 171/200/32 173/203/31 174/204/31 172/201/32 
f 173/203/31 175/205/30 176/206/30 174/204/31 
f 175/205/30 177/207/29 178/208/29 176/206/30 
f 177/207/29 179/209/28 180/210/28 178/208/29 
f 179/209/28 181/211/27 182/212/27 180/210/28 
f 181/211/27 183/213/40 184/214/40 182/212/27 
s 4
f 183/215/38 1/216/38 4/217/38 184/218/38 
s 16
f 181/219/41 179/220/41 1/221/41 183/222/41 
f 135/223/41 133/224/41 139/225/41 137/226/41 
f 139/225/41 145/227/41 143/228/41 141/229/41 
f 93/230/41 99/231/41 97/232/41 95/233/41 
f 133/224/41 147/234/41 145/227/41 139/225/41 
f 131/235/41 129/236/41 147/234/41 133/224/41 
f 129/236/41 151/237/41 149/238/41 147/234/41 
f 127/239/41 153/240/41 151/237/41 129/236/41 
f 125/241/41 155/242/41 153/240/41 127/239/41 
f 91/243/41 101/244/41 99/231/41 93/230/41 
f 91/243/41 105/245/41 103/246/41 101/244/41 
f 179/220/41 177/247/41 2/248/41 1/221/41 
f 175/249/41 173/250/41 2/248/41 177/247/41 
f 123/251/41 121/252/41 155/242/41 125/241/41 
f 91/243/41 109/253/41 107/254/41 105/245/41 
f 171/255/41 169/256/41 2/248/41 173/250/41 
f 45/257/41 2/248/41 49/258/41 47/259/41 
f 121/252/41 159/260/41 157/261/41 155/242/41 
f 119/262/41 117/263/41 159/260/41 121/252/41 
f 167/264/41 165/265/41 2/248/41 169/256/41 
f 91/243/41 113/266/41 111/267/41 109/253/41 
f 117/263/41 163/268/41 161/269/41 159/260/41 
f 115/270/41 113/266/41 163/268/41 117/263/41 
f 91/243/41 165/265/41 163/268/41 113/266/41 
f 91/243/41 49/258/41 2/248/41 165/265/41 
f 75/271/41 81/272/41 79/273/41 77/274/41 
f 73/275/41 71/276/41 81/272/41 75/271/41 
f 71/276/41 69/277/41 83/278/41 81/272/41 
f 69/277/41 67/279/41 85/280/41 83/278/41 
f 65/281/41 63/282/41 85/280/41 67/279/41 
f 61/283/41 59/284/41 85/280/41 63/282/41 
f 57/285/41 55/286/41 85/280/41 59/284/41 
f 53/287/41 51/288/41 85/280/41 55/286/41 
f 49/258/41 87/289/41 85/280/41 51/288/41 
f 49/258/41 91/243/41 89/290/41 87/289/41 
f 43/291/41 5/292/41 2/248/41 45/257/41 
f 43/291/41 41/293/41 7/294/41 5/292/41 
f 39/295/41 9/296/41 7/294/41 41/293/41 
f 37/297/41 11/298/41 9/296/41 39/295/41 
f 35/299/41 33/300/41 11/298/41 37/297/41 
f 31/301/41 29/302/41 11/298/41 33/300/41 
f 27/303/41 25/304/41 11/298/41 29/302/41 
f 23/305/41 21/306/41 11/298/41 25/304/41 
f 19/307/41 17/308/41 11/298/41 21/306/41 
f 15/309/41 13/310/41 11/298/41 17/308/41 
f 182/311/42 184/312/42 4/313/42 180/314/42 
f 136/315/42 138/316/42 140/317/42 134/318/42 
f 140/317/42 142/319/42 144/320/42 146/321/42 
f 94/322/42 96/323/42 98/324/42 100/325/42 
f 134/318/42 140/317/42 146/321/42 148/326/42 
f 132/327/42 134/318/42 148/326/42 130/328/42 
f 130/328/42 148/326/42 150/329/42 152/330/42 
f 128/331/42 130/328/42 152/330/42 154/332/42 
f 126/333/42 128/331/42 154/332/42 156/334/42 
f 92/335/42 94/322/42 100/325/42 102/336/42 
f 92/335/42 102/336/42 104/337/42 106/338/42 
f 180/314/42 4/313/42 3/339/42 178/340/42 
f 176/341/42 178/340/42 3/339/42 174/342/42 
f 124/343/42 126/333/42 156/334/42 122/344/42 
f 92/335/42 106/338/42 108/345/42 110/346/42 
f 172/347/42 174/342/42 3/339/42 170/348/42 
f 46/349/42 48/350/42 50/351/42 3/339/42 
f 122/344/42 156/334/42 158/352/42 160/353/42 
f 120/354/42 122/344/42 160/353/42 118/355/42 
f 168/356/42 170/348/42 3/339/42 166/357/42 
f 92/335/42 110/346/42 112/358/42 114/359/42 
f 118/355/42 160/353/42 162/360/42 164/361/42 
f 116/362/42 118/355/42 164/361/42 114/359/42 
f 92/335/42 114/359/42 164/361/42 166/357/42 
f 92/335/42 166/357/42 3/339/42 50/351/42 
f 76/363/42 78/364/42 80/365/42 82/366/42 
f 74/367/42 76/363/42 82/366/42 72/368/42 
f 72/368/42 82/366/42 84/369/42 70/370/42 
f 70/370/42 84/369/42 86/371/42 68/372/42 
f 66/373/42 68/372/42 86/371/42 64/374/42 
f 62/375/42 64/374/42 86/371/42 60/376/42 
f 58/377/42 60/376/42 86/371/42 56/378/42 
f 54/379/42 56/378/42 86/371/42 52/380/42 
f 50/351/42 52/380/42 86/371/42 88/381/42 
f 50/351/42 88/381/42 90/382/42 92/335/42 
f 44/383/42 46/349/42 3/339/42 6/384/42 
f 44/383/42 6/384/42 8/385/42 42/386/42 
f 40/387/42 42/386/42 8/385/42 10/388/42 
f 38/389/42 40/387/42 10/388/42 12/390/42 
f 36/391/42 38/389/42 12/390/42 34/392/42 
f 32/393/42 34/392/42 12/390/42 30/394/42 
f 28/395/42 30/394/42 12/390/42 26/396/42 
f 24/397/42 26/396/42 12/390/42 22/398/42 
f 20/399/42 22/398/42 12/390/42 18/400/42 
f 16/401/42 18/400/42 12/390/42 14/402/42 
# 182 polygons

