# 3ds Max Wavefront OBJ Exporter v0.97b - (c)2007 guruware
# 创建的文件:31.08.2017 11:25:31

mtllib board_4_5.mtl

#
# object 图形022
#

v  165.0000 0.0000 45.0000
v  153.5355 0.0000 45.0000
v  153.5355 5.0000 45.0000
v  165.0000 5.0000 45.0000
v  154.2523 0.0000 44.0963
v  154.2523 5.0000 44.0963
v  154.7302 0.0000 43.0862
v  154.7302 5.0000 43.0862
v  154.9691 0.0000 42.0121
v  154.9691 5.0000 42.0121
v  154.9691 0.0000 40.9168
v  154.9691 5.0000 40.9168
v  154.7302 0.0000 39.8428
v  154.7302 5.0000 39.8428
v  154.2523 0.0000 38.8326
v  154.2523 5.0000 38.8326
v  153.5355 0.0000 37.9289
v  153.5355 5.0000 37.9289
v  152.6318 0.0000 37.2121
v  152.6318 5.0000 37.2121
v  151.6217 0.0000 36.7343
v  151.6217 5.0000 36.7343
v  150.5477 0.0000 36.4953
v  150.5477 5.0000 36.4953
v  149.4523 0.0000 36.4953
v  149.4523 5.0000 36.4953
v  148.3783 0.0000 36.7342
v  148.3783 5.0000 36.7342
v  147.3682 0.0000 37.2121
v  147.3682 5.0000 37.2121
v  146.4645 0.0000 37.9289
v  146.4645 5.0000 37.9289
v  145.7477 0.0000 38.8326
v  145.7477 5.0000 38.8326
v  145.2698 0.0000 39.8428
v  145.2698 5.0000 39.8428
v  145.0309 0.0000 40.9168
v  145.0309 5.0000 40.9168
v  145.0309 0.0000 42.0121
v  145.0309 5.0000 42.0121
v  145.2698 0.0000 43.0862
v  145.2698 5.0000 43.0862
v  145.7477 0.0000 44.0963
v  145.7477 5.0000 44.0963
v  146.4645 0.0000 45.0000
v  146.4645 5.0000 45.0000
v  135.0000 0.0000 45.0000
v  135.0000 5.0000 45.0000
v  135.0000 0.0000 56.4645
v  135.0000 5.0000 56.4645
v  134.0963 0.0000 55.7477
v  134.0963 5.0000 55.7477
v  133.0862 0.0000 55.2698
v  133.0862 5.0000 55.2698
v  132.0121 0.0000 55.0308
v  132.0121 5.0000 55.0308
v  130.9168 0.0000 55.0308
v  130.9168 5.0000 55.0308
v  129.8428 0.0000 55.2698
v  129.8428 5.0000 55.2698
v  128.8326 0.0000 55.7477
v  128.8326 5.0000 55.7477
v  127.9289 0.0000 56.4645
v  127.9289 5.0000 56.4645
v  127.2121 0.0000 57.3682
v  127.2121 5.0000 57.3682
v  126.7343 0.0000 58.3783
v  126.7343 5.0000 58.3783
v  126.4953 0.0000 59.4523
v  126.4953 5.0000 59.4523
v  126.4953 0.0000 60.5477
v  126.4953 5.0000 60.5477
v  126.7342 0.0000 61.6217
v  126.7342 5.0000 61.6217
v  127.2121 0.0000 62.6318
v  127.2121 5.0000 62.6318
v  127.9289 0.0000 63.5355
v  127.9289 5.0000 63.5355
v  128.8326 0.0000 64.2523
v  128.8326 5.0000 64.2523
v  129.8428 0.0000 64.7302
v  129.8428 5.0000 64.7302
v  130.9168 0.0000 64.9692
v  130.9168 5.0000 64.9692
v  132.0121 0.0000 64.9692
v  132.0121 5.0000 64.9692
v  133.0862 0.0000 64.7302
v  133.0862 5.0000 64.7302
v  134.0963 0.0000 64.2523
v  134.0963 5.0000 64.2523
v  135.0000 0.0000 63.5355
v  135.0000 5.0000 63.5355
v  135.0000 0.0000 75.0000
v  135.0000 5.0000 75.0000
v  146.4645 0.0000 75.0000
v  146.4645 5.0000 75.0000
v  145.7477 0.0000 74.0963
v  145.7477 5.0000 74.0963
v  145.2698 0.0000 73.0862
v  145.2698 5.0000 73.0862
v  145.0309 0.0000 72.0121
v  145.0309 5.0000 72.0121
v  145.0309 0.0000 70.9168
v  145.0309 5.0000 70.9168
v  145.2698 0.0000 69.8428
v  145.2698 5.0000 69.8428
v  145.7477 0.0000 68.8326
v  145.7477 5.0000 68.8326
v  146.4645 0.0000 67.9289
v  146.4645 5.0000 67.9289
v  147.3682 0.0000 67.2121
v  147.3682 5.0000 67.2121
v  148.3783 0.0000 66.7343
v  148.3783 5.0000 66.7343
v  149.4523 0.0000 66.4953
v  149.4523 5.0000 66.4953
v  150.5477 0.0000 66.4953
v  150.5477 5.0000 66.4953
v  151.6217 0.0000 66.7343
v  151.6217 5.0000 66.7343
v  152.6318 0.0000 67.2121
v  152.6318 5.0000 67.2121
v  153.5355 0.0000 67.9289
v  153.5355 5.0000 67.9289
v  154.2523 0.0000 68.8326
v  154.2523 5.0000 68.8326
v  154.7302 0.0000 69.8428
v  154.7302 5.0000 69.8428
v  154.9691 0.0000 70.9168
v  154.9691 5.0000 70.9168
v  154.9691 0.0000 72.0121
v  154.9691 5.0000 72.0121
v  154.7302 0.0000 73.0862
v  154.7302 5.0000 73.0862
v  154.2523 0.0000 74.0963
v  154.2523 5.0000 74.0963
v  153.5355 0.0000 75.0000
v  153.5355 5.0000 75.0000
v  165.0000 0.0000 75.0000
v  165.0000 5.0000 75.0000
# 140 vertices

vn 0.0000 0.0000 -1.0000
vn 0.7835 0.0000 0.6214
vn 0.8493 0.0000 0.5280
vn 0.9459 0.0000 0.3244
vn 0.9940 0.0000 0.1092
vn 0.9940 0.0000 -0.1092
vn 0.9459 0.0000 -0.3244
vn 0.8493 0.0000 -0.5280
vn 0.7071 0.0000 -0.7071
vn 0.5280 0.0000 -0.8493
vn 0.3244 0.0000 -0.9459
vn 0.1092 0.0000 -0.9940
vn -0.1092 0.0000 -0.9940
vn -0.3244 0.0000 -0.9459
vn -0.5280 0.0000 -0.8493
vn -0.7071 0.0000 -0.7071
vn -0.8493 0.0000 -0.5280
vn -0.9459 0.0000 -0.3244
vn -0.9940 0.0000 -0.1092
vn -0.9940 0.0000 0.1092
vn -0.9459 0.0000 0.3244
vn -0.8493 0.0000 0.5280
vn -0.7835 0.0000 0.6214
vn -1.0000 0.0000 -0.0000
vn 0.6214 0.0000 -0.7835
vn -0.7071 0.0000 0.7071
vn -0.5280 0.0000 0.8493
vn -0.3244 0.0000 0.9459
vn -0.1092 0.0000 0.9940
vn 0.1092 0.0000 0.9940
vn 0.3244 0.0000 0.9459
vn 0.5280 0.0000 0.8493
vn 0.6214 0.0000 0.7835
vn 0.0000 0.0000 1.0000
vn 0.7835 0.0000 -0.6214
vn 0.7071 0.0000 0.7071
vn -0.7835 0.0000 -0.6214
vn 1.0000 0.0000 -0.0000
vn 0.0000 -1.0000 -0.0000
vn 0.0000 1.0000 -0.0000
# 40 vertex normals

vt 0.0005 0.0005 0.7997
vt 0.0769 0.0005 0.7997
vt 0.0769 0.9995 0.7997
vt 0.0005 0.9995 0.7997
vt 0.7997 0.0005 0.9231
vt 0.8057 0.0005 0.9279
vt 0.8057 0.9995 0.9279
vt 0.7997 0.9995 0.9231
vt 0.8124 0.0005 0.9311
vt 0.8124 0.9995 0.9311
vt 0.8196 0.0005 0.9327
vt 0.8196 0.9995 0.9327
vt 0.8269 0.0005 0.9327
vt 0.8269 0.9995 0.9327
vt 0.8340 0.0005 0.9311
vt 0.8340 0.9995 0.9311
vt 0.8408 0.0005 0.9279
vt 0.8408 0.9995 0.9279
vt 0.8468 0.0005 0.9231
vt 0.8468 0.9995 0.9231
vt 0.0769 0.0005 0.8468
vt 0.0829 0.0005 0.8516
vt 0.0829 0.9995 0.8516
vt 0.0769 0.9995 0.8468
vt 0.0896 0.0005 0.8548
vt 0.0896 0.9995 0.8548
vt 0.0968 0.0005 0.8563
vt 0.0968 0.9995 0.8563
vt 0.1040 0.0005 0.8563
vt 0.1040 0.9995 0.8563
vt 0.1112 0.0005 0.8548
vt 0.1112 0.9995 0.8548
vt 0.1179 0.0005 0.8516
vt 0.1179 0.9995 0.8516
vt 0.1239 0.0005 0.8468
vt 0.1239 0.9995 0.8468
vt 0.1532 0.0005 0.8761
vt 0.1592 0.0005 0.8713
vt 0.1592 0.9995 0.8713
vt 0.1532 0.9995 0.8761
vt 0.1660 0.0005 0.8681
vt 0.1660 0.9995 0.8681
vt 0.1731 0.0005 0.8665
vt 0.1731 0.9995 0.8665
vt 0.1804 0.0005 0.8665
vt 0.1804 0.9995 0.8665
vt 0.1876 0.0005 0.8681
vt 0.1876 0.9995 0.8681
vt 0.1943 0.0005 0.8713
vt 0.1943 0.9995 0.8713
vt 0.2003 0.0005 0.8761
vt 0.2003 0.9995 0.8761
vt 0.1239 0.0005 0.7997
vt 0.2003 0.0005 0.7997
vt 0.2003 0.9995 0.7997
vt 0.1239 0.9995 0.7997
vt 0.2767 0.0005 0.7997
vt 0.2767 0.9995 0.7997
vt 0.2003 0.0005 0.7233
vt 0.2063 0.0005 0.7281
vt 0.2063 0.9995 0.7281
vt 0.2003 0.9995 0.7233
vt 0.2130 0.0005 0.7313
vt 0.2130 0.9995 0.7313
vt 0.2202 0.0005 0.7329
vt 0.2202 0.9995 0.7329
vt 0.2275 0.0005 0.7329
vt 0.2275 0.9995 0.7329
vt 0.2346 0.0005 0.7313
vt 0.2346 0.9995 0.7313
vt 0.2414 0.0005 0.7281
vt 0.2414 0.9995 0.7281
vt 0.2474 0.0005 0.7233
vt 0.2474 0.9995 0.7233
vt 0.2767 0.0005 0.7526
vt 0.2827 0.0005 0.7478
vt 0.2827 0.9995 0.7478
vt 0.2767 0.9995 0.7526
vt 0.2894 0.0005 0.7447
vt 0.2894 0.9995 0.7447
vt 0.2966 0.0005 0.7431
vt 0.2966 0.9995 0.7431
vt 0.3038 0.0005 0.7431
vt 0.3038 0.9995 0.7431
vt 0.3110 0.0005 0.7447
vt 0.3110 0.9995 0.7447
vt 0.3177 0.0005 0.7478
vt 0.3177 0.9995 0.7478
vt 0.3237 0.0005 0.7526
vt 0.3237 0.9995 0.7526
vt 0.7526 0.0005 0.6763
vt 0.7586 0.0005 0.6715
vt 0.7586 0.9995 0.6715
vt 0.7526 0.9995 0.6763
vt 0.7654 0.0005 0.6683
vt 0.7654 0.9995 0.6683
vt 0.7725 0.0005 0.6667
vt 0.7725 0.9995 0.6667
vt 0.7798 0.0005 0.6667
vt 0.7798 0.9995 0.6667
vt 0.7870 0.0005 0.6683
vt 0.7870 0.9995 0.6683
vt 0.7937 0.0005 0.6715
vt 0.7937 0.9995 0.6715
vt 0.7997 0.0005 0.6763
vt 0.7997 0.9995 0.6763
vt 0.3237 0.0005 0.7997
vt 0.4001 0.0005 0.7997
vt 0.4001 0.9995 0.7997
vt 0.3237 0.9995 0.7997
vt 0.7997 0.0005 0.5999
vt 0.8761 0.0005 0.5999
vt 0.8761 0.9995 0.5999
vt 0.7997 0.9995 0.5999
vt 0.5999 0.0005 0.8761
vt 0.6059 0.0005 0.8713
vt 0.6059 0.9995 0.8713
vt 0.5999 0.9995 0.8761
vt 0.6126 0.0005 0.8681
vt 0.6126 0.9995 0.8681
vt 0.6198 0.0005 0.8665
vt 0.6198 0.9995 0.8665
vt 0.6271 0.0005 0.8665
vt 0.6271 0.9995 0.8665
vt 0.6342 0.0005 0.8681
vt 0.6342 0.9995 0.8681
vt 0.6410 0.0005 0.8713
vt 0.6410 0.9995 0.8713
vt 0.6470 0.0005 0.8761
vt 0.6470 0.9995 0.8761
vt 0.8761 0.0005 0.6470
vt 0.8821 0.0005 0.6518
vt 0.8821 0.9995 0.6518
vt 0.8761 0.9995 0.6470
vt 0.8888 0.0005 0.6549
vt 0.8888 0.9995 0.6549
vt 0.8960 0.0005 0.6565
vt 0.8960 0.9995 0.6565
vt 0.9032 0.0005 0.6565
vt 0.9032 0.9995 0.6565
vt 0.9104 0.0005 0.6549
vt 0.9104 0.9995 0.6549
vt 0.9171 0.0005 0.6518
vt 0.9171 0.9995 0.6518
vt 0.9231 0.0005 0.6470
vt 0.9231 0.9995 0.6470
vt 0.3530 0.0005 0.9231
vt 0.3590 0.0005 0.9279
vt 0.3590 0.9995 0.9279
vt 0.3530 0.9995 0.9231
vt 0.3658 0.0005 0.9311
vt 0.3658 0.9995 0.9311
vt 0.3729 0.0005 0.9327
vt 0.3729 0.9995 0.9327
vt 0.3802 0.0005 0.9327
vt 0.3802 0.9995 0.9327
vt 0.3874 0.0005 0.9311
vt 0.3874 0.9995 0.9311
vt 0.3941 0.0005 0.9279
vt 0.3941 0.9995 0.9279
vt 0.4001 0.0005 0.9231
vt 0.4001 0.9995 0.9231
vt 0.9231 0.0005 0.5999
vt 0.9995 0.0005 0.5999
vt 0.9995 0.9995 0.5999
vt 0.9231 0.9995 0.5999
vt 0.5999 0.0005 0.9995
vt 0.7997 0.0005 0.9995
vt 0.7997 0.9995 0.9995
vt 0.5999 0.9995 0.9995
vt 0.0721 0.6059 0.0005
vt 0.0689 0.6126 0.0005
vt 0.0005 0.5999 0.0005
vt 0.0769 0.5999 0.0005
vt 0.2003 0.5999 0.0005
vt 0.1319 0.6126 0.0005
vt 0.1287 0.6059 0.0005
vt 0.1239 0.5999 0.0005
vt 0.2003 0.6763 0.0005
vt 0.1335 0.6198 0.0005
vt 0.1319 0.6342 0.0005
vt 0.1335 0.6271 0.0005
vt 0.0673 0.6198 0.0005
vt 0.0005 0.7997 0.0005
vt 0.0673 0.6271 0.0005
vt 0.0689 0.6342 0.0005
vt 0.0721 0.6410 0.0005
vt 0.0769 0.6470 0.0005
vt 0.0829 0.6518 0.0005
vt 0.0769 0.7997 0.0005
vt 0.0896 0.6549 0.0005
vt 0.0968 0.6565 0.0005
vt 0.1239 0.6470 0.0005
vt 0.1287 0.6410 0.0005
vt 0.1239 0.7997 0.0005
vt 0.2003 0.7233 0.0005
vt 0.2003 0.7997 0.0005
vt 0.1040 0.6565 0.0005
vt 0.1112 0.6549 0.0005
vt 0.1179 0.6518 0.0005
vt 0.2522 0.6823 0.0005
vt 0.2346 0.6683 0.0005
vt 0.2414 0.6715 0.0005
vt 0.2474 0.6763 0.0005
vt 0.2553 0.6890 0.0005
vt 0.2569 0.6962 0.0005
vt 0.2569 0.7034 0.0005
vt 0.2275 0.6667 0.0005
vt 0.2553 0.7106 0.0005
vt 0.2202 0.6667 0.0005
vt 0.2522 0.7173 0.0005
vt 0.2474 0.7233 0.0005
vt 0.2414 0.7281 0.0005
vt 0.2346 0.7313 0.0005
vt 0.2275 0.7329 0.0005
vt 0.2202 0.7329 0.0005
vt 0.2130 0.7313 0.0005
vt 0.2063 0.7281 0.0005
vt 0.2130 0.6683 0.0005
vt 0.2063 0.6715 0.0005
vt 0.1287 0.8057 0.0005
vt 0.0721 0.8057 0.0005
vt 0.1319 0.8124 0.0005
vt 0.0689 0.8124 0.0005
vt 0.1335 0.8196 0.0005
vt 0.0673 0.8196 0.0005
vt 0.1335 0.8269 0.0005
vt 0.0673 0.8269 0.0005
vt 0.1319 0.8340 0.0005
vt 0.1287 0.8408 0.0005
vt 0.1239 0.8468 0.0005
vt 0.1179 0.8516 0.0005
vt 0.1112 0.8548 0.0005
vt 0.1040 0.8563 0.0005
vt 0.0968 0.8563 0.0005
vt 0.0896 0.8548 0.0005
vt 0.0829 0.8516 0.0005
vt 0.0769 0.8468 0.0005
vt 0.0721 0.8408 0.0005
vt 0.0689 0.8340 0.0005
vt 0.9279 0.6059 0.9995
vt 0.9231 0.5999 0.9995
vt 0.9995 0.5999 0.9995
vt 0.9311 0.6126 0.9995
vt 0.7997 0.5999 0.9995
vt 0.8761 0.5999 0.9995
vt 0.8713 0.6059 0.9995
vt 0.8681 0.6126 0.9995
vt 0.7997 0.6763 0.9995
vt 0.8665 0.6198 0.9995
vt 0.8665 0.6271 0.9995
vt 0.8681 0.6342 0.9995
vt 0.9995 0.7997 0.9995
vt 0.9327 0.6198 0.9995
vt 0.9327 0.6271 0.9995
vt 0.9311 0.6342 0.9995
vt 0.9279 0.6410 0.9995
vt 0.9231 0.6470 0.9995
vt 0.9231 0.7997 0.9995
vt 0.9171 0.6518 0.9995
vt 0.9104 0.6549 0.9995
vt 0.9032 0.6565 0.9995
vt 0.8713 0.6410 0.9995
vt 0.8761 0.6470 0.9995
vt 0.8761 0.7997 0.9995
vt 0.7997 0.7997 0.9995
vt 0.7997 0.7233 0.9995
vt 0.8960 0.6565 0.9995
vt 0.8888 0.6549 0.9995
vt 0.8821 0.6518 0.9995
vt 0.7478 0.6823 0.9995
vt 0.7526 0.6763 0.9995
vt 0.7586 0.6715 0.9995
vt 0.7654 0.6683 0.9995
vt 0.7447 0.6890 0.9995
vt 0.7431 0.6962 0.9995
vt 0.7725 0.6667 0.9995
vt 0.7431 0.7034 0.9995
vt 0.7798 0.6667 0.9995
vt 0.7447 0.7106 0.9995
vt 0.7478 0.7173 0.9995
vt 0.7526 0.7233 0.9995
vt 0.7586 0.7281 0.9995
vt 0.7654 0.7313 0.9995
vt 0.7725 0.7329 0.9995
vt 0.7798 0.7329 0.9995
vt 0.7870 0.7313 0.9995
vt 0.7937 0.7281 0.9995
vt 0.7870 0.6683 0.9995
vt 0.7937 0.6715 0.9995
vt 0.8713 0.8057 0.9995
vt 0.9279 0.8057 0.9995
vt 0.9311 0.8124 0.9995
vt 0.8681 0.8124 0.9995
vt 0.8665 0.8196 0.9995
vt 0.9327 0.8196 0.9995
vt 0.8665 0.8269 0.9995
vt 0.9327 0.8269 0.9995
vt 0.8681 0.8340 0.9995
vt 0.8713 0.8408 0.9995
vt 0.8761 0.8468 0.9995
vt 0.8821 0.8516 0.9995
vt 0.8888 0.8548 0.9995
vt 0.8960 0.8563 0.9995
vt 0.9032 0.8563 0.9995
vt 0.9104 0.8548 0.9995
vt 0.9171 0.8516 0.9995
vt 0.9231 0.8468 0.9995
vt 0.9279 0.8408 0.9995
vt 0.9311 0.8340 0.9995
# 310 texture coords

g 图形022
usemtl Material__25
s 1
f 1/1/1 2/2/1 3/3/1 4/4/1 
s 4
f 2/5/2 5/6/3 6/7/3 3/8/2 
f 5/6/3 7/9/4 8/10/4 6/7/3 
f 7/9/4 9/11/5 10/12/5 8/10/4 
f 9/11/5 11/13/6 12/14/6 10/12/5 
f 11/13/6 13/15/7 14/16/7 12/14/6 
f 13/15/7 15/17/8 16/18/8 14/16/7 
f 15/17/8 17/19/9 18/20/9 16/18/8 
f 17/21/9 19/22/10 20/23/10 18/24/9 
f 19/22/10 21/25/11 22/26/11 20/23/10 
f 21/25/11 23/27/12 24/28/12 22/26/11 
f 23/27/12 25/29/13 26/30/13 24/28/12 
f 25/29/13 27/31/14 28/32/14 26/30/13 
f 27/31/14 29/33/15 30/34/15 28/32/14 
f 29/33/15 31/35/16 32/36/16 30/34/15 
f 31/37/16 33/38/17 34/39/17 32/40/16 
f 33/38/17 35/41/18 36/42/18 34/39/17 
f 35/41/18 37/43/19 38/44/19 36/42/18 
f 37/43/19 39/45/20 40/46/20 38/44/19 
f 39/45/20 41/47/21 42/48/21 40/46/20 
f 41/47/21 43/49/22 44/50/22 42/48/21 
f 43/49/22 45/51/23 46/52/23 44/50/22 
s 2
f 45/53/1 47/54/1 48/55/1 46/56/1 
s 4
f 47/54/24 49/57/24 50/58/24 48/55/24 
s 2
f 49/59/25 51/60/10 52/61/10 50/62/25 
f 51/60/10 53/63/11 54/64/11 52/61/10 
f 53/63/11 55/65/12 56/66/12 54/64/11 
f 55/65/12 57/67/13 58/68/13 56/66/12 
f 57/67/13 59/69/14 60/70/14 58/68/13 
f 59/69/14 61/71/15 62/72/15 60/70/14 
f 61/71/15 63/73/16 64/74/16 62/72/15 
f 63/75/16 65/76/17 66/77/17 64/78/16 
f 65/76/17 67/79/18 68/80/18 66/77/17 
f 67/79/18 69/81/19 70/82/19 68/80/18 
f 69/81/19 71/83/20 72/84/20 70/82/19 
f 71/83/20 73/85/21 74/86/21 72/84/20 
f 73/85/21 75/87/22 76/88/22 74/86/21 
f 75/87/22 77/89/26 78/90/26 76/88/22 
f 77/91/26 79/92/27 80/93/27 78/94/26 
f 79/92/27 81/95/28 82/96/28 80/93/27 
f 81/95/28 83/97/29 84/98/29 82/96/28 
f 83/97/29 85/99/30 86/100/30 84/98/29 
f 85/99/30 87/101/31 88/102/31 86/100/30 
f 87/101/31 89/103/32 90/104/32 88/102/31 
f 89/103/32 91/105/33 92/106/33 90/104/32 
s 4
f 91/107/24 93/108/24 94/109/24 92/110/24 
s 2
f 93/111/34 95/112/34 96/113/34 94/114/34 
s 4
f 95/115/35 97/116/8 98/117/8 96/118/35 
f 97/116/8 99/119/7 100/120/7 98/117/8 
f 99/119/7 101/121/6 102/122/6 100/120/7 
f 101/121/6 103/123/5 104/124/5 102/122/6 
f 103/123/5 105/125/4 106/126/4 104/124/5 
f 105/125/4 107/127/3 108/128/3 106/126/4 
f 107/127/3 109/129/36 110/130/36 108/128/3 
f 109/131/36 111/132/32 112/133/32 110/134/36 
f 111/132/32 113/135/31 114/136/31 112/133/32 
f 113/135/31 115/137/30 116/138/30 114/136/31 
f 115/137/30 117/139/29 118/140/29 116/138/30 
f 117/139/29 119/141/28 120/142/28 118/140/29 
f 119/141/28 121/143/27 122/144/27 120/142/28 
f 121/143/27 123/145/26 124/146/26 122/144/27 
f 123/147/26 125/148/22 126/149/22 124/150/26 
f 125/148/22 127/151/21 128/152/21 126/149/22 
f 127/151/21 129/153/20 130/154/20 128/152/21 
f 129/153/20 131/155/19 132/156/19 130/154/20 
f 131/155/19 133/157/18 134/158/18 132/156/19 
f 133/157/18 135/159/17 136/160/17 134/158/18 
f 135/159/17 137/161/37 138/162/37 136/160/17 
s 2
f 137/163/34 139/164/34 140/165/34 138/166/34 
s 4
f 139/167/38 1/168/38 4/169/38 140/170/38 
s 16
f 135/171/39 133/172/39 139/173/39 137/174/39 
f 93/175/39 99/176/39 97/177/39 95/178/39 
f 91/179/39 101/180/39 99/176/39 93/175/39 
f 91/179/39 105/181/39 103/182/39 101/180/39 
f 133/172/39 131/183/39 1/184/39 139/173/39 
f 129/185/39 127/186/39 1/184/39 131/183/39 
f 125/187/39 123/188/39 1/184/39 127/186/39 
f 123/188/39 121/189/39 2/190/39 1/184/39 
f 119/191/39 117/192/39 2/190/39 121/189/39 
f 91/179/39 109/193/39 107/194/39 105/181/39 
f 45/195/39 2/190/39 49/196/39 47/197/39 
f 115/198/39 113/199/39 2/190/39 117/192/39 
f 91/179/39 2/190/39 111/200/39 109/193/39 
f 111/200/39 2/190/39 113/199/39 
f 75/201/39 81/202/39 79/203/39 77/204/39 
f 73/205/39 71/206/39 81/202/39 75/201/39 
f 71/206/39 69/207/39 83/208/39 81/202/39 
f 69/207/39 67/209/39 85/210/39 83/208/39 
f 65/211/39 63/212/39 85/210/39 67/209/39 
f 61/213/39 59/214/39 85/210/39 63/212/39 
f 57/215/39 55/216/39 85/210/39 59/214/39 
f 53/217/39 51/218/39 85/210/39 55/216/39 
f 49/196/39 87/219/39 85/210/39 51/218/39 
f 49/196/39 91/179/39 89/220/39 87/219/39 
f 49/196/39 2/190/39 91/179/39 
f 43/221/39 5/222/39 2/190/39 45/195/39 
f 43/221/39 41/223/39 7/224/39 5/222/39 
f 39/225/39 9/226/39 7/224/39 41/223/39 
f 37/227/39 11/228/39 9/226/39 39/225/39 
f 35/229/39 33/230/39 11/228/39 37/227/39 
f 31/231/39 29/232/39 11/228/39 33/230/39 
f 27/233/39 25/234/39 11/228/39 29/232/39 
f 23/235/39 21/236/39 11/228/39 25/234/39 
f 19/237/39 17/238/39 11/228/39 21/236/39 
f 15/239/39 13/240/39 11/228/39 17/238/39 
f 136/241/40 138/242/40 140/243/40 134/244/40 
f 94/245/40 96/246/40 98/247/40 100/248/40 
f 92/249/40 94/245/40 100/248/40 102/250/40 
f 92/249/40 102/250/40 104/251/40 106/252/40 
f 134/244/40 140/243/40 4/253/40 132/254/40 
f 130/255/40 132/254/40 4/253/40 128/256/40 
f 126/257/40 128/256/40 4/253/40 124/258/40 
f 124/258/40 4/253/40 3/259/40 122/260/40 
f 120/261/40 122/260/40 3/259/40 118/262/40 
f 92/249/40 106/252/40 108/263/40 110/264/40 
f 46/265/40 48/266/40 50/267/40 3/259/40 
f 116/268/40 118/262/40 3/259/40 114/269/40 
f 92/249/40 110/264/40 112/270/40 3/259/40 
f 112/270/40 114/269/40 3/259/40 
f 76/271/40 78/272/40 80/273/40 82/274/40 
f 74/275/40 76/271/40 82/274/40 72/276/40 
f 72/276/40 82/274/40 84/277/40 70/278/40 
f 70/278/40 84/277/40 86/279/40 68/280/40 
f 66/281/40 68/280/40 86/279/40 64/282/40 
f 62/283/40 64/282/40 86/279/40 60/284/40 
f 58/285/40 60/284/40 86/279/40 56/286/40 
f 54/287/40 56/286/40 86/279/40 52/288/40 
f 50/267/40 52/288/40 86/279/40 88/289/40 
f 50/267/40 88/289/40 90/290/40 92/249/40 
f 50/267/40 92/249/40 3/259/40 
f 44/291/40 46/265/40 3/259/40 6/292/40 
f 44/291/40 6/292/40 8/293/40 42/294/40 
f 40/295/40 42/294/40 8/293/40 10/296/40 
f 38/297/40 40/295/40 10/296/40 12/298/40 
f 36/299/40 38/297/40 12/298/40 34/300/40 
f 32/301/40 34/300/40 12/298/40 30/302/40 
f 28/303/40 30/302/40 12/298/40 26/304/40 
f 24/305/40 26/304/40 12/298/40 22/306/40 
f 20/307/40 22/306/40 12/298/40 18/308/40 
f 16/309/40 18/308/40 12/298/40 14/310/40 
# 136 polygons - 4 triangles

