# 3ds Max Wavefront OBJ Exporter v0.97b - (c)2007 guruware
# 创建的文件:31.08.2017 11:16:39

mtllib board_1_3.mtl

#
# object 图形015
#

v  105.0000 0.0000 135.0000
v  93.5355 0.0000 135.0000
v  93.5355 5.0000 135.0000
v  105.0000 5.0000 135.0000
v  94.2523 0.0000 135.9037
v  94.2523 5.0000 135.9037
v  94.7302 0.0000 136.9138
v  94.7302 5.0000 136.9138
v  94.9692 0.0000 137.9879
v  94.9692 5.0000 137.9879
v  94.9692 0.0000 139.0832
v  94.9692 5.0000 139.0832
v  94.7302 0.0000 140.1572
v  94.7302 5.0000 140.1572
v  94.2523 0.0000 141.1674
v  94.2523 5.0000 141.1674
v  93.5355 0.0000 142.0711
v  93.5355 5.0000 142.0711
v  92.6318 0.0000 142.7879
v  92.6318 5.0000 142.7879
v  91.6217 0.0000 143.2657
v  91.6217 5.0000 143.2657
v  90.5477 0.0000 143.5047
v  90.5477 5.0000 143.5047
v  89.4523 0.0000 143.5047
v  89.4523 5.0000 143.5047
v  88.3783 0.0000 143.2657
v  88.3783 5.0000 143.2657
v  87.3682 0.0000 142.7879
v  87.3682 5.0000 142.7879
v  86.4645 0.0000 142.0711
v  86.4645 5.0000 142.0711
v  85.7477 0.0000 141.1674
v  85.7477 5.0000 141.1674
v  85.2698 0.0000 140.1572
v  85.2698 5.0000 140.1572
v  85.0308 0.0000 139.0832
v  85.0308 5.0000 139.0832
v  85.0308 0.0000 137.9879
v  85.0308 5.0000 137.9879
v  85.2698 0.0000 136.9138
v  85.2698 5.0000 136.9138
v  85.7477 0.0000 135.9037
v  85.7477 5.0000 135.9037
v  86.4645 0.0000 135.0000
v  86.4645 5.0000 135.0000
v  75.0000 0.0000 135.0000
v  75.0000 5.0000 135.0000
v  75.0000 0.0000 146.4645
v  75.0000 5.0000 146.4645
v  75.9037 0.0000 145.7477
v  75.9037 5.0000 145.7477
v  76.9138 0.0000 145.2698
v  76.9138 5.0000 145.2698
v  77.9879 0.0000 145.0309
v  77.9879 5.0000 145.0309
v  79.0832 0.0000 145.0309
v  79.0832 5.0000 145.0309
v  80.1572 0.0000 145.2698
v  80.1572 5.0000 145.2698
v  81.1674 0.0000 145.7477
v  81.1674 5.0000 145.7477
v  82.0711 0.0000 146.4645
v  82.0711 5.0000 146.4645
v  82.7879 0.0000 147.3682
v  82.7879 5.0000 147.3682
v  83.2657 0.0000 148.3783
v  83.2657 5.0000 148.3783
v  83.5047 0.0000 149.4523
v  83.5047 5.0000 149.4523
v  83.5047 0.0000 150.5477
v  83.5047 5.0000 150.5477
v  83.2657 0.0000 151.6217
v  83.2657 5.0000 151.6217
v  82.7879 0.0000 152.6318
v  82.7879 5.0000 152.6318
v  82.0711 0.0000 153.5355
v  82.0711 5.0000 153.5355
v  81.1674 0.0000 154.2523
v  81.1674 5.0000 154.2523
v  80.1572 0.0000 154.7302
v  80.1572 5.0000 154.7302
v  79.0832 0.0000 154.9691
v  79.0832 5.0000 154.9691
v  77.9879 0.0000 154.9691
v  77.9879 5.0000 154.9691
v  76.9138 0.0000 154.7302
v  76.9138 5.0000 154.7302
v  75.9037 0.0000 154.2523
v  75.9037 5.0000 154.2523
v  75.0000 0.0000 153.5355
v  75.0000 5.0000 153.5355
v  75.0000 0.0000 165.0000
v  75.0000 5.0000 165.0000
v  105.0000 0.0000 165.0000
v  105.0000 5.0000 165.0000
v  105.0000 0.0000 153.5355
v  105.0000 5.0000 153.5355
v  104.0963 0.0000 154.2523
v  104.0963 5.0000 154.2523
v  103.0862 0.0000 154.7302
v  103.0862 5.0000 154.7302
v  102.0121 0.0000 154.9691
v  102.0121 5.0000 154.9691
v  100.9168 0.0000 154.9691
v  100.9168 5.0000 154.9691
v  99.8428 0.0000 154.7302
v  99.8428 5.0000 154.7302
v  98.8326 0.0000 154.2523
v  98.8326 5.0000 154.2523
v  97.9289 0.0000 153.5355
v  97.9289 5.0000 153.5355
v  97.2121 0.0000 152.6318
v  97.2121 5.0000 152.6318
v  96.7343 0.0000 151.6217
v  96.7343 5.0000 151.6217
v  96.4953 0.0000 150.5477
v  96.4953 5.0000 150.5477
v  96.4953 0.0000 149.4523
v  96.4953 5.0000 149.4523
v  96.7343 0.0000 148.3783
v  96.7343 5.0000 148.3783
v  97.2121 0.0000 147.3682
v  97.2121 5.0000 147.3682
v  97.9289 0.0000 146.4645
v  97.9289 5.0000 146.4645
v  98.8326 0.0000 145.7477
v  98.8326 5.0000 145.7477
v  99.8428 0.0000 145.2698
v  99.8428 5.0000 145.2698
v  100.9168 0.0000 145.0309
v  100.9168 5.0000 145.0309
v  102.0121 0.0000 145.0309
v  102.0121 5.0000 145.0309
v  103.0862 0.0000 145.2698
v  103.0862 5.0000 145.2698
v  104.0963 0.0000 145.7477
v  104.0963 5.0000 145.7477
v  105.0000 0.0000 146.4645
v  105.0000 5.0000 146.4645
# 140 vertices

vn 0.0000 0.0000 -1.0000
vn -0.7835 0.0000 0.6214
vn -0.8493 0.0000 0.5280
vn -0.9459 0.0000 0.3244
vn -0.9940 0.0000 0.1092
vn -0.9940 0.0000 -0.1092
vn -0.9459 0.0000 -0.3244
vn -0.8493 0.0000 -0.5280
vn -0.7071 0.0000 -0.7071
vn -0.5280 0.0000 -0.8493
vn -0.3244 0.0000 -0.9459
vn -0.1092 0.0000 -0.9940
vn 0.1092 0.0000 -0.9940
vn 0.3244 0.0000 -0.9459
vn 0.5280 0.0000 -0.8493
vn 0.7071 0.0000 -0.7071
vn 0.8493 0.0000 -0.5280
vn 0.9459 0.0000 -0.3244
vn 0.9940 0.0000 -0.1092
vn 0.9940 0.0000 0.1092
vn 0.9459 0.0000 0.3244
vn 0.8493 0.0000 0.5280
vn 0.7835 0.0000 0.6214
vn -1.0000 0.0000 -0.0000
vn 0.6214 0.0000 0.7835
vn 0.5280 0.0000 0.8493
vn 0.3244 0.0000 0.9459
vn 0.1092 0.0000 0.9940
vn -0.1092 0.0000 0.9940
vn -0.3244 0.0000 0.9459
vn -0.5280 0.0000 0.8493
vn -0.7071 0.0000 0.7071
vn 0.6214 0.0000 -0.7835
vn 0.0000 0.0000 1.0000
vn 1.0000 0.0000 -0.0000
vn -0.6214 0.0000 -0.7835
vn 0.7071 0.0000 0.7071
vn -0.6214 0.0000 0.7835
vn 0.0000 -1.0000 -0.0000
vn 0.0000 1.0000 -0.0000
# 40 vertex normals

vt 0.4001 0.0005 0.2003
vt 0.4765 0.0005 0.2003
vt 0.4765 0.9995 0.2003
vt 0.4001 0.9995 0.2003
vt 0.7997 0.0005 0.5235
vt 0.8057 0.0005 0.5283
vt 0.8057 0.9995 0.5283
vt 0.7997 0.9995 0.5235
vt 0.8124 0.0005 0.5315
vt 0.8124 0.9995 0.5315
vt 0.8196 0.0005 0.5331
vt 0.8196 0.9995 0.5331
vt 0.8269 0.0005 0.5331
vt 0.8269 0.9995 0.5331
vt 0.8340 0.0005 0.5315
vt 0.8340 0.9995 0.5315
vt 0.8408 0.0005 0.5283
vt 0.8408 0.9995 0.5283
vt 0.8468 0.0005 0.5235
vt 0.8468 0.9995 0.5235
vt 0.4765 0.0005 0.1532
vt 0.4825 0.0005 0.1484
vt 0.4825 0.9995 0.1484
vt 0.4765 0.9995 0.1532
vt 0.4892 0.0005 0.1452
vt 0.4892 0.9995 0.1452
vt 0.4964 0.0005 0.1437
vt 0.4964 0.9995 0.1437
vt 0.5036 0.0005 0.1437
vt 0.5036 0.9995 0.1437
vt 0.5108 0.0005 0.1452
vt 0.5108 0.9995 0.1452
vt 0.5175 0.0005 0.1484
vt 0.5175 0.9995 0.1484
vt 0.5235 0.0005 0.1532
vt 0.5235 0.9995 0.1532
vt 0.1532 0.0005 0.4765
vt 0.1592 0.0005 0.4717
vt 0.1592 0.9995 0.4717
vt 0.1532 0.9995 0.4765
vt 0.1660 0.0005 0.4685
vt 0.1660 0.9995 0.4685
vt 0.1731 0.0005 0.4669
vt 0.1731 0.9995 0.4669
vt 0.1804 0.0005 0.4669
vt 0.1804 0.9995 0.4669
vt 0.1876 0.0005 0.4685
vt 0.1876 0.9995 0.4685
vt 0.1943 0.0005 0.4717
vt 0.1943 0.9995 0.4717
vt 0.2003 0.0005 0.4765
vt 0.2003 0.9995 0.4765
vt 0.5235 0.0005 0.2003
vt 0.5999 0.0005 0.2003
vt 0.5999 0.9995 0.2003
vt 0.5235 0.9995 0.2003
vt 0.7997 0.0005 0.4001
vt 0.8761 0.0005 0.4001
vt 0.8761 0.9995 0.4001
vt 0.7997 0.9995 0.4001
vt 0.4001 0.0005 0.1239
vt 0.4061 0.0005 0.1287
vt 0.4061 0.9995 0.1287
vt 0.4001 0.9995 0.1239
vt 0.4128 0.0005 0.1319
vt 0.4128 0.9995 0.1319
vt 0.4200 0.0005 0.1335
vt 0.4200 0.9995 0.1335
vt 0.4273 0.0005 0.1335
vt 0.4273 0.9995 0.1335
vt 0.4344 0.0005 0.1319
vt 0.4344 0.9995 0.1319
vt 0.4412 0.0005 0.1287
vt 0.4412 0.9995 0.1287
vt 0.4472 0.0005 0.1239
vt 0.4472 0.9995 0.1239
vt 0.8761 0.0005 0.4472
vt 0.8821 0.0005 0.4520
vt 0.8821 0.9995 0.4520
vt 0.8761 0.9995 0.4472
vt 0.8888 0.0005 0.4551
vt 0.8888 0.9995 0.4551
vt 0.8960 0.0005 0.4567
vt 0.8960 0.9995 0.4567
vt 0.9032 0.0005 0.4567
vt 0.9032 0.9995 0.4567
vt 0.9104 0.0005 0.4551
vt 0.9104 0.9995 0.4551
vt 0.9171 0.0005 0.4520
vt 0.9171 0.9995 0.4520
vt 0.9231 0.0005 0.4472
vt 0.9231 0.9995 0.4472
vt 0.5528 0.0005 0.0769
vt 0.5588 0.0005 0.0721
vt 0.5588 0.9995 0.0721
vt 0.5528 0.9995 0.0769
vt 0.5656 0.0005 0.0689
vt 0.5656 0.9995 0.0689
vt 0.5727 0.0005 0.0673
vt 0.5727 0.9995 0.0673
vt 0.5800 0.0005 0.0673
vt 0.5800 0.9995 0.0673
vt 0.5872 0.0005 0.0689
vt 0.5872 0.9995 0.0689
vt 0.5939 0.0005 0.0721
vt 0.5939 0.9995 0.0721
vt 0.5999 0.0005 0.0769
vt 0.5999 0.9995 0.0769
vt 0.9231 0.0005 0.4001
vt 0.9995 0.0005 0.4001
vt 0.9995 0.9995 0.4001
vt 0.9231 0.9995 0.4001
vt 0.4001 0.0005 0.0005
vt 0.5999 0.0005 0.0005
vt 0.5999 0.9995 0.0005
vt 0.4001 0.9995 0.0005
vt 0.0005 0.0005 0.5999
vt 0.0769 0.0005 0.5999
vt 0.0769 0.9995 0.5999
vt 0.0005 0.9995 0.5999
vt 0.4001 0.0005 0.0769
vt 0.4061 0.0005 0.0721
vt 0.4061 0.9995 0.0721
vt 0.4001 0.9995 0.0769
vt 0.4128 0.0005 0.0689
vt 0.4128 0.9995 0.0689
vt 0.4200 0.0005 0.0673
vt 0.4200 0.9995 0.0673
vt 0.4273 0.0005 0.0673
vt 0.4273 0.9995 0.0673
vt 0.4344 0.0005 0.0689
vt 0.4344 0.9995 0.0689
vt 0.4412 0.0005 0.0721
vt 0.4412 0.9995 0.0721
vt 0.4472 0.0005 0.0769
vt 0.4472 0.9995 0.0769
vt 0.0769 0.0005 0.5528
vt 0.0829 0.0005 0.5480
vt 0.0829 0.9995 0.5480
vt 0.0769 0.9995 0.5528
vt 0.0896 0.0005 0.5449
vt 0.0896 0.9995 0.5449
vt 0.0968 0.0005 0.5433
vt 0.0968 0.9995 0.5433
vt 0.1040 0.0005 0.5433
vt 0.1040 0.9995 0.5433
vt 0.1112 0.0005 0.5449
vt 0.1112 0.9995 0.5449
vt 0.1179 0.0005 0.5480
vt 0.1179 0.9995 0.5480
vt 0.1239 0.0005 0.5528
vt 0.1239 0.9995 0.5528
vt 0.5528 0.0005 0.1239
vt 0.5588 0.0005 0.1287
vt 0.5588 0.9995 0.1287
vt 0.5528 0.9995 0.1239
vt 0.5656 0.0005 0.1319
vt 0.5656 0.9995 0.1319
vt 0.5727 0.0005 0.1335
vt 0.5727 0.9995 0.1335
vt 0.5800 0.0005 0.1335
vt 0.5800 0.9995 0.1335
vt 0.5872 0.0005 0.1319
vt 0.5872 0.9995 0.1319
vt 0.5939 0.0005 0.1287
vt 0.5939 0.9995 0.1287
vt 0.5999 0.0005 0.1239
vt 0.5999 0.9995 0.1239
vt 0.1239 0.0005 0.5999
vt 0.2003 0.0005 0.5999
vt 0.2003 0.9995 0.5999
vt 0.1239 0.9995 0.5999
vt 0.4061 0.1287 0.0005
vt 0.4128 0.1319 0.0005
vt 0.4001 0.2003 0.0005
vt 0.4001 0.1239 0.0005
vt 0.5939 0.0721 0.0005
vt 0.5872 0.0689 0.0005
vt 0.5999 0.0769 0.0005
vt 0.5283 0.1943 0.0005
vt 0.5315 0.1876 0.0005
vt 0.5999 0.2003 0.0005
vt 0.5235 0.2003 0.0005
vt 0.4128 0.0689 0.0005
vt 0.4061 0.0721 0.0005
vt 0.4001 0.0769 0.0005
vt 0.5872 0.1319 0.0005
vt 0.5939 0.1287 0.0005
vt 0.5999 0.1239 0.0005
vt 0.4685 0.1876 0.0005
vt 0.4717 0.1943 0.0005
vt 0.4765 0.2003 0.0005
vt 0.4669 0.1804 0.0005
vt 0.4200 0.1335 0.0005
vt 0.4273 0.1335 0.0005
vt 0.4685 0.1660 0.0005
vt 0.4669 0.1731 0.0005
vt 0.4344 0.1319 0.0005
vt 0.4717 0.1592 0.0005
vt 0.5800 0.1335 0.0005
vt 0.5331 0.1804 0.0005
vt 0.5331 0.1731 0.0005
vt 0.5656 0.1319 0.0005
vt 0.5727 0.1335 0.0005
vt 0.5315 0.1660 0.0005
vt 0.5588 0.1287 0.0005
vt 0.5283 0.1592 0.0005
vt 0.5528 0.1239 0.0005
vt 0.4412 0.1287 0.0005
vt 0.4765 0.1532 0.0005
vt 0.4200 0.0673 0.0005
vt 0.4344 0.0689 0.0005
vt 0.4273 0.0673 0.0005
vt 0.4472 0.0769 0.0005
vt 0.4412 0.0721 0.0005
vt 0.4551 0.0896 0.0005
vt 0.4520 0.0829 0.0005
vt 0.4472 0.1239 0.0005
vt 0.4520 0.1179 0.0005
vt 0.5235 0.1532 0.0005
vt 0.5175 0.1484 0.0005
vt 0.5800 0.0673 0.0005
vt 0.5727 0.0673 0.0005
vt 0.5449 0.1112 0.0005
vt 0.5480 0.1179 0.0005
vt 0.4892 0.1452 0.0005
vt 0.4825 0.1484 0.0005
vt 0.5656 0.0689 0.0005
vt 0.5588 0.0721 0.0005
vt 0.5528 0.0769 0.0005
vt 0.5480 0.0829 0.0005
vt 0.5449 0.0896 0.0005
vt 0.5433 0.0968 0.0005
vt 0.4567 0.0968 0.0005
vt 0.5433 0.1040 0.0005
vt 0.4567 0.1040 0.0005
vt 0.4551 0.1112 0.0005
vt 0.5036 0.1437 0.0005
vt 0.4964 0.1437 0.0005
vt 0.5108 0.1452 0.0005
vt 0.5939 0.1287 0.9995
vt 0.5999 0.1239 0.9995
vt 0.5999 0.2003 0.9995
vt 0.5872 0.1319 0.9995
vt 0.4061 0.0721 0.9995
vt 0.4001 0.0769 0.9995
vt 0.4001 0.0005 0.9995
vt 0.4128 0.0689 0.9995
vt 0.4717 0.1943 0.9995
vt 0.4765 0.2003 0.9995
vt 0.4001 0.2003 0.9995
vt 0.4685 0.1876 0.9995
vt 0.5999 0.0005 0.9995
vt 0.5999 0.0769 0.9995
vt 0.5939 0.0721 0.9995
vt 0.5872 0.0689 0.9995
vt 0.4001 0.1239 0.9995
vt 0.4061 0.1287 0.9995
vt 0.4128 0.1319 0.9995
vt 0.5235 0.2003 0.9995
vt 0.5283 0.1943 0.9995
vt 0.5315 0.1876 0.9995
vt 0.5331 0.1804 0.9995
vt 0.5800 0.1335 0.9995
vt 0.5727 0.1335 0.9995
vt 0.5331 0.1731 0.9995
vt 0.5315 0.1660 0.9995
vt 0.5656 0.1319 0.9995
vt 0.5283 0.1592 0.9995
vt 0.4200 0.1335 0.9995
vt 0.4669 0.1804 0.9995
vt 0.4669 0.1731 0.9995
vt 0.4273 0.1335 0.9995
vt 0.4344 0.1319 0.9995
vt 0.4685 0.1660 0.9995
vt 0.4412 0.1287 0.9995
vt 0.4717 0.1592 0.9995
vt 0.4472 0.1239 0.9995
vt 0.5588 0.1287 0.9995
vt 0.5235 0.1532 0.9995
vt 0.5800 0.0673 0.9995
vt 0.5727 0.0673 0.9995
vt 0.5656 0.0689 0.9995
vt 0.5588 0.0721 0.9995
vt 0.5528 0.0769 0.9995
vt 0.5480 0.0829 0.9995
vt 0.5449 0.0896 0.9995
vt 0.5528 0.1239 0.9995
vt 0.5480 0.1179 0.9995
vt 0.4765 0.1532 0.9995
vt 0.4825 0.1484 0.9995
vt 0.4200 0.0673 0.9995
vt 0.4273 0.0673 0.9995
vt 0.4520 0.1179 0.9995
vt 0.4551 0.1112 0.9995
vt 0.5175 0.1484 0.9995
vt 0.5108 0.1452 0.9995
vt 0.4344 0.0689 0.9995
vt 0.4412 0.0721 0.9995
vt 0.4472 0.0769 0.9995
vt 0.4520 0.0829 0.9995
vt 0.4551 0.0896 0.9995
vt 0.4567 0.0968 0.9995
vt 0.5433 0.0968 0.9995
vt 0.5433 0.1040 0.9995
vt 0.4567 0.1040 0.9995
vt 0.5449 0.1112 0.9995
vt 0.5036 0.1437 0.9995
vt 0.4964 0.1437 0.9995
vt 0.4892 0.1452 0.9995
# 310 texture coords

g 图形015
usemtl Material__25
s 1
f 1/1/1 2/2/1 3/3/1 4/4/1 
s 4
f 2/5/2 5/6/3 6/7/3 3/8/2 
f 5/6/3 7/9/4 8/10/4 6/7/3 
f 7/9/4 9/11/5 10/12/5 8/10/4 
f 9/11/5 11/13/6 12/14/6 10/12/5 
f 11/13/6 13/15/7 14/16/7 12/14/6 
f 13/15/7 15/17/8 16/18/8 14/16/7 
f 15/17/8 17/19/9 18/20/9 16/18/8 
f 17/21/9 19/22/10 20/23/10 18/24/9 
f 19/22/10 21/25/11 22/26/11 20/23/10 
f 21/25/11 23/27/12 24/28/12 22/26/11 
f 23/27/12 25/29/13 26/30/13 24/28/12 
f 25/29/13 27/31/14 28/32/14 26/30/13 
f 27/31/14 29/33/15 30/34/15 28/32/14 
f 29/33/15 31/35/16 32/36/16 30/34/15 
f 31/37/16 33/38/17 34/39/17 32/40/16 
f 33/38/17 35/41/18 36/42/18 34/39/17 
f 35/41/18 37/43/19 38/44/19 36/42/18 
f 37/43/19 39/45/20 40/46/20 38/44/19 
f 39/45/20 41/47/21 42/48/21 40/46/20 
f 41/47/21 43/49/22 44/50/22 42/48/21 
f 43/49/22 45/51/23 46/52/23 44/50/22 
s 2
f 45/53/1 47/54/1 48/55/1 46/56/1 
s 4
f 47/57/24 49/58/24 50/59/24 48/60/24 
s 2
f 49/61/25 51/62/26 52/63/26 50/64/25 
f 51/62/26 53/65/27 54/66/27 52/63/26 
f 53/65/27 55/67/28 56/68/28 54/66/27 
f 55/67/28 57/69/29 58/70/29 56/68/28 
f 57/69/29 59/71/30 60/72/30 58/70/29 
f 59/71/30 61/73/31 62/74/31 60/72/30 
f 61/73/31 63/75/32 64/76/32 62/74/31 
f 63/77/32 65/78/3 66/79/3 64/80/32 
f 65/78/3 67/81/4 68/82/4 66/79/3 
f 67/81/4 69/83/5 70/84/5 68/82/4 
f 69/83/5 71/85/6 72/86/6 70/84/5 
f 71/85/6 73/87/7 74/88/7 72/86/6 
f 73/87/7 75/89/8 76/90/8 74/88/7 
f 75/89/8 77/91/9 78/92/9 76/90/8 
f 77/93/9 79/94/10 80/95/10 78/96/9 
f 79/94/10 81/97/11 82/98/11 80/95/10 
f 81/97/11 83/99/12 84/100/12 82/98/11 
f 83/99/12 85/101/13 86/102/13 84/100/12 
f 85/101/13 87/103/14 88/104/14 86/102/13 
f 87/103/14 89/105/15 90/106/15 88/104/14 
f 89/105/15 91/107/33 92/108/33 90/106/15 
s 4
f 91/109/24 93/110/24 94/111/24 92/112/24 
s 2
f 93/113/34 95/114/34 96/115/34 94/116/34 
s 4
f 95/117/35 97/118/35 98/119/35 96/120/35 
s 2
f 97/121/36 99/122/10 100/123/10 98/124/36 
f 99/122/10 101/125/11 102/126/11 100/123/10 
f 101/125/11 103/127/12 104/128/12 102/126/11 
f 103/127/12 105/129/13 106/130/13 104/128/12 
f 105/129/13 107/131/14 108/132/14 106/130/13 
f 107/131/14 109/133/15 110/134/15 108/132/14 
f 109/133/15 111/135/16 112/136/16 110/134/15 
f 111/137/16 113/138/17 114/139/17 112/140/16 
f 113/138/17 115/141/18 116/142/18 114/139/17 
f 115/141/18 117/143/19 118/144/19 116/142/18 
f 117/143/19 119/145/20 120/146/20 118/144/19 
f 119/145/20 121/147/21 122/148/21 120/146/20 
f 121/147/21 123/149/22 124/150/22 122/148/21 
f 123/149/22 125/151/37 126/152/37 124/150/22 
f 125/153/37 127/154/26 128/155/26 126/156/37 
f 127/154/26 129/157/27 130/158/27 128/155/26 
f 129/157/27 131/159/28 132/160/28 130/158/27 
f 131/159/28 133/161/29 134/162/29 132/160/28 
f 133/161/29 135/163/30 136/164/30 134/162/29 
f 135/163/30 137/165/31 138/166/31 136/164/30 
f 137/165/31 139/167/38 140/168/38 138/166/31 
s 4
f 139/169/35 1/170/35 4/171/35 140/172/35 
s 16
f 137/173/39 135/174/39 1/175/39 139/176/39 
f 89/177/39 87/178/39 93/114/39 91/179/39 
f 43/180/39 41/181/39 47/182/39 45/183/39 
f 95/113/39 101/184/39 99/185/39 97/186/39 
f 47/182/39 53/187/39 51/188/39 49/189/39 
f 1/175/39 7/190/39 5/191/39 2/192/39 
f 135/174/39 9/193/39 7/190/39 1/175/39 
f 133/194/39 131/195/39 9/193/39 135/174/39 
f 131/195/39 13/196/39 11/197/39 9/193/39 
f 129/198/39 15/199/39 13/196/39 131/195/39 
f 41/181/39 55/200/39 53/187/39 47/182/39 
f 39/201/39 37/202/39 55/200/39 41/181/39 
f 37/202/39 59/203/39 57/204/39 55/200/39 
f 35/205/39 61/206/39 59/203/39 37/202/39 
f 33/207/39 63/208/39 61/206/39 35/205/39 
f 127/209/39 17/210/39 15/199/39 129/198/39 
f 93/114/39 103/211/39 101/184/39 95/113/39 
f 93/114/39 107/212/39 105/213/39 103/211/39 
f 93/114/39 111/214/39 109/215/39 107/212/39 
f 93/114/39 115/216/39 113/217/39 111/214/39 
f 125/218/39 123/219/39 17/210/39 127/209/39 
f 31/220/39 29/221/39 63/208/39 33/207/39 
f 85/222/39 83/223/39 93/114/39 87/178/39 
f 29/221/39 67/224/39 65/225/39 63/208/39 
f 123/219/39 21/226/39 19/227/39 17/210/39 
f 83/223/39 81/228/39 115/216/39 93/114/39 
f 79/229/39 77/230/39 115/216/39 81/228/39 
f 75/231/39 73/232/39 115/216/39 77/230/39 
f 71/233/39 117/234/39 115/216/39 73/232/39 
f 71/233/39 69/235/39 119/236/39 117/234/39 
f 67/224/39 121/237/39 119/236/39 69/235/39 
f 121/237/39 67/224/39 21/226/39 123/219/39 
f 67/224/39 25/238/39 23/239/39 21/226/39 
f 67/224/39 29/221/39 27/240/39 25/238/39 
f 138/241/40 140/242/40 4/243/40 136/244/40 
f 90/245/40 92/246/40 94/247/40 88/248/40 
f 44/249/40 46/250/40 48/251/40 42/252/40 
f 96/253/40 98/254/40 100/255/40 102/256/40 
f 48/251/40 50/257/40 52/258/40 54/259/40 
f 4/243/40 3/260/40 6/261/40 8/262/40 
f 136/244/40 4/243/40 8/262/40 10/263/40 
f 134/264/40 136/244/40 10/263/40 132/265/40 
f 132/265/40 10/263/40 12/266/40 14/267/40 
f 130/268/40 132/265/40 14/267/40 16/269/40 
f 42/252/40 48/251/40 54/259/40 56/270/40 
f 40/271/40 42/252/40 56/270/40 38/272/40 
f 38/272/40 56/270/40 58/273/40 60/274/40 
f 36/275/40 38/272/40 60/274/40 62/276/40 
f 34/277/40 36/275/40 62/276/40 64/278/40 
f 128/279/40 130/268/40 16/269/40 18/280/40 
f 94/247/40 96/253/40 102/256/40 104/281/40 
f 94/247/40 104/281/40 106/282/40 108/283/40 
f 94/247/40 108/283/40 110/284/40 112/285/40 
f 94/247/40 112/285/40 114/286/40 116/287/40 
f 126/288/40 128/279/40 18/280/40 124/289/40 
f 32/290/40 34/277/40 64/278/40 30/291/40 
f 86/292/40 88/248/40 94/247/40 84/293/40 
f 30/291/40 64/278/40 66/294/40 68/295/40 
f 124/289/40 18/280/40 20/296/40 22/297/40 
f 84/293/40 94/247/40 116/287/40 82/298/40 
f 80/299/40 82/298/40 116/287/40 78/300/40 
f 76/301/40 78/300/40 116/287/40 74/302/40 
f 72/303/40 74/302/40 116/287/40 118/304/40 
f 72/303/40 118/304/40 120/305/40 70/306/40 
f 68/295/40 70/306/40 120/305/40 122/307/40 
f 122/307/40 124/289/40 22/297/40 68/295/40 
f 68/295/40 22/297/40 24/308/40 26/309/40 
f 68/295/40 26/309/40 28/310/40 30/291/40 
# 138 polygons

